<?xml version="1.0" encoding="iso-8859-1"?>
<!-- Generator: Adobe Illustrator 18.0.0, SVG Export Plug-In . SVG Version: 6.00 Build 0)  -->
<!DOCTYPE svg PUBLIC "-//W3C//DTD SVG 1.1//EN" "http://www.w3.org/Graphics/SVG/1.1/DTD/svg11.dtd">
<svg version="1.1" id="Capa_1" xmlns="http://www.w3.org/2000/svg" xmlns:xlink="http://www.w3.org/1999/xlink" x="0px" y="0px"
	 viewBox="0 0 496.166 496.166" style="enable-background:new 0 0 496.166 496.166;" xml:space="preserve">
<g>
	<path id="XMLID_39_" d="M126.854,181.019c23.396,0,42.355-20.585,42.355-45.99c0-25.412-18.959-46.006-42.355-46.006
		c-23.388,0-42.356,20.594-42.356,46.006C84.498,160.434,103.466,181.019,126.854,181.019z"/>
	<path id="XMLID_40_" d="M40.904,211.363l41.752,20.428c0,0.139-0.04,0.272-0.04,0.411v91.384c22.671-5.622,47.242,0,65.944,17.185
		c6.456-6.034,13.629-10.581,21.172-13.975l0.508-49.155l4.58,5.404c2.891,3.402,6.748,5.649,10.958,6.375l64.882,11.203
		c10.392,1.793,20.069-5.912,21.705-17.106c1.642-11.236-5.412-21.792-15.748-23.575l-58.385-10.084
		c-35.98-42.377-6.579-7.853-42.613-50.195c-3.22-3.786-7.769-7.074-21.392-7.074h-15.142c-5.717,0-11.054,1.557-15.868,4.092
		l-39.749-19.45l-26.889-73.413C32.715,93.264,21.71,88.069,11.952,92.302c-9.725,4.197-14.475,16.178-10.604,26.75l29.725,81.154
		C32.892,205.172,36.411,209.167,40.904,211.363z"/>
	<path id="XMLID_41_" d="M350.417,181.019c23.397,0,42.356-20.585,42.356-45.99c0-25.412-18.959-46.006-42.356-46.006
		c-23.379,0-42.347,20.594-42.347,46.006C308.071,160.434,327.039,181.019,350.417,181.019z"/>
	<path id="XMLID_42_" d="M254.638,200.205c1.818,4.966,5.337,8.962,9.83,11.157l41.743,20.428c0,0.139-0.041,0.272-0.041,0.411
		v89.391c15.756,1.459,31.133,7.626,43.281,19.089c12.318-11.612,27.929-17.788,43.895-19.142l0.45-43.909l4.597,5.414
		c2.891,3.402,6.747,5.649,10.958,6.375c2.399,0.412,65.453,11.464,67.876,11.464c9.161,0,17.22-7.232,18.701-17.367
		c1.643-11.236-5.409-21.792-15.746-23.575l-58.378-10.084c-97.906-115.344,56.027,66.007-42.611-50.195
		c-3.237-3.813-7.811-7.074-21.4-7.074h-15.151c-5.717,0-11.048,1.557-15.862,4.092l-39.747-19.45l-26.891-73.413
		c-3.863-10.555-14.86-15.749-24.626-11.517c-9.726,4.197-14.475,16.178-10.603,26.75L254.638,200.205z"/>
	<path id="XMLID_43_" d="M463.307,363.786c-7.423,8.081-19.451,8.055-26.881-0.017c-19.645-21.355-53.893-21.355-73.537,0.017
		c-7.182,7.801-19.692,7.783-26.89-0.017c-19.474-21.173-54.029-21.179-73.521-0.009l-0.288,0.316
		c-7.456,7.808-19.274,7.668-26.633-0.307c-19.725-21.443-52.475-22.903-74.164,0.69c-6.772,7.337-18.871,7.364-25.659-0.025
		c-19.932-21.653-52.361-21.653-72.329,0.017c-8.138,8.858-22.405,8.867-30.56-0.009c-6.44-6.997-16.883-6.988-23.322-0.008
		c-6.442,6.995-6.442,18.337-0.009,25.333c10.313,11.202,24.023,17.375,38.612,17.375c14.595,0,28.307-6.174,38.604-17.367
		c7.085-7.695,18.605-7.695,25.705,0c19.146,20.831,52.46,21.547,72.909-0.682c7.471-8.115,19.516-8.018,26.93,0.036
		c19.781,21.486,52.701,22.579,73.489,0l0.28-0.307c7.126-7.451,19.646-7.32,26.632,0.262c19.661,21.355,53.893,21.355,73.536,0.018
		c7.199-7.817,19.702-7.826,26.899-0.009c20.296,22.047,53.24,22.116,73.544-0.016c6.434-7.006,6.417-18.349-0.031-25.326
		C480.166,356.756,469.732,356.773,463.307,363.786z"/>
</g>
<g>
</g>
<g>
</g>
<g>
</g>
<g>
</g>
<g>
</g>
<g>
</g>
<g>
</g>
<g>
</g>
<g>
</g>
<g>
</g>
<g>
</g>
<g>
</g>
<g>
</g>
<g>
</g>
<g>
</g>
</svg>
