<?xml version="1.0" encoding="iso-8859-1"?>
<!-- Generator: Adobe Illustrator 18.0.0, SVG Export Plug-In . SVG Version: 6.00 Build 0)  -->
<!DOCTYPE svg PUBLIC "-//W3C//DTD SVG 1.1//EN" "http://www.w3.org/Graphics/SVG/1.1/DTD/svg11.dtd">
<svg version="1.1" id="Capa_1" xmlns="http://www.w3.org/2000/svg" xmlns:xlink="http://www.w3.org/1999/xlink" x="0px" y="0px"
	 viewBox="0 0 493.24 493.24" style="enable-background:new 0 0 493.24 493.24;" xml:space="preserve">
<g id="XMLID_518_">
	<path id="XMLID_524_" d="M202.981,124.295c23.529,0,42.586-19.063,42.586-42.585c0-23.513-19.057-42.577-42.586-42.577
		c-23.514,0-42.586,19.064-42.586,42.577C160.395,105.232,179.468,124.295,202.981,124.295z"/>
	<path id="XMLID_525_" d="M346.241,6.996c-3.182-6.289-10.885-8.809-17.215-5.603c-6.3,3.221-8.803,10.924-5.588,17.215
		c0.712,1.38,1.309,2.801,1.986,4.19c-2.341,1.26-95.022,109.5-96.75,111.519c7.008-1.6,14.147-0.541,20.284,2.574
		c6.137,3.092,11.304,8.147,14.194,14.946c2.6,6.064,3.004,12.475,1.664,18.458h90.078c-1.969,32.468-9.365,64.629-22.01,95.136
		l-72.721-84.526c-5.248,7.624-13.226,12.064-21.979,12.929l-76.547,7.114l73.609-18.693c9.574-2.439,15.373-12.184,12.951-21.769
		c-2.456-9.609-12.21-15.358-21.787-12.96l-73.606,18.701c55.665-23.837,37.013-15.843,70.685-30.28
		c1.551-0.655,3.117-1.081,4.699-1.47h-6.008c-3.6-1.186-7.381-1.986-11.369-1.986h-15.664c-8.832,0-16.828,3.246-23.143,8.454
		c-4.779,3.19-50.466,33.269-54.196,36.854c-5.198,5.063-6.46,12.435-5.103,17.094c1.711,7.21,8.882,13.42,17.23,13.493
		c0.048,0,0.081,0.015,0.112,0.015c0,0,0,0,0.018,0c3.438,0,24.724-5.717,28.423-6.653c0,118.617-0.129,236.472-0.129,269.319
		c0,12.242,9.93,22.174,22.172,22.174c12.24,0,22.174-9.932,22.174-22.174V323.681h16.214v147.385c0,6.719-1.891,12.936-4.91,18.435
		c3.423,2.163,7.234,3.739,11.595,3.739c12.241,0,22.172-9.932,22.172-22.174c0-182.073-0.307-278.386-0.307-278.758
		c1.908,2.212,75.418,88.231,77.97,89.619c-0.679,1.405-1.276,2.834-2.003,4.24c-3.215,6.291-0.712,13.993,5.588,17.206
		c1.856,0.944,3.842,1.398,5.797,1.398c4.668,0,9.156-2.552,11.418-6.993C392.638,206.738,392.638,98.037,346.241,6.996z
		 M251.042,134.477l81.844-95.134c12.645,30.497,20.041,62.667,22.01,95.134H251.042z"/>
</g>
<g>
</g>
<g>
</g>
<g>
</g>
<g>
</g>
<g>
</g>
<g>
</g>
<g>
</g>
<g>
</g>
<g>
</g>
<g>
</g>
<g>
</g>
<g>
</g>
<g>
</g>
<g>
</g>
<g>
</g>
</svg>
