<?xml version="1.0" encoding="iso-8859-1"?>
<!-- Generator: Adobe Illustrator 18.0.0, SVG Export Plug-In . SVG Version: 6.00 Build 0)  -->
<!DOCTYPE svg PUBLIC "-//W3C//DTD SVG 1.1//EN" "http://www.w3.org/Graphics/SVG/1.1/DTD/svg11.dtd">
<svg version="1.1" id="Capa_1" xmlns="http://www.w3.org/2000/svg" xmlns:xlink="http://www.w3.org/1999/xlink" x="0px" y="0px"
	 viewBox="0 0 496.979 496.979" style="enable-background:new 0 0 496.979 496.979;" xml:space="preserve">
<g id="XMLID_291_">
	<path id="XMLID_292_" d="M90.736,230.126c-3.749-45.829-21.494-87.642-48.738-121.527C18.165,143.722,3.278,185.3,0,230.126H90.736
		z"/>
	<path id="XMLID_293_" d="M222.799,230.126V0.401C165.883,6.223,114.769,31.31,75.732,68.858
		c37.899,43.905,62.302,99.816,66.384,161.268H222.799z"/>
	<path id="XMLID_294_" d="M496.979,230.126c-3.279-44.826-18.163-86.404-41.998-121.527
		c-27.245,33.886-44.991,75.698-48.737,121.527H496.979z"/>
	<path id="XMLID_295_" d="M274.18,230.126h80.684c4.079-61.451,28.481-117.362,66.382-161.268
		C382.209,31.31,331.096,6.223,274.18,0.401V230.126z"/>
	<path id="XMLID_296_" d="M1.52,281.507c5.202,39.252,19.302,75.681,40.543,106.959c24.286-30.222,40.928-66.87,46.899-106.959H1.52
		z"/>
	<path id="XMLID_297_" d="M356.1,281.507h-81.92v215.071c56.932-5.82,108.08-30.925,147.132-68.508
		C386.392,387.678,362.807,337.202,356.1,281.507z"/>
	<path id="XMLID_298_" d="M408.018,281.507c5.97,40.089,22.611,76.737,46.898,106.959c21.239-31.278,35.339-67.707,40.54-106.959
		H408.018z"/>
	<path id="XMLID_299_" d="M222.799,281.507h-81.921c-6.707,55.695-30.289,106.171-65.212,146.563
		c39.055,37.583,90.2,62.688,147.133,68.508V281.507z"/>
</g>
<g>
</g>
<g>
</g>
<g>
</g>
<g>
</g>
<g>
</g>
<g>
</g>
<g>
</g>
<g>
</g>
<g>
</g>
<g>
</g>
<g>
</g>
<g>
</g>
<g>
</g>
<g>
</g>
<g>
</g>
</svg>
