<?xml version="1.0" encoding="iso-8859-1"?>
<!-- Generator: Adobe Illustrator 18.0.0, SVG Export Plug-In . SVG Version: 6.00 Build 0)  -->
<!DOCTYPE svg PUBLIC "-//W3C//DTD SVG 1.1//EN" "http://www.w3.org/Graphics/SVG/1.1/DTD/svg11.dtd">
<svg version="1.1" id="Capa_1" xmlns="http://www.w3.org/2000/svg" xmlns:xlink="http://www.w3.org/1999/xlink" x="0px" y="0px"
	 viewBox="0 0 493.516 493.516" style="enable-background:new 0 0 493.516 493.516;" xml:space="preserve">
<g id="XMLID_483_">
	<path id="XMLID_484_" d="M362.119,139.208l7.427-21.763c1.888-5.541,4.936-10.337,8.701-14.355
		c-0.804-10.18-8.155-18.854-18.681-20.274c-12.183-1.575-23.298,6.856-24.943,18.978l-1.445,10.717
		c3.731,1.505,7.377,3.291,10.761,5.611C352.026,123.662,357.972,131.036,362.119,139.208z"/>
	<path id="XMLID_485_" d="M290.211,196.624c6.694,4.587,14.313,6.771,21.853,6.771c12.344,0,24.474-5.887,31.954-16.83
		c12.085-17.66,7.567-41.73-10.094-53.814c-6.676-4.569-14.276-6.768-21.799-6.768c-12.336,0-24.466,5.902-31.964,16.844
		C268.066,160.455,272.586,184.559,290.211,196.624z"/>
	<path id="XMLID_486_" d="M414.454,109.359c-11.532-3.967-24.181,2.232-28.129,13.816l-26.716,78.332l-81.717,37.364l26.994-18.683
		l-11.429-7.844c-5.592-3.842-12.19-5.8-18.872-5.8c-2.027,0-4.069,0.138-6.087,0.52c-8.691,1.628-16.379,6.632-21.374,13.937
		l-60.568,88.428l-51.459,23.582l-100.226-6.977c-14.423-1.107-27.358,10.023-28.379,24.674
		c-1.013,14.664,10.034,27.355,24.691,28.377c1.333,0.086,107.506,7.516,108.831,7.516c3.818,0,7.593-0.814,11.073-2.407
		l8.494-3.897l-13.888,14.978L40.058,442.648c-13.401,6.023-19.393,21.766-13.384,35.167c6.016,13.384,21.738,19.358,35.148,13.384
		l110.571-49.59c3.256-1.472,6.19-3.568,8.616-6.18l65.699-70.835c0.207-0.224,60.541-88.235,60.541-88.235l-10.925,2.822
		l90.39-41.332c5.541-2.527,9.8-7.237,11.766-13.002l29.798-87.369C432.226,125.895,426.046,113.307,414.454,109.359z"/>
	<path id="XMLID_487_" d="M447.194,0c-22.031,0-39.893,17.869-39.893,39.893c0,22.025,17.862,39.892,39.893,39.892
		c22.033,0,39.893-17.866,39.893-39.892C487.087,17.869,469.227,0,447.194,0z"/>
</g>
<g>
</g>
<g>
</g>
<g>
</g>
<g>
</g>
<g>
</g>
<g>
</g>
<g>
</g>
<g>
</g>
<g>
</g>
<g>
</g>
<g>
</g>
<g>
</g>
<g>
</g>
<g>
</g>
<g>
</g>
</svg>
