<?xml version="1.0" encoding="iso-8859-1"?>
<!-- Generator: Adobe Illustrator 18.0.0, SVG Export Plug-In . SVG Version: 6.00 Build 0)  -->
<!DOCTYPE svg PUBLIC "-//W3C//DTD SVG 1.1//EN" "http://www.w3.org/Graphics/SVG/1.1/DTD/svg11.dtd">
<svg version="1.1" id="Capa_1" xmlns="http://www.w3.org/2000/svg" xmlns:xlink="http://www.w3.org/1999/xlink" x="0px" y="0px"
	 viewBox="0 0 498.944 498.944" style="enable-background:new 0 0 498.944 498.944;" xml:space="preserve">
<g id="XMLID_319_">
	<path id="XMLID_320_" d="M80.262,122.728c-4.92,3.509-6.544,10.246-3.499,15.59c3.24,5.701,10.482,7.698,16.183,4.468l3.524-1.997
		l-15.615-18.466L80.262,122.728z"/>
	<path id="XMLID_321_" d="M272.5,40.702c0.592-0.342,1.194-0.715,1.769-1.121c9.825-6.917,12.205-20.493,5.286-30.317
		c-6.917-9.858-20.494-12.213-30.327-5.296L132.773,85.816l19.601,23.175L272.5,40.702z"/>
	<path id="XMLID_322_" d="M239.387,302.356l40.103-109.05c6.008-16.338-0.715-36.376-21.722-44.172
		c-0.518-0.211-11.545-4.253-12.041-4.433c-4.214-1.56-12.861-2.891-14.461-2.696l-65.957,5.506l-37.823-44.691
		c-5.927-7.032-16.386-7.878-23.385-1.966c-7.007,5.927-7.876,16.387-1.965,23.385l43.352,51.253
		c3.662,4.318,9.143,6.301,14.055,5.797c5.18-0.423,71.033-5.749,76.139-6.706c-3.247,1.347-71.503,20.721-74.889,21.695
		c-5.627,1.609-11.286,0.73-16.15-1.689l16.109,20.203c4.678,5.86,12.626,8.443,21.583,3.881
		c-2.606,7.079-16.264,46.298-16.264,46.298s-19.415,97.309-20.471,102.912l-45.861,97.243
		c-5.578,11.839-0.503,25.966,11.335,31.552c11.733,5.539,25.926,0.603,31.553-11.334l47.145-99.971
		c0.836-1.803,1.468-3.72,1.834-5.685l9.151-48.2l64.27,152.507c4.854,12.196,18.642,18.077,30.789,13.253
		c12.165-4.84,18.099-18.627,13.252-30.775L239.387,302.356z"/>
	<path id="XMLID_323_" d="M232.802,87.13c-7.52,20.43,2.955,43.102,23.401,50.619c20.438,7.536,43.117-2.955,50.643-23.4
		c7.526-20.43-2.963-43.116-23.401-50.619C262.974,56.21,240.312,66.668,232.802,87.13z"/>
	<path id="XMLID_324_" d="M403.18,132.764c-11.345,0-20.552,9.192-20.552,20.544c0,11.335,9.207,20.542,20.552,20.542
		c11.343,0,20.542-9.207,20.542-20.542C423.722,141.957,414.523,132.764,403.18,132.764z"/>
</g>
<g>
</g>
<g>
</g>
<g>
</g>
<g>
</g>
<g>
</g>
<g>
</g>
<g>
</g>
<g>
</g>
<g>
</g>
<g>
</g>
<g>
</g>
<g>
</g>
<g>
</g>
<g>
</g>
<g>
</g>
</svg>
