<?xml version="1.0" encoding="iso-8859-1"?>
<!-- Generator: Adobe Illustrator 18.0.0, SVG Export Plug-In . SVG Version: 6.00 Build 0)  -->
<!DOCTYPE svg PUBLIC "-//W3C//DTD SVG 1.1//EN" "http://www.w3.org/Graphics/SVG/1.1/DTD/svg11.dtd">
<svg version="1.1" id="Capa_1" xmlns="http://www.w3.org/2000/svg" xmlns:xlink="http://www.w3.org/1999/xlink" x="0px" y="0px"
	 viewBox="0 0 497.32 497.32" style="enable-background:new 0 0 497.32 497.32;" xml:space="preserve">
<g id="XMLID_160_">
	<path id="XMLID_161_" d="M102.959,142.396c22.618,0,40.972-18.333,40.972-40.962c0-22.62-18.353-40.964-40.972-40.964
		c-22.621,0-40.955,18.344-40.955,40.964C62.004,124.063,80.338,142.396,102.959,142.396z"/>
	<path id="XMLID_162_" d="M244.596,89.219c-6.745-6.722-17.665-6.682-24.38,0.057l-59.81,60.062l-49.919,0.947H95.429
		c-16.654,0-30.525,11.578-34.225,27.102l-30.329,20.73c-3.927,2.689-6.567,6.877-7.302,11.578L12.59,280.474
		c-1.481,9.404,4.97,18.22,14.375,19.678c9.566,1.453,18.235-5.108,19.67-14.381l9.86-63.413l3.666-2.509
		c0,48.33-0.13,107.954-0.13,156.291l-39.047,91.458c-4.63,10.839,0.406,23.371,11.245,28.009
		c10.949,4.644,23.386-0.49,27.996-11.255l18.156-42.519c1.288,4.237,3.535,8.206,7.383,11.04c9.615,7.042,22.93,4.849,29.839-4.545
		l56.048-76.199c5.05-6.853,5.523-16.036,1.254-23.386l-27.136-46.61c0-156.412-0.097-107.976-0.097-117.559l23.093-1.15
		c4.287-0.212,8.328-2.021,11.36-5.051l64.52-64.782C251.362,106.852,251.327,95.933,244.596,89.219z M93.536,406.29l5.521-12.916
		c2.401-5.615,3.639-11.659,3.639-17.766v-41.412h12.354l13.917,23.925L93.536,406.29z"/>
	<path id="XMLID_164_" d="M294.269,0c-22.099,0-40.007,17.91-40.007,40.01c0,22.09,17.908,40,40.007,40
		c22.084,0,40.01-17.91,40.01-40C334.279,17.91,316.353,0,294.269,0z"/>
	<path id="XMLID_167_" d="M481.9,71.536c-2.348-2.68-5.721-4.212-9.274-4.212H360.649c-3.536,0-6.911,1.532-9.256,4.212
		c-2.348,2.666-3.424,6.218-2.935,9.738l16.411,122.254c0.814,6.111,6.028,10.675,12.208,10.675h79.137
		c6.179,0,11.377-4.564,12.208-10.675l16.41-122.254C485.306,77.754,484.232,74.202,481.9,71.536z M445.443,189.586h-57.61
		l-13.104-97.637h83.833L445.443,189.586z"/>
</g>
<g>
</g>
<g>
</g>
<g>
</g>
<g>
</g>
<g>
</g>
<g>
</g>
<g>
</g>
<g>
</g>
<g>
</g>
<g>
</g>
<g>
</g>
<g>
</g>
<g>
</g>
<g>
</g>
<g>
</g>
</svg>
