<?xml version="1.0" encoding="iso-8859-1"?>
<!-- Generator: Adobe Illustrator 18.0.0, SVG Export Plug-In . SVG Version: 6.00 Build 0)  -->
<!DOCTYPE svg PUBLIC "-//W3C//DTD SVG 1.1//EN" "http://www.w3.org/Graphics/SVG/1.1/DTD/svg11.dtd">
<svg version="1.1" id="Capa_1" xmlns="http://www.w3.org/2000/svg" xmlns:xlink="http://www.w3.org/1999/xlink" x="0px" y="0px"
	 viewBox="0 0 494.801 494.801" style="enable-background:new 0 0 494.801 494.801;" xml:space="preserve">
<g id="XMLID_587_">
	<path id="XMLID_588_" d="M458.722,21.301H36.079C16.155,21.301,0,37.457,0,57.381v303.065c0,19.925,16.155,36.08,36.079,36.08
		h123.435l-9.109-43.295h-49.811c-9.107,0-16.493-7.378-16.493-16.492V114.077c0-9.117,7.386-16.495,16.493-16.495h293.612
		c9.107,0,16.493,7.378,16.493,16.495v222.661c0,9.114-7.386,16.492-16.493,16.492h-49.81l-9.109,43.295h123.434
		c19.924,0,36.08-16.155,36.08-36.08V57.381C494.801,37.457,478.646,21.301,458.722,21.301z"/>
	<path id="XMLID_589_" d="M169.501,250.841H325.3c9.939,0,19.353,4.477,25.62,12.207c6.258,7.716,8.706,17.849,6.661,27.575
		l-6.235,29.62h26.368V130.571H117.088v189.672h26.368l-6.234-29.62c-2.045-9.727,0.402-19.859,6.66-27.575
		C150.147,255.318,159.562,250.841,169.501,250.841z"/>
	<path id="XMLID_590_" d="M338.01,273.308c-3.134-3.786-7.797-5.977-12.711-5.977H169.501c-4.913,0-9.576,2.19-12.71,5.977
		c-3.133,3.786-4.413,8.778-3.496,13.61l32.987,173.181c1.707,8.939,10.389,14.803,19.289,13.11
		c7.892-1.498,13.063-8.457,13.085-16.203c0-0.66,0.097-1.305,0.016-1.964l28.727-28.736l28.726,28.736
		c-0.081,0.659,0.017,1.304,0.017,1.964c0.023,7.746,5.194,14.705,13.086,16.203c1.039,0.192,2.07,0.29,3.092,0.29h0.009
		c0.007,0,0.007,0,0.007,0c7.764-0.017,14.675-5.508,16.181-13.4l32.987-173.181C342.422,282.087,341.142,277.095,338.01,273.308z
		 M191.719,312.318l14.867,14.866l-10.115,10.1L191.719,312.318z M200.748,356.34l17.499-17.494l17.493,17.494l-17.501,17.491
		L200.748,356.34z M229.909,327.184l17.492-17.489l17.491,17.489l-17.491,17.493L229.909,327.184z M276.554,338.846l17.499,17.494
		l-17.491,17.491l-17.501-17.491L276.554,338.846z M288.215,327.184l14.868-14.866l-4.752,24.966L288.215,327.184z M276.554,315.525
		l-15.205-15.204h30.402L276.554,315.525z M233.452,300.321l-15.206,15.204l-15.197-15.204H233.452z M215.138,435.262l-5.604-29.411
		l8.705-8.696l17.501,17.491L215.138,435.262z M229.901,385.493l17.499-17.492l17.499,17.492l-17.499,17.49L229.901,385.493z
		 M259.061,414.645l17.501-17.491l8.705,8.712l-5.605,29.395L259.061,414.645z"/>
</g>
<g>
</g>
<g>
</g>
<g>
</g>
<g>
</g>
<g>
</g>
<g>
</g>
<g>
</g>
<g>
</g>
<g>
</g>
<g>
</g>
<g>
</g>
<g>
</g>
<g>
</g>
<g>
</g>
<g>
</g>
</svg>
