<?xml version="1.0" encoding="iso-8859-1"?>
<!-- Generator: Adobe Illustrator 18.0.0, SVG Export Plug-In . SVG Version: 6.00 Build 0)  -->
<!DOCTYPE svg PUBLIC "-//W3C//DTD SVG 1.1//EN" "http://www.w3.org/Graphics/SVG/1.1/DTD/svg11.dtd">
<svg version="1.1" id="Capa_1" xmlns="http://www.w3.org/2000/svg" xmlns:xlink="http://www.w3.org/1999/xlink" x="0px" y="0px"
	 viewBox="0 0 494.093 494.093" style="enable-background:new 0 0 494.093 494.093;" xml:space="preserve">
<g id="XMLID_372_">
	<path id="XMLID_373_" d="M146.276,430.789H42.942c-7.061,0-12.794,5.726-12.794,12.804v37.699c0,7.076,5.733,12.801,12.794,12.801
		h103.335c7.061,0,12.794-5.725,12.794-12.801v-37.699C159.07,436.515,153.337,430.789,146.276,430.789z"/>
	<path id="XMLID_374_" d="M182.658,238.339v-34.885c0-48.637-39.421-88.055-88.057-88.055c-48.636,0-88.056,39.418-88.056,88.055
		v183.88c0,13.188,10.695,23.883,23.884,23.883h128.345c13.187,0,23.884-10.694,23.884-23.883v-24.56l51.86-41.19
		c21.366-16.984,24.936-48.057,7.961-69.43C227.906,233.818,202.946,228.719,182.658,238.339z"/>
	<path id="XMLID_375_" d="M399.499,0c-48.643,0-88.064,39.438-88.064,88.058v34.867c-20.289-9.635-45.227-4.519-59.807,13.815
		c-16.975,21.358-13.42,52.433,7.939,69.415l51.868,41.222v24.575c0,13.188,10.703,23.883,23.883,23.883h128.345
		c13.195,0,23.884-10.695,23.884-23.883V88.058C487.548,39.438,448.127,0,399.499,0z"/>
	<path id="XMLID_376_" d="M451.15,315.393H347.824c-7.068,0-12.795,5.728-12.795,12.804v37.697c0,7.076,5.727,12.805,12.795,12.805
		H451.15c7.069,0,12.802-5.729,12.802-12.805v-37.697C463.952,321.12,458.22,315.393,451.15,315.393z"/>
</g>
<g>
</g>
<g>
</g>
<g>
</g>
<g>
</g>
<g>
</g>
<g>
</g>
<g>
</g>
<g>
</g>
<g>
</g>
<g>
</g>
<g>
</g>
<g>
</g>
<g>
</g>
<g>
</g>
<g>
</g>
</svg>
