<?xml version="1.0" encoding="iso-8859-1"?>
<!-- Generator: Adobe Illustrator 18.0.0, SVG Export Plug-In . SVG Version: 6.00 Build 0)  -->
<!DOCTYPE svg PUBLIC "-//W3C//DTD SVG 1.1//EN" "http://www.w3.org/Graphics/SVG/1.1/DTD/svg11.dtd">
<svg version="1.1" id="Capa_1" xmlns="http://www.w3.org/2000/svg" xmlns:xlink="http://www.w3.org/1999/xlink" x="0px" y="0px"
	 viewBox="0 0 485.087 485.087" style="enable-background:new 0 0 485.087 485.087;" xml:space="preserve">
<g id="XMLID_2_">
	<path id="XMLID_8_" d="M47.518,145.999c23.352,0,42.286-18.917,42.286-42.286c0-23.353-18.935-42.294-42.286-42.294
		c-23.353,0-42.304,18.941-42.304,42.294C5.214,127.083,24.165,145.999,47.518,145.999z"/>
	<path id="XMLID_3_" d="M142.805,319.852l40.98,32.16c10.415,8.194,25.469,6.263,33.576-4.047
		c8.156-10.395,6.345-25.436-4.053-33.59l-50.412-39.569L142.805,319.852z"/>
	<path id="XMLID_4_" d="M303.478,145.999c23.354,0,42.285-18.917,42.285-42.286c0-23.353-18.932-42.294-42.285-42.294
		c-23.369,0-42.302,18.941-42.302,42.294C261.176,127.083,280.109,145.999,303.478,145.999z"/>
	<path id="XMLID_5_" d="M398.765,319.852l40.984,32.16c10.427,8.194,25.467,6.263,33.574-4.047
		c8.156-10.395,6.343-25.436-4.069-33.59l-50.395-39.569L398.765,319.852z"/>
	<path id="XMLID_6_" d="M480.413,384.713c-6.232-6.231-16.325-6.225-22.54-0.008c-7.393,7.384-20.222,7.377-27.6,0.008
		c-14.642-14.657-37.531-18.227-56.212-10.755c-5.997,2.391-12.093,5.912-16.814,10.6l84.871-191.318l0.587-0.072
		c10.921-1.48,18.553-11.519,17.091-22.424c-1.478-10.905-11.527-18.575-22.432-17.097l-17.566,2.368l-83.158,11.209
		c-6.819-6.757-16.009-10.58-25.609-10.58h-15.135c-20.111,0-36.419,16.311-36.419,36.421v108.88
		c0,13.297,6.595,25.713,17.597,33.178c10.984,7.472,24.957,8.989,37.31,4.086l28.392-11.296l0.066-0.11l26.961-60.474
		l-23.259,8.331l0.765-69.646c62.253-8.394,48.93-6.59,66.959-9.022l-79.503,178.137l-4.402,9.865
		c-0.128-0.121-0.286-0.151-0.398-0.27c-20.029-20.039-52.636-20.056-72.763,0.03c-7.264,7.282-20.188,7.298-27.532-0.03
		c-19.411-19.419-52.653-20.047-73.335,0.627c-7.042,7.027-19.315,7.036-26.326,0.008c-3.751-3.552-6.852-6.024-13.353-9.116
		c-3.514-1.653-7.169-2.95-10.938-3.769l80.41-179.223l0.62-0.08c10.904-1.48,18.551-11.519,17.089-22.424
		c-1.479-10.905-11.479-18.575-22.416-17.097l-17.581,2.368L80.52,167.248c-6.82-6.773-16.008-10.604-25.625-10.604H39.743
		c-20.108,0-36.404,16.311-36.404,36.421v108.88c0,13.297,6.582,25.713,17.583,33.178c10.984,7.472,24.958,8.989,37.311,4.086
		l28.646-11.39l0.017-0.016l26.945-60.474l-23.449,8.401l0.762-69.685c62.495-8.433,49.156-6.628,67.057-9.038l-79.2,176.491
		c-0.382,0.119-0.779,0.224-1.176,0.358c-7.172,2.314-13.896,6.017-19.33,11.462c-8.634,8.608-22.64,8.639-31.286,0
		C21,379.108,10.891,379.1,4.674,385.325c-6.232,6.232-6.232,16.335,0,22.565c10.524,10.517,24.354,15.778,38.185,15.778
		c13.815,0,27.66-5.27,38.218-15.794c6.518-6.557,18.042-7.932,27.613,1.225c19.155,17.941,50.902,18.09,70.822-1.828
		c7.393-7.368,20.205-7.368,27.597,0c19.3,19.307,53.397,19.323,72.714-0.016c7.6-7.606,19.967-7.591,27.599,0.016
		c19.395,19.418,53.27,19.427,72.714-0.008c7.374-7.384,20.204-7.384,27.597,0c19.395,19.411,53.24,19.435,72.681,0.008
		C486.645,401.047,486.645,390.944,480.413,384.713z"/>
</g>
<g>
</g>
<g>
</g>
<g>
</g>
<g>
</g>
<g>
</g>
<g>
</g>
<g>
</g>
<g>
</g>
<g>
</g>
<g>
</g>
<g>
</g>
<g>
</g>
<g>
</g>
<g>
</g>
<g>
</g>
</svg>
