<?xml version="1.0" encoding="iso-8859-1"?>
<!-- Generator: Adobe Illustrator 18.0.0, SVG Export Plug-In . SVG Version: 6.00 Build 0)  -->
<!DOCTYPE svg PUBLIC "-//W3C//DTD SVG 1.1//EN" "http://www.w3.org/Graphics/SVG/1.1/DTD/svg11.dtd">
<svg version="1.1" id="Capa_1" xmlns="http://www.w3.org/2000/svg" xmlns:xlink="http://www.w3.org/1999/xlink" x="0px" y="0px"
	 viewBox="0 0 492.565 492.565" style="enable-background:new 0 0 492.565 492.565;" xml:space="preserve">
<g id="XMLID_394_">
	<path id="XMLID_395_" d="M460.352,447.796c-3.588,3.602-8.371,5.574-13.463,5.574h-0.016c-5.091,0-9.891-1.988-13.512-5.592
		c-18.893-18.895-51.818-19.734-71.648-2.018l-2.182,2.051c-7.111,7.142-19.734,7.177-26.977-0.033
		c-20.346-20.349-53.447-20.332-73.829,0.033c-7.257,7.271-19.005,7.451-26.489,0.467l-0.502-0.5
		c-9.873-9.859-22.967-15.289-36.898-15.289c-0.014,0-0.014,0-0.014,0c-13.95,0.016-27.057,5.445-37.53,15.935
		c-6.757,6.756-18.942,6.804-25.763-0.049c-20.025-19.96-52.576-19.977-72.602,0.049c-4.088,4.091-9.521,6.353-15.322,6.353
		c-5.802,0-11.249-2.262-15.354-6.368c-6.466-6.465-16.938-6.465-23.402,0c-6.467,6.449-6.467,16.938,0,23.404
		c10.345,10.357,24.113,16.064,38.756,16.064h0.017c14.644,0,28.397-5.72,38.757-16.081c7.096-7.078,18.652-7.078,25.779,0.031
		c19.363,19.363,52.543,19.994,73.167-0.629c7.064-7.08,19.298-7.226,26.523-0.469l0.517,0.5
		c20.347,20.349,53.448,20.301,73.796-0.048c7.435-7.451,19.558-7.435,27.024,0.03c18.862,18.881,51.8,19.719,71.632,2.006
		l2.182-2.051c7.128-7.113,19.813-7.145,26.958,0.015c9.859,9.86,22.969,15.306,36.932,15.29c0,0,0,0,0.017,0
		c13.947,0,27.04-5.43,36.882-15.305c6.45-6.466,6.45-16.939-0.032-23.404C477.29,441.33,466.815,441.298,460.352,447.796z"/>
	<path id="XMLID_396_" d="M219.84,277.315h-56.228c-25.569,0-50.508-7.92-71.39-22.662c-2.86-2.018-6.611-2.277-9.729-0.661
		c-3.104,1.6-5.059,4.816-5.059,8.324V366.11c0,11.346,5.51,21.998,14.788,28.544c20.882,14.739,45.82,22.658,71.405,22.658h56.213
		c29.579,0,54.742-18.407,64.988-44.332h207.736v-49.652H285.346C275.536,296.53,250.032,277.315,219.84,277.315z"/>
	<path id="XMLID_397_" d="M251.535,142.084h-49.683c-22.579,0-44.624-6.998-63.082-20.024c-2.539-1.795-5.851-2.021-8.599-0.6
		c-2.747,1.438-4.477,4.268-4.477,7.37v91.738c0,10.021,4.866,19.427,13.075,25.213c18.458,13.027,40.503,20.025,63.097,20.025
		h49.684c26.587,0,49.067-16.889,57.813-40.438h183.201v-41.375H309.816C301.493,159.685,278.67,142.084,251.535,142.084z"/>
	<path id="XMLID_398_" d="M333.429,59.737c-7.306-21.061-27.119-36.286-50.669-36.286h-43.267c-19.668,0-38.854-6.093-54.936-17.438
		c-2.197-1.551-5.09-1.761-7.482-0.517c-2.393,1.246-3.896,3.718-3.896,6.4v79.876c0,8.726,4.252,16.904,11.395,21.948
		c16.066,11.346,35.252,17.439,54.92,17.439h43.267c23.098,0,42.619-14.611,50.281-35.024h159.523V59.737H333.429z"/>
</g>
<g>
</g>
<g>
</g>
<g>
</g>
<g>
</g>
<g>
</g>
<g>
</g>
<g>
</g>
<g>
</g>
<g>
</g>
<g>
</g>
<g>
</g>
<g>
</g>
<g>
</g>
<g>
</g>
<g>
</g>
</svg>
