<?xml version="1.0" encoding="iso-8859-1"?>
<!-- Generator: Adobe Illustrator 18.0.0, SVG Export Plug-In . SVG Version: 6.00 Build 0)  -->
<!DOCTYPE svg PUBLIC "-//W3C//DTD SVG 1.1//EN" "http://www.w3.org/Graphics/SVG/1.1/DTD/svg11.dtd">
<svg version="1.1" id="Capa_1" xmlns="http://www.w3.org/2000/svg" xmlns:xlink="http://www.w3.org/1999/xlink" x="0px" y="0px"
	 viewBox="0 0 503.013 503.013" style="enable-background:new 0 0 503.013 503.013;" xml:space="preserve">
<g id="XMLID_336_">
	<path id="XMLID_337_" d="M414.736,32.623c6.116-2.553,10.426-8.588,10.426-15.649c0-9.382-7.6-16.974-16.974-16.974H94.827
		c-9.375,0-16.975,7.592-16.975,16.974c0,7.062,4.31,13.097,10.426,15.649c-27.185,15.548-45.768,44.508-45.768,78.008
		c0,49.73,40.455,90.177,90.176,90.177c4.634,0,9.093-0.696,13.544-1.376c11.77,22.976,25.32,43.347,40.28,58.979
		c28.91,30.219,42.66,72.042,37.257,113.5l-0.938,7.177l-51.843,11.854c-6.274,1.44-10.718,7.01-10.718,13.443v71.045h-13.792
		c-7.616,0-13.791,6.167-13.791,13.792c0,7.626,6.175,13.791,13.791,13.791c4.309,0,203.231,0,210.058,0
		c7.618,0,13.792-6.165,13.792-13.791c0-7.625-6.174-13.792-13.792-13.792h-13.791v-71.045c0-6.434-4.443-12.003-10.716-13.443
		l-51.869-11.871l-0.929-7.145c-5.402-41.523,8.314-83.262,37.266-113.516c14.959-15.632,28.518-35.986,40.289-58.979
		c4.451,0.68,8.91,1.376,13.542,1.376c49.721,0,90.175-40.446,90.175-90.177C460.502,77.131,441.921,48.171,414.736,32.623z
		 M76.459,110.631c0-20.322,10.941-37.992,27.146-47.872c4.914,34.827,14.563,70.948,27.765,103.968
		C100.985,166.014,76.459,141.184,76.459,110.631z M305.456,406.935c4.192,0,7.582,3.399,7.582,7.575v40.612
		c0,4.179-3.39,7.576-7.582,7.576H197.559c-4.195,0-7.585-3.397-7.585-7.576v-40.612c0-4.177,3.39-7.575,7.585-7.575H305.456z
		 M371.645,166.727c13.203-33.02,22.851-69.141,27.765-103.968c16.204,9.88,27.144,27.55,27.144,47.872
		C426.554,141.184,402.029,166.014,371.645,166.727z"/>
	<path id="XMLID_342_" d="M213.314,443.305h76.385c4.691,0,8.487-3.796,8.487-8.488c0-4.69-3.795-8.486-8.487-8.486h-76.385
		c-4.689,0-8.487,3.797-8.487,8.486C204.827,439.509,208.625,443.305,213.314,443.305z"/>
</g>
<g>
</g>
<g>
</g>
<g>
</g>
<g>
</g>
<g>
</g>
<g>
</g>
<g>
</g>
<g>
</g>
<g>
</g>
<g>
</g>
<g>
</g>
<g>
</g>
<g>
</g>
<g>
</g>
<g>
</g>
</svg>
