<?xml version="1.0" encoding="iso-8859-1"?>
<!-- Generator: Adobe Illustrator 18.0.0, SVG Export Plug-In . SVG Version: 6.00 Build 0)  -->
<!DOCTYPE svg PUBLIC "-//W3C//DTD SVG 1.1//EN" "http://www.w3.org/Graphics/SVG/1.1/DTD/svg11.dtd">
<svg version="1.1" id="Capa_1" xmlns="http://www.w3.org/2000/svg" xmlns:xlink="http://www.w3.org/1999/xlink" x="0px" y="0px"
	 viewBox="0 0 495.047 495.047" style="enable-background:new 0 0 495.047 495.047;" xml:space="preserve">
<path id="XMLID_198_" d="M450.834,69.286c-8.931-11.166-22.256-17.574-36.545-17.574h-2.757c0.506-4.893,0.852-9.72,1.162-14.532
	h6.425c10.275,0,18.591-8.325,18.591-18.59C437.71,8.323,429.395,0,419.12,0H75.928C65.651,0,57.337,8.323,57.337,18.59
	c0,10.266,8.314,18.59,18.591,18.59h6.407c0.31,4.812,0.653,9.639,1.162,14.532h-2.743c-14.284,0-27.61,6.408-36.544,17.592
	c-8.915,11.165-12.217,25.562-9.077,39.513l19.589,86.453c8.261,36.409,40.086,61.833,77.411,61.833h23.148
	c6.699,9.514,13.723,18.246,21.057,25.917c31.645,33.087,46.712,78.89,40.796,124.294l-3.341,25.598
	c-18.502,10.077-32.098,28.021-35.984,49.453c-0.563,3.142,0.309,6.372,2.361,8.813c2.032,2.452,5.064,3.869,8.242,3.869h118.222
	c3.177,0,6.21-1.407,8.261-3.859c2.051-2.451,2.904-5.681,2.342-8.822c-3.885-21.45-17.502-39.404-36.039-49.471l-3.322-25.562
	c-5.916-45.477,9.116-91.181,40.813-124.313c7.337-7.67,14.36-16.402,21.061-25.917h23.165c37.326,0,69.151-25.424,77.41-61.833
	l19.588-86.462C463.055,94.866,459.749,80.469,450.834,69.286z M132.133,219.922c-19.843,0-36.765-13.514-41.139-32.876
	l-19.588-86.442c-0.654-2.859,0.035-5.819,1.852-8.099c1.834-2.296,4.556-3.612,7.496-3.612h8.099
	c8.46,45.595,23.871,91.907,44.134,131.03H132.133z M404.05,187.046c-4.374,19.362-21.294,32.876-41.136,32.876h-0.872
	c20.26-39.114,35.673-85.435,44.134-131.03h8.113c2.943,0,5.665,1.316,7.499,3.595c1.815,2.296,2.506,5.256,1.853,8.106
	L404.05,187.046z"/>
<g>
</g>
<g>
</g>
<g>
</g>
<g>
</g>
<g>
</g>
<g>
</g>
<g>
</g>
<g>
</g>
<g>
</g>
<g>
</g>
<g>
</g>
<g>
</g>
<g>
</g>
<g>
</g>
<g>
</g>
</svg>
