<?xml version="1.0" encoding="iso-8859-1"?>
<!-- Generator: Adobe Illustrator 18.0.0, SVG Export Plug-In . SVG Version: 6.00 Build 0)  -->
<!DOCTYPE svg PUBLIC "-//W3C//DTD SVG 1.1//EN" "http://www.w3.org/Graphics/SVG/1.1/DTD/svg11.dtd">
<svg version="1.1" id="Capa_1" xmlns="http://www.w3.org/2000/svg" xmlns:xlink="http://www.w3.org/1999/xlink" x="0px" y="0px"
	 viewBox="0 0 491.936 491.936" style="enable-background:new 0 0 491.936 491.936;" xml:space="preserve">
<g id="XMLID_300_">
	<path id="XMLID_301_" d="M386.741,156.029l28.04-33.11c9.145-10.801,7.811-26.973-3.003-36.117
		c-10.8-9.18-27.005-7.795-36.117,3.004l-29.372,34.696c-19.545-11.581-41.156-19.927-64.256-24.215V68.36
		c18.877,0,34.181-15.305,34.181-34.182C316.214,15.304,300.91,0,282.033,0h-72.13c-18.877,0-34.182,15.304-34.182,34.179
		c0,18.877,15.305,34.182,34.182,34.182v31.927C118.16,117.308,48.416,197.785,48.416,294.384
		c0,108.933,88.62,197.552,197.551,197.552c108.933,0,197.553-88.619,197.553-197.552
		C443.52,240.528,421.807,191.694,386.741,156.029z M245.967,440.665c-80.66,0-146.28-65.62-146.28-146.281
		c0-80.66,65.62-146.283,146.28-146.283c80.661,0,146.283,65.623,146.283,146.283C392.25,375.045,326.628,440.665,245.967,440.665z"
		/>
	<path id="XMLID_304_" d="M267.431,259.704l-9.83-81.912c-0.634-5.24-4.757-9.579-10.23-10.23
		c-6.425-0.784-12.267,3.804-13.035,10.23l-9.829,81.912c-11.633,7.209-19.443,19.993-19.443,34.68
		c0,22.598,18.309,40.906,40.904,40.906c22.599,0,40.907-18.309,40.907-40.906C286.874,279.697,279.064,266.913,267.431,259.704z"/>
</g>
<g>
</g>
<g>
</g>
<g>
</g>
<g>
</g>
<g>
</g>
<g>
</g>
<g>
</g>
<g>
</g>
<g>
</g>
<g>
</g>
<g>
</g>
<g>
</g>
<g>
</g>
<g>
</g>
<g>
</g>
</svg>
