<?xml version="1.0" encoding="iso-8859-1"?>
<!-- Generator: Adobe Illustrator 18.0.0, SVG Export Plug-In . SVG Version: 6.00 Build 0)  -->
<!DOCTYPE svg PUBLIC "-//W3C//DTD SVG 1.1//EN" "http://www.w3.org/Graphics/SVG/1.1/DTD/svg11.dtd">
<svg version="1.1" id="Capa_1" xmlns="http://www.w3.org/2000/svg" xmlns:xlink="http://www.w3.org/1999/xlink" x="0px" y="0px"
	 viewBox="0 0 491.397 491.397" style="enable-background:new 0 0 491.397 491.397;" xml:space="preserve">
<g id="XMLID_505_">
	<path id="XMLID_506_" d="M17.465,290.604C7.812,290.604,0,298.413,0,308.068c0,9.652,7.812,17.465,17.465,17.465h114.354
		l-31.533-34.929H17.465z"/>
	<path id="XMLID_507_" d="M490.676,308.102l-15.521-80.909c-5.303-27.561-24.712-48.762-49.716-57.39l-22.375-44.293
		c-3.293-6.481-10.113-10.319-17.465-9.481c-7.232,0.783-13.219,5.95-15.043,12.994l-12.809,49.665
		c-16.815,11.443-22.036,22.751-32.217,40.216c12.535,4.997,21.233,15.827,23.844,28.448c13.9-23.861,21.369-44.531,47.463-46.817
		c21.132-1.758,40.013,12.45,44.002,33.239l15.52,80.912c0.444,2.318-0.988,4.535-3.324,5.081c-1.654,0.308-3.292-0.222-4.348-1.534
		l-30.904-38.408c-6.038-7.486-17.056-8.731-24.561-2.662c-7.521,6.055-8.696,17.039-2.659,24.561
		c29.077,36.121,40.419,58.976,70.333,52.068C481.603,349.035,494.685,328.96,490.676,308.102z"/>
	<path id="XMLID_508_" d="M300.221,292.991l-15.315-4.383l-1.159,1.996h-42.265l11.41,12.638
		c5.817,6.446,9.773,14.139,11.838,22.291h29.045c6.207,0,11.953-3.31,15.092-8.664l14.123-24.235
		C315.844,294.918,307.979,295.207,300.221,292.991z"/>
	<path id="XMLID_509_" d="M298.891,110.793c15.947-15.556,16.254-41.087,0.717-57.017c-15.537-15.946-41.035-16.271-56.965-0.733
		c-15.929,15.537-16.287,41.033-0.732,56.963C257.397,125.97,282.946,126.295,298.891,110.793z"/>
	<path id="XMLID_510_" d="M317.074,234.235l-58.297-16.712l-16.815-54.476l9.824,16.083c4.858-12.313,2.472-26.878-7.368-36.991
		l-10.336-10.608c-6.432-6.603-15.195-10.37-24.406-10.489c-9.209-0.12-18.078,3.428-24.678,9.84l-70.318,68.512
		c-18.746,18.23-19.614,48.777-0.889,68.015c17.023,17.465,3.548,2.983,71.207,77.909l-19.324,71.443
		c-3.77,13.968,4.484,28.344,18.453,32.131c13.899,3.735,28.328-4.398,32.133-18.452l23.04-85.243
		c2.319-8.596,0.12-17.788-5.849-24.391l-57.424-63.579c22.221-21.626,16.627-16.185,27.015-26.315l-2.798-55.002l20.295,65.763
		c2.166,7.044,7.76,12.52,14.839,14.549l69.653,19.972c2.012,0.58,4.04,0.852,6.037,0.852c9.483,0,18.215-6.24,20.961-15.81
		C335.354,249.637,328.652,237.545,317.074,234.235z"/>
</g>
<g>
</g>
<g>
</g>
<g>
</g>
<g>
</g>
<g>
</g>
<g>
</g>
<g>
</g>
<g>
</g>
<g>
</g>
<g>
</g>
<g>
</g>
<g>
</g>
<g>
</g>
<g>
</g>
<g>
</g>
</svg>
