<?xml version="1.0" encoding="iso-8859-1"?>
<!-- Generator: Adobe Illustrator 18.0.0, SVG Export Plug-In . SVG Version: 6.00 Build 0)  -->
<!DOCTYPE svg PUBLIC "-//W3C//DTD SVG 1.1//EN" "http://www.w3.org/Graphics/SVG/1.1/DTD/svg11.dtd">
<svg version="1.1" id="Capa_1" xmlns="http://www.w3.org/2000/svg" xmlns:xlink="http://www.w3.org/1999/xlink" x="0px" y="0px"
	 viewBox="0 0 497.267 497.267" style="enable-background:new 0 0 497.267 497.267;" xml:space="preserve">
<g id="XMLID_355_">
	<path id="XMLID_356_" d="M203.247,220.474c-8.965,0-15.028,11.362-14.88,35.52c-0.148,23.832,5.607,35.181,15.025,35.181
		c9.453,0,14.576-11.834,14.576-35.504C217.969,232.633,213.008,220.474,203.247,220.474z"/>
	<path id="XMLID_357_" d="M12.53,150.373l-8.319,5.414c-3.921,2.564-5.332,7.652-3.257,11.884l29.587,60.536
		c1.993,4.102,6.664,6.144,11.007,4.83l9.469-2.804L12.53,150.373z"/>
	<path id="XMLID_358_" d="M292.073,220.474c-8.965,0-15.028,11.362-14.882,35.52c-0.146,23.832,5.609,35.181,15.027,35.181
		c9.451,0,14.56-11.834,14.56-35.504C306.778,232.633,301.816,220.474,292.073,220.474z"/>
	<path id="XMLID_359_" d="M493.055,155.787l-8.316-5.414l-38.489,79.86l9.468,2.804c4.347,1.314,9.015-0.728,11.008-4.83
		l29.589-60.536C498.388,163.456,496.977,158.35,493.055,155.787z"/>
	<path id="XMLID_360_" d="M462.203,135.684l-63.227-41.242c-8.627-5.644-18.711-8.675-29.022-8.756l-44.582-0.357
		c-4.75-0.049-8.723,3.486-9.307,8.188c-4.069,33.396-32.536,59.254-67.02,59.254c-34.516,0-62.983-25.906-67.02-59.319
		c-0.568-4.653-4.522-8.188-9.223-8.188H128.38c-10.456,0-20.686,3.048-29.457,8.756l-63.876,41.664l41.861,86.831l35.44-10.552
		v190.732c0,5.139,4.165,9.307,9.322,9.307h254.771c5.139,0,9.305-4.168,9.305-9.307V212.205l34.614,10.311L462.203,135.684z
		 M202.76,309.575c-26.861,0-38.696-24.154-38.858-53.581c0-30.073,12.808-53.905,39.671-53.905
		c27.836,0,38.697,24.788,38.697,53.257C242.269,287.494,229.316,309.575,202.76,309.575z M291.586,309.575
		c-26.861,0-38.713-24.154-38.858-53.581c0-30.073,12.791-53.905,39.673-53.905c27.816,0,38.695,24.788,38.695,53.257
		C331.096,287.494,318.141,309.575,291.586,309.575z"/>
</g>
<g>
</g>
<g>
</g>
<g>
</g>
<g>
</g>
<g>
</g>
<g>
</g>
<g>
</g>
<g>
</g>
<g>
</g>
<g>
</g>
<g>
</g>
<g>
</g>
<g>
</g>
<g>
</g>
<g>
</g>
</svg>
