<?xml version="1.0" encoding="iso-8859-1"?>
<!-- Generator: Adobe Illustrator 18.0.0, SVG Export Plug-In . SVG Version: 6.00 Build 0)  -->
<!DOCTYPE svg PUBLIC "-//W3C//DTD SVG 1.1//EN" "http://www.w3.org/Graphics/SVG/1.1/DTD/svg11.dtd">
<svg version="1.1" id="Capa_1" xmlns="http://www.w3.org/2000/svg" xmlns:xlink="http://www.w3.org/1999/xlink" x="0px" y="0px"
	 viewBox="0 0 496.47 496.47" style="enable-background:new 0 0 496.47 496.47;" xml:space="preserve">
<g id="XMLID_386_">
	<path id="XMLID_387_" d="M489.075,444.727l-56.487-56.489l-35.698,35.698l56.489,56.488c4.93,4.93,11.391,7.395,17.848,7.395
		c6.459,0,12.917-2.465,17.849-7.395C498.935,470.561,498.935,454.587,489.075,444.727z"/>
	<path id="XMLID_388_" d="M210.747,218.76l18.688-16.352L29.468,10.315c-2.284-2.186-5.901-2.219-8.218-0.034
		c-2.384,2.269-2.482,6.032-0.229,8.415L210.747,218.76z"/>
	<path id="XMLID_389_" d="M285.757,256.496l-18.704,21.646l32.953,34.742c3.059-4.027,6.196-8.004,9.845-11.651
		c3.731-3.732,7.739-7.05,11.85-10.189L285.757,256.496z"/>
	<path id="XMLID_390_" d="M439.457,324.372c-0.705-5.225-3.795-9.828-8.382-12.439c-12.408-7.084-26.278-10.635-40.149-10.635
		c-20.727,0-41.449,7.905-57.261,23.733c-26.411,26.409-30.766,66.495-13.099,97.409c2.613,4.586,7.231,7.676,12.457,8.365
		c0.756,0.1,1.514,0.148,2.27,0.148c4.438,0,8.742-1.759,11.932-4.945l87.418-87.421
		C438.372,334.858,440.148,329.598,439.457,324.372z"/>
	<path id="XMLID_391_" d="M7.395,444.727c-9.86,9.859-9.86,25.834,0,35.697c4.932,4.93,11.391,7.395,17.849,7.395
		c6.459,0,12.918-2.465,17.85-7.395l56.486-56.488l-35.697-35.698L7.395,444.727z"/>
	<path id="XMLID_392_" d="M475.418,10.479c-2.269-2.367-6.048-2.449-8.414-0.164L174.77,291.044
		c4.107,3.139,8.118,6.456,11.833,10.189c3.648,3.647,6.789,7.624,9.861,11.651L475.449,18.696
		C477.619,16.413,477.636,12.781,475.418,10.479z"/>
	<path id="XMLID_393_" d="M105.546,301.297c-13.871,0-27.742,3.551-40.15,10.635c-4.586,2.611-7.677,7.215-8.383,12.439
		c-0.69,5.227,1.086,10.486,4.817,14.216l87.417,87.421c3.189,3.186,7.493,4.945,11.933,4.945c0.755,0,1.511-0.049,2.268-0.148
		c5.227-0.689,9.844-3.779,12.459-8.365c17.667-30.914,13.311-71-13.1-97.409C146.996,309.203,126.271,301.297,105.546,301.297z"/>
</g>
<g>
</g>
<g>
</g>
<g>
</g>
<g>
</g>
<g>
</g>
<g>
</g>
<g>
</g>
<g>
</g>
<g>
</g>
<g>
</g>
<g>
</g>
<g>
</g>
<g>
</g>
<g>
</g>
<g>
</g>
</svg>
