<?xml version="1.0" encoding="iso-8859-1"?>
<!-- Generator: Adobe Illustrator 18.0.0, SVG Export Plug-In . SVG Version: 6.00 Build 0)  -->
<!DOCTYPE svg PUBLIC "-//W3C//DTD SVG 1.1//EN" "http://www.w3.org/Graphics/SVG/1.1/DTD/svg11.dtd">
<svg version="1.1" id="Capa_1" xmlns="http://www.w3.org/2000/svg" xmlns:xlink="http://www.w3.org/1999/xlink" x="0px" y="0px"
	 viewBox="0 0 489.435 489.435" style="enable-background:new 0 0 489.435 489.435;" xml:space="preserve">
<g id="XMLID_88_">
	<path id="XMLID_89_" d="M205.197,122.286c17.768,10.145,40.41,3.951,50.557-13.816c10.129-17.789,3.919-40.409-13.846-50.554
		c-17.783-10.136-40.41-3.943-50.54,13.831C181.237,89.529,187.416,112.148,205.197,122.286z"/>
	<path id="XMLID_90_" d="M488.614,77.962c-1.662-2.704-5.173-3.566-7.871-1.928l-131.985,80.122l-8.177-11.439
		c-2.581-3.607-7.599-4.446-11.197-1.865c-3.614,2.578-4.445,7.588-1.866,11.195l3.472,4.862l-57.736,12.451l-41.28-9.292
		c-2.728-5.315-6.946-9.949-12.53-13.132l-11.839-6.758c-8.976-5.12-20.094-5.238-27.409-2.298l-69.639,28.013
		c-1.669,0.675-3.214,1.608-4.594,2.769l-65.625,55.509c-7.11,6.014-7.996,16.653-1.983,23.765
		c3.339,3.943,8.091,5.967,12.882,5.967c3.849,0,7.715-1.311,10.882-3.984l63.547-53.753l17.234-6.932
		c0,0-71.333,132.338-74.798,139.396L6.577,395.767c-9.134,9.668-8.703,24.91,0.972,34.044c9.659,9.142,24.917,8.702,34.042-0.973
		l64.025-67.78c1.662-1.749,3.042-3.748,4.107-5.911l28.532-58.075c11.956,7.471-31.417-19.507,76.476,47.575l1.097,68.047
		c0.22,13.165,10.954,23.694,24.08,23.694c0.134,0,0.267,0,0.399,0c13.297-0.219,23.904-11.173,23.693-24.478l-1.317-81.172
		c-0.133-8.185-4.413-15.734-11.368-20.064l-64.503-40.111l42.503-74.531l40.159,9.04c2.281,0.517,4.79,0.556,7.252,0.03l34.317-7.4
		c4.783,6.296,13.713,7.629,20.087,2.924l19.43-14.341l8.317,11.635c2.589,3.622,7.607,4.439,11.196,1.868
		c3.615-2.581,4.447-7.591,1.866-11.197l-8.458-11.831l123.627-91.224C489.462,83.788,490.151,80.503,488.614,77.962z"/>
</g>
<g>
</g>
<g>
</g>
<g>
</g>
<g>
</g>
<g>
</g>
<g>
</g>
<g>
</g>
<g>
</g>
<g>
</g>
<g>
</g>
<g>
</g>
<g>
</g>
<g>
</g>
<g>
</g>
<g>
</g>
</svg>
