<?xml version="1.0" encoding="iso-8859-1"?>
<!-- Generator: Adobe Illustrator 18.0.0, SVG Export Plug-In . SVG Version: 6.00 Build 0)  -->
<!DOCTYPE svg PUBLIC "-//W3C//DTD SVG 1.1//EN" "http://www.w3.org/Graphics/SVG/1.1/DTD/svg11.dtd">
<svg version="1.1" id="Capa_1" xmlns="http://www.w3.org/2000/svg" xmlns:xlink="http://www.w3.org/1999/xlink" x="0px" y="0px"
	 viewBox="0 0 494.894 494.894" style="enable-background:new 0 0 494.894 494.894;" xml:space="preserve">
<g id="XMLID_329_">
	<path id="XMLID_330_" d="M197.507,247.447c0,21.715,14.032,40.066,33.443,46.912v-93.823
		C211.539,207.382,197.507,225.73,197.507,247.447z"/>
	<rect id="XMLID_331_" x="438.187" y="189.693" width="56.706" height="115.508"/>
	<path id="XMLID_332_" d="M421.691,338.193c-9.109,0-16.497-7.376-16.497-16.496V173.198c0-9.12,7.387-16.497,16.497-16.497h73.203
		v-42.545c0-12.809-10.375-23.184-23.174-23.184H263.943v75.218c37.849,7.667,66.438,41.177,66.438,81.257
		s-28.588,73.59-66.438,81.258v75.217H471.72c12.799,0,23.174-10.374,23.174-23.182v-42.547H421.691z"/>
	<path id="XMLID_333_" d="M297.388,247.447c0-21.717-14.032-40.064-33.445-46.911v93.823
		C283.356,287.513,297.388,269.162,297.388,247.447z"/>
	<path id="XMLID_334_" d="M230.951,328.705c-37.85-7.668-66.436-41.178-66.436-81.258s28.587-73.59,66.436-81.257V90.972H23.174
		C10.375,90.972,0,101.347,0,114.156v42.545h73.203c9.111,0,16.497,7.377,16.497,16.497v148.499c0,9.12-7.385,16.496-16.497,16.496
		H0v42.547c0,12.808,10.375,23.182,23.174,23.182h207.777V328.705z"/>
	<rect id="XMLID_335_" x="0" y="189.693" width="56.707" height="115.508"/>
</g>
<g>
</g>
<g>
</g>
<g>
</g>
<g>
</g>
<g>
</g>
<g>
</g>
<g>
</g>
<g>
</g>
<g>
</g>
<g>
</g>
<g>
</g>
<g>
</g>
<g>
</g>
<g>
</g>
<g>
</g>
</svg>
