<?xml version="1.0" encoding="iso-8859-1"?>
<!-- Generator: Adobe Illustrator 18.0.0, SVG Export Plug-In . SVG Version: 6.00 Build 0)  -->
<!DOCTYPE svg PUBLIC "-//W3C//DTD SVG 1.1//EN" "http://www.w3.org/Graphics/SVG/1.1/DTD/svg11.dtd">
<svg version="1.1" id="Capa_1" xmlns="http://www.w3.org/2000/svg" xmlns:xlink="http://www.w3.org/1999/xlink" x="0px" y="0px"
	 viewBox="0 0 490.547 490.547" style="enable-background:new 0 0 490.547 490.547;" xml:space="preserve">
<g id="XMLID_477_">
	<path id="XMLID_478_" d="M251.089,141.867c13.602-13.25,13.856-35.018,0.624-48.568c-13.25-13.587-34.969-13.889-48.537-0.639
		c-13.586,13.246-13.889,34.968-0.624,48.535C215.753,154.795,237.521,155.066,251.089,141.867z"/>
	<path id="XMLID_479_" d="M210,371.783c-13.568,13.217-13.857,34.953-0.623,48.523c13.199,13.599,34.969,13.887,48.568,0.668
		c13.57-13.248,13.841-35.016,0.592-48.568C245.288,358.806,223.586,358.535,210,371.783z"/>
	<path id="XMLID_480_" d="M266.576,247.029l-49.656-14.225l-7.496-24.293c9.974-11.491,9.798-28.832-1.023-39.939l-8.808-9.029
		c-3.947-4.074-10.69-7.495-13.918-8.311l-72.766-18.667c-6.633-1.726-13.696,0.384-18.332,5.448l-43.79,47.725
		c-6.937,7.575-6.442,19.354,1.118,26.289c3.564,3.276,8.071,4.906,12.577,4.906c5.034,0,10.037-2.045,13.714-6.025l36.246-39.539
		l24.26,6.219L86.89,228.074c-7.957,6.809-15.149,17.611-10.58,28.48l20.474,48.714L12.065,349.2
		c-10.949,5.674-15.231,19.162-9.558,30.095c5.657,10.868,19.065,15.215,30.093,9.541l103.021-53.412
		c2.955-1.533,5.259-3.725,7.191-6.201l11.252,12.451l-16.462,60.891c-3.212,11.876,3.834,24.149,15.727,27.361
		c12.02,3.213,24.18-3.932,27.361-15.727l19.641-72.639c1.967-7.318,0.113-15.135-4.986-20.76l-47.178-52.262l31.404-30.605
		l4.779,15.452c1.854,6.012,6.6,10.679,12.642,12.404l59.34,16.988c9.909,2.846,20.185-2.924,22.999-12.752
		C282.159,260.148,276.453,249.857,266.576,247.029z"/>
	<path id="XMLID_481_" d="M489.461,228.503l-21.751-61.018c-2.304-6.457-7.976-11.125-14.753-12.147l-74.301-11.171
		c-3.389-0.496-10.836,0.049-16.045,2.238l-11.65,4.891c-14.272,6.023-21.24,21.927-16.492,36.406l-16.352,19.435l-51.287-6.217
		c-10.436-1.23-19.481,6.026-20.711,16.221c-1.23,10.212,6.025,19.468,16.222,20.698l61.29,7.432c6.105,0.766,12.34-1.6,16.494-6.49
		l10.371-12.355l18.684,44.382l-30.844,22.04c-2.975,2.142-5.387,4.97-7.017,8.232l-48.362,97.377
		c-5.482,11.027-0.976,24.437,10.068,29.918c10.996,5.435,24.405,1.039,29.936-10.067l37.652-75.853l66.518,80.182
		c7.832,9.414,21.88,10.805,31.436,2.928c9.493-7.881,10.804-21.946,2.926-31.438l-60.94-73.454l37.831-36.917
		c8.245-8.04,6.137-19.691,1.66-29.617l-28.367-67.377l24.74,3.706l18.012,50.519c3.468,9.75,14.191,14.735,23.766,11.268
		C487.862,248.818,492.912,238.174,489.461,228.503z"/>
	<path id="XMLID_482_" d="M367.022,125.82c17.486-7.334,25.668-27.456,18.316-44.955c-7.352-17.453-27.475-25.686-44.94-18.316
		c-17.485,7.35-25.716,27.488-18.364,44.988C329.418,124.988,349.553,133.22,367.022,125.82z"/>
</g>
<g>
</g>
<g>
</g>
<g>
</g>
<g>
</g>
<g>
</g>
<g>
</g>
<g>
</g>
<g>
</g>
<g>
</g>
<g>
</g>
<g>
</g>
<g>
</g>
<g>
</g>
<g>
</g>
<g>
</g>
</svg>
