<?xml version="1.0" encoding="iso-8859-1"?>
<!-- Generator: Adobe Illustrator 18.0.0, SVG Export Plug-In . SVG Version: 6.00 Build 0)  -->
<!DOCTYPE svg PUBLIC "-//W3C//DTD SVG 1.1//EN" "http://www.w3.org/Graphics/SVG/1.1/DTD/svg11.dtd">
<svg version="1.1" id="Capa_1" xmlns="http://www.w3.org/2000/svg" xmlns:xlink="http://www.w3.org/1999/xlink" x="0px" y="0px"
	 viewBox="0 0 495.547 495.547" style="enable-background:new 0 0 495.547 495.547;" xml:space="preserve">
<g id="XMLID_409_">
	<path id="XMLID_410_" d="M220.832,208.759c3.947-0.261,7.932-0.887,11.84-2.322c21.871-8.045,33.125-32.293,25.082-54.199
		c-8.046-21.873-32.295-33.09-54.201-25.045c-11.369,4.176-19.774,12.787-24.175,23.117l7.951,30.008L220.832,208.759z"/>
	<path id="XMLID_411_" d="M387.592,450.477c-7.969-11.994-42.72-64.118-50.442-76.279c0,0-40.453-100.736-44.702-112.333
		l28.95-4.323c6.874-1.02,12.976-4.949,16.733-10.784l43.174-66.835c7.25-11.22,4.02-26.195-7.178-33.43
		c-11.218-7.232-26.176-4.021-33.426,7.178l-37.244,57.658l-80.661,18.111l-48.31-41.02l-23.854-90.028
		c-3.416-12.899-16.656-20.528-29.556-17.167c-12.897,3.418-20.583,16.639-17.167,29.556l25.779,97.355
		c1.268,4.759,3.945,9.046,7.726,12.237l66.589,56.545c16.035,43.605,9.348,25.457,38.508,104.834l-23.718,39.643l-38.321-32.031
		c-12.294-10.272-30.594-8.594-40.869,3.664c-10.272,12.293-8.63,30.593,3.666,40.865l64.381,53.808
		c6.704,5.589,15.41,7.726,23.455,6.327c8.365-1.418,15.693-6.423,20.037-13.713l45.535-76.127l28.742-10.387l-49.422,82.662
		l81.039,18.355c11.292,2.608,23.434-1.906,30.29-11.82C394.052,473.233,394.164,460.354,387.592,450.477z"/>
	<path id="XMLID_412_" d="M257.869,81.849c21.868-8.047,33.126-32.295,25.077-54.201c-8.044-21.87-32.293-33.088-54.201-25.043
		c-21.865,8.045-33.085,32.295-25.041,54.164C211.711,78.677,235.996,89.895,257.869,81.849z"/>
</g>
<g>
</g>
<g>
</g>
<g>
</g>
<g>
</g>
<g>
</g>
<g>
</g>
<g>
</g>
<g>
</g>
<g>
</g>
<g>
</g>
<g>
</g>
<g>
</g>
<g>
</g>
<g>
</g>
<g>
</g>
</svg>
