<?xml version="1.0" encoding="iso-8859-1"?>
<!-- Generator: Adobe Illustrator 18.0.0, SVG Export Plug-In . SVG Version: 6.00 Build 0)  -->
<!DOCTYPE svg PUBLIC "-//W3C//DTD SVG 1.1//EN" "http://www.w3.org/Graphics/SVG/1.1/DTD/svg11.dtd">
<svg version="1.1" id="Capa_1" xmlns="http://www.w3.org/2000/svg" xmlns:xlink="http://www.w3.org/1999/xlink" x="0px" y="0px"
	 viewBox="0 0 490.989 490.989" style="enable-background:new 0 0 490.989 490.989;" xml:space="preserve">
<g id="XMLID_94_">
	<path id="XMLID_95_" d="M250.334,96.135c21.673,12.376,49.298,4.82,61.674-16.854c12.36-21.703,4.784-49.298-16.891-61.675
		c-21.692-12.368-49.299-4.812-61.658,16.872C221.104,56.171,228.641,83.766,250.334,96.135z"/>
	<path id="XMLID_96_" d="M433.542,155.437c-2.851-13.208-15.858-21.712-29.097-18.766l-71.07,15.322l-53.255-11.984
		c-3.196-4.506-7.29-8.455-12.396-11.364l-18.442-10.521c-7.309-4.17-16.623-5.757-26.781-3.022
		c-16.51,5.902,42.449-15.992-88.496,32.808c-2.641,0.986-5.106,2.432-7.27,4.247l-80.059,67.722
		c-10.313,8.743-11.611,24.189-2.871,34.511c8.686,10.272,24.105,11.659,34.512,2.887l76.787-64.966l15.687-5.844
		c-49.719,87.129-26.763,44.199-87.576,163.688l-75.2,79.618c-11.134,11.794-10.599,30.388,1.186,41.531
		c11.842,11.191,30.455,10.571,41.551-1.185l78.109-82.69c1.914-2.037,3.539-4.343,4.82-6.849l35.926-70.599l90.906,56.528
		l-5.777,81.35c-1.205,16.961,12.203,31.47,29.343,31.47c15.267,0,28.181-11.822,29.271-27.299l7.039-99.025
		c0.785-10.876-4.532-21.283-13.793-27.04l-78.699-48.935l49.833-87.356l50.16,11.285c3.579,0.796,7.153,0.776,10.54,0.039
		l76.348-16.46C427.993,181.692,436.39,168.665,433.542,155.437z"/>
	<path id="XMLID_97_" d="M439.262,375.805c-28.58,0-51.728,23.158-51.728,51.72c0,28.57,23.148,51.727,51.728,51.727
		c28.579,0,51.728-23.156,51.728-51.727C490.989,398.963,467.841,375.805,439.262,375.805z"/>
</g>
<g>
</g>
<g>
</g>
<g>
</g>
<g>
</g>
<g>
</g>
<g>
</g>
<g>
</g>
<g>
</g>
<g>
</g>
<g>
</g>
<g>
</g>
<g>
</g>
<g>
</g>
<g>
</g>
<g>
</g>
</svg>
