<?xml version="1.0" encoding="iso-8859-1"?>
<!-- Generator: Adobe Illustrator 18.0.0, SVG Export Plug-In . SVG Version: 6.00 Build 0)  -->
<!DOCTYPE svg PUBLIC "-//W3C//DTD SVG 1.1//EN" "http://www.w3.org/Graphics/SVG/1.1/DTD/svg11.dtd">
<svg version="1.1" id="Capa_1" xmlns="http://www.w3.org/2000/svg" xmlns:xlink="http://www.w3.org/1999/xlink" x="0px" y="0px"
	 viewBox="0 0 496.775 496.775" style="enable-background:new 0 0 496.775 496.775;" xml:space="preserve">
<g id="XMLID_62_">
	<path id="XMLID_63_" d="M309.076,150.748c-6.864-2.51-20.672-8.272-28.087-7.739l-65.939,5.528l-37.815-44.709
		c-5.933-7.001-16.389-7.859-23.391-1.951c-6.993,5.925-7.867,16.382-1.951,23.391l43.343,51.234
		c3.172,3.747,7.803,5.877,12.666,5.877c1.766,0,71.996-5.755,77.434-6.752c-3.796,1.491-70.828,20.519-74.795,21.661
		c-5.632,1.609-11.289,0.727-16.163-1.692l16.115,20.203c3.237,4.071,8.052,6.264,12.982,6.264c3.513,0,5.778-0.923,8.604-2.38
		l-14.512,39.441c-2.671,7.277-14.034,107.195-14.034,107.195L182.4,472.201c-2.535,12.676,7.138,24.574,20.162,24.574
		c9.599,0,18.17-6.76,20.12-16.528l21.335-107.025l6.751-47.478l23.107,48.724l-5.009,100.745
		c-0.583,11.607,8.651,21.554,20.526,21.554c10.885,0,19.959-8.54,20.509-19.523l5.26-105.892c0.171-3.375-0.5-6.758-1.95-9.816
		l-25.61-54.027l41.62-113.169C335.704,176.736,326.68,157.222,309.076,150.748z"/>
	<path id="XMLID_64_" d="M120.863,133.629c-5.528,3.505-7.172,10.822-3.675,16.358c2.267,3.561,6.11,5.512,10.029,5.512
		c2.176,0,4.37-0.601,6.337-1.839l14.788-9.372l-15.459-18.276L120.863,133.629z"/>
	<path id="XMLID_65_" d="M375.291,20.405L340.982,1.457c-3.781-2.063-8.411-1.926-12.078,0.357L186.777,91.865l15.459,18.283
		l133.435-84.547l28.168,15.556c5.73,3.181,12.949,1.085,16.105-4.653C383.11,30.781,381.03,23.57,375.291,20.405z"/>
	<path id="XMLID_66_" d="M333.18,64.743c-20.47-7.519-43.125,2.955-50.635,23.399c-7.519,20.445,2.954,43.1,23.39,50.627
		c20.445,7.519,43.108-2.946,50.636-23.399C364.097,94.932,353.625,72.263,333.18,64.743z"/>
</g>
<g>
</g>
<g>
</g>
<g>
</g>
<g>
</g>
<g>
</g>
<g>
</g>
<g>
</g>
<g>
</g>
<g>
</g>
<g>
</g>
<g>
</g>
<g>
</g>
<g>
</g>
<g>
</g>
<g>
</g>
</svg>
