<?xml version="1.0" encoding="iso-8859-1"?>
<!-- Generator: Adobe Illustrator 18.0.0, SVG Export Plug-In . SVG Version: 6.00 Build 0)  -->
<!DOCTYPE svg PUBLIC "-//W3C//DTD SVG 1.1//EN" "http://www.w3.org/Graphics/SVG/1.1/DTD/svg11.dtd">
<svg version="1.1" id="Capa_1" xmlns="http://www.w3.org/2000/svg" xmlns:xlink="http://www.w3.org/1999/xlink" x="0px" y="0px"
	 viewBox="0 0 498.917 498.917" style="enable-background:new 0 0 498.917 498.917;" xml:space="preserve">
<g id="XMLID_120_">
	<path id="XMLID_121_" d="M202.951,203.559c24.66,0,44.645-19.977,44.645-44.645c0-24.647-19.985-44.63-44.645-44.63
		c-24.67,0-44.63,19.983-44.63,44.63C158.32,183.582,178.281,203.559,202.951,203.559z"/>
	<path id="XMLID_122_" d="M418.224,392.974l-90.092-67.931c-14.047-10.591-25.399-2.548-40.658,5.13
		c13.755,2.321,18.779,9.749,25.293,20.389l27.881,45.462l47.995,36.191c10.802,8.139,26.208,6.052,34.411-4.831
		C431.217,416.552,429.057,401.146,418.224,392.974z"/>
	<path id="XMLID_123_" d="M298.802,359.123c-5.137-8.383-14.757-12.833-24.564-11.457l-85.407,12.694l68.247-23.755v-94.421
		l39.725-51.984c2.371-3.099,3.722-6.859,3.868-10.744l2.071-56.393c18.633-7.274,31.919-25.301,31.919-46.466
		c0-23.173-15.931-42.542-37.373-48.167V12.29c0-6.787-5.501-12.29-12.281-12.29c-6.781,0-12.282,5.503-12.282,12.29v15.939
		c-21.764,5.397-38.01,24.953-38.01,48.368c0,20.583,12.523,38.286,30.348,45.933l-1.83,49.556l-30.615,40.064h-59.331
		l-30.631-40.064l-1.821-49.727c17.639-7.726,30.025-25.307,30.025-45.761c0-23.294-16.091-42.752-37.687-48.262V12.29
		c0-6.787-5.501-12.29-12.29-12.29c-6.78,0-12.282,5.503-12.282,12.29v16.045c-21.594,5.51-37.687,24.968-37.687,48.262
		c0,21.286,13.447,39.377,32.242,46.562l2.071,56.297c0.145,3.892,1.497,7.645,3.859,10.744l39.758,52.009v140.814
		c0,18.414,17.251,30.349,31.611,28.27c29.216-4.345,55.707-8.278,84.946-12.63l54.29,88.531
		c7.129,11.611,22.265,15.161,33.795,8.098c11.563-7.096,15.195-22.226,8.099-33.787L298.802,359.123z M259.287,76.597
		c0-14.005,11.4-25.405,25.397-25.405c14.005,0,25.405,11.4,25.405,25.405c0,6.343-2.419,12.08-6.286,16.545
		c0.258-10.308-7.784-18.941-18.101-19.329c-10.219-0.34-19.144,7.734-19.522,18.138l-0.064,1.838
		C261.908,89.259,259.287,83.247,259.287,76.597z M95.486,76.597c0-14.005,11.392-25.405,25.397-25.405
		c14.005,0,25.405,11.4,25.405,25.405c0,6.472-2.507,12.33-6.52,16.821l-0.057-1.466c-0.38-10.404-9.013-18.47-19.524-18.138
		c-10.388,0.388-18.503,9.126-18.131,19.531l0.007,0.146C98.019,88.992,95.486,83.103,95.486,76.597z"/>
</g>
<g>
</g>
<g>
</g>
<g>
</g>
<g>
</g>
<g>
</g>
<g>
</g>
<g>
</g>
<g>
</g>
<g>
</g>
<g>
</g>
<g>
</g>
<g>
</g>
<g>
</g>
<g>
</g>
<g>
</g>
</svg>
