<?xml version="1.0" encoding="iso-8859-1"?>
<!-- Generator: Adobe Illustrator 18.0.0, SVG Export Plug-In . SVG Version: 6.00 Build 0)  -->
<!DOCTYPE svg PUBLIC "-//W3C//DTD SVG 1.1//EN" "http://www.w3.org/Graphics/SVG/1.1/DTD/svg11.dtd">
<svg version="1.1" id="Capa_1" xmlns="http://www.w3.org/2000/svg" xmlns:xlink="http://www.w3.org/1999/xlink" x="0px" y="0px"
	 viewBox="0 0 492.364 492.364" style="enable-background:new 0 0 492.364 492.364;" xml:space="preserve">
<g id="XMLID_602_">
	<path id="XMLID_603_" d="M385.136,94.871H353.84l-15.958,37.08h28.722v277.723c0,10.23,8.295,18.539,18.532,18.539
		c10.239,0,18.532-8.309,18.532-18.539V113.41C403.668,103.181,395.375,94.871,385.136,94.871z"/>
	<path id="XMLID_604_" d="M107.226,94.871c-10.239,0-18.533,8.31-18.533,18.539v296.264c0,10.23,8.293,18.539,18.533,18.539
		c10.237,0,18.532-8.309,18.532-18.539V131.951h28.73l-15.958-37.08H107.226z"/>
	<path id="XMLID_605_" d="M459.722,0C320.545,0,192.868,0,32.642,0C22.403,0,14.109,8.309,14.109,18.539v455.285
		c0,10.229,8.293,18.54,18.532,18.54c10.237,0,18.532-8.311,18.532-18.54V37.079c48.836,0,50.828,0,81.8,0
		c1.692,3.934,59.075,138.184,61.617,141.616c0,29.478,0.038,291.918,0.038,291.918c0,12.008,9.743,21.751,21.759,21.751
		s21.758-9.743,21.758-21.751V340.456h16.086v130.157c0,12.008,9.742,21.751,21.758,21.751c12.017,0,21.759-9.743,21.759-21.751
		c0,0,0.022-256.508,0.022-291.901c2.542-3.433,59.941-137.698,61.634-141.633c56.885,0-52.167,0,81.785,0v436.745
		c0,10.229,8.293,18.54,18.532,18.54c10.237,0,18.533-8.311,18.533-18.54V18.539C478.255,8.309,469.959,0,459.722,0z
		 M270.717,149.389h-19.303h-10.466h-19.312L173.312,37.079c106.998,0-58.06,0,145.738,0L270.717,149.389z"/>
	<path id="XMLID_608_" d="M246.182,56.092c-15.542,0-28.991,8.402-36.42,20.821c-3.808,6.375-6.138,13.757-6.138,21.72
		c0,20.334,14.275,37.285,33.342,41.503c2.976,0.644,6.044,1.054,9.215,1.054c3.17,0,6.241-0.41,9.222-1.07
		c19.053-4.218,33.335-21.152,33.335-41.486c0-7.963-2.329-15.33-6.139-21.703C275.172,64.494,261.715,56.092,246.182,56.092z"/>
</g>
<g>
</g>
<g>
</g>
<g>
</g>
<g>
</g>
<g>
</g>
<g>
</g>
<g>
</g>
<g>
</g>
<g>
</g>
<g>
</g>
<g>
</g>
<g>
</g>
<g>
</g>
<g>
</g>
<g>
</g>
</svg>
