<?xml version="1.0" encoding="iso-8859-1"?>
<!-- Generator: Adobe Illustrator 18.0.0, SVG Export Plug-In . SVG Version: 6.00 Build 0)  -->
<!DOCTYPE svg PUBLIC "-//W3C//DTD SVG 1.1//EN" "http://www.w3.org/Graphics/SVG/1.1/DTD/svg11.dtd">
<svg version="1.1" id="Capa_1" xmlns="http://www.w3.org/2000/svg" xmlns:xlink="http://www.w3.org/1999/xlink" x="0px" y="0px"
	 viewBox="0 0 488.218 488.218" style="enable-background:new 0 0 488.218 488.218;" xml:space="preserve">
<g>
	<path id="XMLID_44_" d="M244.002,314.912l-22.186,46.828l-4.272,39.349c27.914,7.454,52.74-11.7,56.378-37.058
		C277.063,342.218,264.08,321.875,244.002,314.912z"/>
	<path id="XMLID_45_" d="M471.163,439.714H341.246c-0.124-1.082,0.067-2.14-0.24-3.223l-49.984-177.293l16.364-113.918
		l43.579-61.012l80.849,9.877c14.098,1.791,26.79-8.262,28.498-22.286c1.715-14.024-8.262-26.782-22.287-28.498l-95.937-11.726
		c-9.335-1.233-18.48,2.89-23.926,10.519l-48.544,67.956l-92.488-14.608l-38.685-68.156c-6.987-12.292-22.618-16.581-34.877-9.627
		c-12.292,6.978-16.598,22.594-9.627,34.877l44.771,78.882c3.847,6.778,10.567,11.434,18.262,12.641l55.457,8.753
		c-11.419,73.576-8.936,57.58-20.587,132.689l-26.749,56.472c-1.017,2.148-1.667,4.463-1.924,6.828l-9.852,90.85
		c-118.324,0,128.543,0-136.263,0C7.636,439.714,0,447.352,0,456.771c0,9.417,7.636,17.055,17.055,17.055
		c161.813,0,292.512,0,454.107,0c9.418,0,17.055-7.638,17.055-17.055C488.218,447.352,480.581,439.714,471.163,439.714z
		 M196.197,439.714l8.97-82.672l26.649-56.248c18.914,2.724,14.666,2.108,30.805,4.431c21.703,13.884,31.548,37.884,28.182,61.227
		c-1.141,7.938-3.839,15.316-7.652,21.961l14.457,51.301C231.684,439.714,365.714,439.714,196.197,439.714z"/>
</g>
<g>
</g>
<g>
</g>
<g>
</g>
<g>
</g>
<g>
</g>
<g>
</g>
<g>
</g>
<g>
</g>
<g>
</g>
<g>
</g>
<g>
</g>
<g>
</g>
<g>
</g>
<g>
</g>
<g>
</g>
</svg>
