<?xml version="1.0" encoding="iso-8859-1"?>
<!-- Generator: Adobe Illustrator 18.0.0, SVG Export Plug-In . SVG Version: 6.00 Build 0)  -->
<!DOCTYPE svg PUBLIC "-//W3C//DTD SVG 1.1//EN" "http://www.w3.org/Graphics/SVG/1.1/DTD/svg11.dtd">
<svg version="1.1" id="Capa_1" xmlns="http://www.w3.org/2000/svg" xmlns:xlink="http://www.w3.org/1999/xlink" x="0px" y="0px"
	 viewBox="0 0 494.194 494.194" style="enable-background:new 0 0 494.194 494.194;" xml:space="preserve">
<g id="XMLID_488_">
	<path id="XMLID_489_" d="M233.345,297.41l-23.226,49.052l-4.466,41.2c29.244,7.71,55.217-12.175,59.038-38.812
		C267.978,326.016,254.381,304.701,233.345,297.41z"/>
	<path id="XMLID_490_" d="M492.617,58.8c-4.998-13.92-20.347-21.142-34.267-16.172L339.193,85.384
		c-79.474,0-40.19,1.326-193.057-6.961L31.785,56.741c-14.628-2.72-28.563,6.786-31.311,21.335
		c-2.756,14.531,6.793,28.556,21.333,31.31l116.104,22.014c1.168,0.228,2.347,0.366,3.533,0.437l105.063,5.705
		c-7.047,2.563-40.242,4.396-48.528,5.041c-11.975,77.188-7.554,48.648-19.248,124.109l-28.015,59.135
		c-1.065,2.25-1.745,4.674-2.016,7.152l-10.352,95.418c-1.431,13.115,8.8,24.732,22.224,24.732c11.249,0,20.932-8.478,22.17-19.922
		l9.942-91.664l27.91-58.908c22.258,3.192,15.75,2.251,32.272,4.643c22.736,14.545,33.029,39.666,29.504,64.121
		c-1.195,8.305-4.021,16.031-8.015,22.99l17.608,62.465c3.385,12.035,15.874,18.753,27.553,15.438
		c11.862-3.349,18.778-15.685,15.429-27.544l-52.349-185.686l14.383-100.092h46.871c3.088,0,6.148-0.539,9.043-1.568l123.546-44.327
		C490.366,88.07,497.606,72.738,492.617,58.8z"/>
</g>
<g>
</g>
<g>
</g>
<g>
</g>
<g>
</g>
<g>
</g>
<g>
</g>
<g>
</g>
<g>
</g>
<g>
</g>
<g>
</g>
<g>
</g>
<g>
</g>
<g>
</g>
<g>
</g>
<g>
</g>
</svg>
