<?xml version="1.0" encoding="iso-8859-1"?>
<!-- Generator: Adobe Illustrator 18.0.0, SVG Export Plug-In . SVG Version: 6.00 Build 0)  -->
<!DOCTYPE svg PUBLIC "-//W3C//DTD SVG 1.1//EN" "http://www.w3.org/Graphics/SVG/1.1/DTD/svg11.dtd">
<svg version="1.1" id="Capa_1" xmlns="http://www.w3.org/2000/svg" xmlns:xlink="http://www.w3.org/1999/xlink" x="0px" y="0px"
	 viewBox="0 0 490.642 490.642" style="enable-background:new 0 0 490.642 490.642;" xml:space="preserve">
<g id="XMLID_615_">
	<path id="XMLID_616_" d="M281.544,97.077c-57.709-47.809-0.021-0.021-57.673-47.789c-2.183-1.805-4.671-3.176-7.342-4.096
		L144.197,20.74c-12.066-4.075-25.176,2.398-29.268,14.482c-4.077,12.082,2.397,25.174,14.481,29.268l68.293,23.085
		c33.524,27.786,23.932,19.837,42.396,35.128l-44.523,78.067c-8.783,15.329-10.551,36.051-1.264,54.355l20.884,97.237
		l-19.008,105.68c-2.705,15.057,7.304,29.467,22.362,32.172c15.545,2.705,29.539-7.719,32.172-22.363l19.964-111.049
		c0.63-3.555,0.577-7.199-0.18-10.715l-15.113-70.422l61.494-107.859c8.874-15.546,14.483-29.557,2.257-46.818
		C312.401,111.396,290.414,99.222,281.544,97.077z"/>
	<path id="XMLID_617_" d="M291.084,79.62c20.431,11.686,46.475,4.545,58.139-15.869c11.651-20.47,4.509-46.493-15.922-58.142
		c-20.451-11.669-46.475-4.544-58.123,15.905C263.528,41.964,270.632,67.968,291.084,79.62z"/>
	<path id="XMLID_618_" d="M463.793,135.525c-2.688-12.461-14.97-20.486-27.431-17.692l-66.994,14.446l-27.429-6.168
		c0.145,0.505,0.414,0.955,0.557,1.479c4.563,16.646,1.154,30.641-6.762,44.455l28.457,6.402c3.211,0.72,6.563,0.757,9.935,0.035
		l71.975-15.527C458.563,160.267,466.48,147.986,463.793,135.525z"/>
	<path id="XMLID_619_" d="M174.115,203.728l-39.26-23.282L77.22,92.154c-8.349-12.805-25.534-16.393-38.341-8.043
		c-12.803,8.348-16.409,25.519-8.041,38.34l61.15,93.686c2.309,3.553,5.412,6.51,9.072,8.674l77.762,46.094l-2.092-9.702
		C168.002,242.464,167.479,222.176,174.115,203.728z"/>
</g>
<g>
</g>
<g>
</g>
<g>
</g>
<g>
</g>
<g>
</g>
<g>
</g>
<g>
</g>
<g>
</g>
<g>
</g>
<g>
</g>
<g>
</g>
<g>
</g>
<g>
</g>
<g>
</g>
<g>
</g>
</svg>
