<?xml version="1.0" encoding="iso-8859-1"?>
<!-- Generator: Adobe Illustrator 18.0.0, SVG Export Plug-In . SVG Version: 6.00 Build 0)  -->
<!DOCTYPE svg PUBLIC "-//W3C//DTD SVG 1.1//EN" "http://www.w3.org/Graphics/SVG/1.1/DTD/svg11.dtd">
<svg version="1.1" id="Capa_1" xmlns="http://www.w3.org/2000/svg" xmlns:xlink="http://www.w3.org/1999/xlink" x="0px" y="0px"
	 viewBox="0 0 492.456 492.456" style="enable-background:new 0 0 492.456 492.456;" xml:space="preserve">
<g id="XMLID_192_">
	<path id="XMLID_193_" d="M479.123,270.195l-65.851-25.528l-39.858-27.656c-0.262-4.727-2.773-13.775-4.003-18.813
		c-0.995-4.051-2.771-7.824-5.2-11.126c-5.813-11.174-22.023-14.508-32.742-11.893l-98.253,24.07
		c-4.393-0.945-95.717-0.58-100.215-0.58l-62.99-64.824c-9.627-9.911-25.481-10.131-35.408-0.505
		c-9.92,9.634-10.148,25.488-0.505,35.407l70.367,72.414c4.712,4.851,11.191,7.589,17.957,7.589h85.863l-40.983,51.611
		l-101.65,16.057c-13.661,2.151-22.985,14.974-20.825,28.636c2.183,13.832,15.209,22.977,28.634,20.824l111.293-17.572
		c6.203-0.978,11.801-4.247,15.706-9.161l52.681-66.357l17.206-4.215c1.532,6.237,5.829,11.437,11.697,14.069l52.81,23.703h-87.037
		l-26.507,33.387h241.808c9.217,0,16.693-7.474,16.693-16.693c0-5.249-2.576-9.732-6.359-12.797
		c7.64-0.701,14.632-5.421,17.591-13.049C495.205,286.448,489.873,274.36,479.123,270.195z M382.045,281.777l-57.962-26.009
		l0.382-0.464l22.856-5.607l44.202,30.672c1.354,0.945,2.813,1.719,4.354,2.314l61.042,23.662h-63.691
		C395.934,296.573,391.58,286.057,382.045,281.777z"/>
	<path id="XMLID_196_" d="M16.693,306.344C7.476,306.344,0,313.82,0,323.038c0,9.22,7.476,16.693,16.693,16.693h11.191
		c0.458-13.693,7.646-26.05,18.779-33.387H16.693z"/>
	<path id="XMLID_197_" d="M435.335,221.606c19.563-4.776,31.503-24.501,26.719-44.064c-4.784-19.545-24.509-31.496-44.031-26.702
		c-19.57,4.775-31.527,24.502-26.743,44.048C396.064,214.435,415.814,226.416,435.335,221.606z"/>
</g>
<g>
</g>
<g>
</g>
<g>
</g>
<g>
</g>
<g>
</g>
<g>
</g>
<g>
</g>
<g>
</g>
<g>
</g>
<g>
</g>
<g>
</g>
<g>
</g>
<g>
</g>
<g>
</g>
<g>
</g>
</svg>
