<?xml version="1.0" encoding="iso-8859-1"?>
<!-- Generator: Adobe Illustrator 18.0.0, SVG Export Plug-In . SVG Version: 6.00 Build 0)  -->
<!DOCTYPE svg PUBLIC "-//W3C//DTD SVG 1.1//EN" "http://www.w3.org/Graphics/SVG/1.1/DTD/svg11.dtd">
<svg version="1.1" id="Capa_1" xmlns="http://www.w3.org/2000/svg" xmlns:xlink="http://www.w3.org/1999/xlink" x="0px" y="0px"
	 viewBox="0 0 493.209 493.209" style="enable-background:new 0 0 493.209 493.209;" xml:space="preserve">
<g id="XMLID_459_">
	<path id="XMLID_460_" d="M306.197,171.463c16.848-19.345,14.815-48.639-4.514-65.484c-19.314-16.864-48.607-14.831-65.422,4.481
		c-16.814,19.281-14.831,48.605,4.481,65.453C260.009,192.745,289.365,190.746,306.197,171.463z"/>
	<path id="XMLID_461_" d="M258.591,275.674l-29.519,4.53l18.105,50.058l15.395-2.37l128.055,19.604
		c14.17,2.162,27.567-7.607,29.744-21.859c2.176-14.235-7.611-27.568-21.86-29.762l-132.004-20.2
		C263.896,275.271,261.219,275.271,258.591,275.674z"/>
	<path id="XMLID_462_" d="M475.797,363.843H239.535l-25.279-73.417l10.852-48.672l1.966,26.23l16.072-18.444
		c13.769-15.797,12.156-39.773-3.674-53.555l-12.189-10.656c-15.799-13.769-39.789-12.188-53.621,3.659l-77.399,88.83
		c-14.106,16.186-15.01,40.886,4.094,59.616c24.408,23.813,59.185,6.338,59.185,6.338c-14.64-40.434-11.657-32.227-16.251-44.834
		c-1.999-5.546-1.29-11.48,1.353-16.236l29.487-52.313l-12.479,56.102c-1.096,4.838-0.758,9.883,0.919,14.558l22.731,62.794H17.411
		C7.787,363.843,0,371.628,0,381.255c0,9.623,7.787,17.41,17.411,17.41h458.386c9.624,0,17.412-7.787,17.412-17.41
		C493.209,371.628,485.421,363.843,475.797,363.843z"/>
</g>
<g>
</g>
<g>
</g>
<g>
</g>
<g>
</g>
<g>
</g>
<g>
</g>
<g>
</g>
<g>
</g>
<g>
</g>
<g>
</g>
<g>
</g>
<g>
</g>
<g>
</g>
<g>
</g>
<g>
</g>
</svg>
