<?xml version="1.0" encoding="iso-8859-1"?>
<!-- Generator: Adobe Illustrator 18.0.0, SVG Export Plug-In . SVG Version: 6.00 Build 0)  -->
<!DOCTYPE svg PUBLIC "-//W3C//DTD SVG 1.1//EN" "http://www.w3.org/Graphics/SVG/1.1/DTD/svg11.dtd">
<svg version="1.1" id="Capa_1" xmlns="http://www.w3.org/2000/svg" xmlns:xlink="http://www.w3.org/1999/xlink" x="0px" y="0px"
	 viewBox="0 0 487.037 487.037" style="enable-background:new 0 0 487.037 487.037;" xml:space="preserve">
<g id="XMLID_528_">
	<path id="XMLID_529_" d="M232.213,73.446c-20.018,0.764-35.645,17.608-34.881,37.625c0.738,20.036,17.59,35.663,37.609,34.906
		c20.026-0.738,35.668-17.591,34.913-37.609C269.1,88.335,252.256,72.716,232.213,73.446z"/>
	<path id="XMLID_530_" d="M400.151,171.881c-3.085-11.056-14.538-17.541-25.595-14.441l-21.016,5.853
		c-17.688,17.689-39.671,33.843-62.782,49.413l18.225,3.758c3.368,0.69,6.713,0.527,9.782-0.332l66.945-18.655
		C396.766,194.399,403.235,182.937,400.151,171.881z"/>
	<path id="XMLID_531_" d="M344.763,364.838c-12.729,6.851-25.352,12.193-37.755,16.438l-3.604-31.724
		c-0.364-3.263-1.379-6.431-2.979-9.294l-28.306-50.932l-2.346-62.74c-26.221,17.095-51.385,33.63-73.976,51.294l0.641,17.233
		c-2.257,5.195-11.626,67.563-12.519,73.156l-7.02,14.515c-16.154-6.429-28.68-15.18-35.944-25.01
		c-10.457-14.141-10.782-30.246-1.641-46.693c45.281-81.291,261.834-137.294,234.56-249.821
		c-2.402-9.912-6.908-18.588-13.289-26.123C334.811,4.715,277.136-6.268,190.951,3.423C137.05,9.48,96.421,54.889,96.437,109.058
		l0.017,35.094c-10.968,6.502-12.995,19.653-7.087,28.956l7.104,11.17v10.479c0,6.885,5.584,12.46,12.469,12.46c0,0,0,0,0.008,0
		c0.656,0,1.225-0.276,1.858-0.372l14.555,22.907c5.723,8.986,15.69,12.581,29.548,6.209
		c33.396-26.796,71.613-50.086,104.246-72.222c-6.039-1.25-12.947-1.907-17.177-1.957c-6.468-0.316-14.1-0.073-19.247,0.121
		c-3.109,0.115-8.044,0.861-14.904,3.962l-57.115,26.277l-26.26-41.326c-0.828-1.3-2.022-2.137-3.061-3.191l-0.017-38.583
		c-0.016-41.449,31.09-76.209,72.353-80.844c44.557-5.009,115.415-7.729,144.209,19.49c5.626,5.309,9.806,11.64,11.698,19.451
		c21.122,87.093-178.386,144.193-229.99,228.405c-15.999,26.091-16.04,53.642,1.251,77.045
		c10.17,13.775,25.773,24.994,45.028,32.892l-22.122,45.752c-5.99,12.395-0.802,27.307,11.601,33.307
		c12.421,5.998,27.3,0.819,33.307-11.601l26.911-55.646c15.009,1.436,28.208,1.412,45.24-0.422l5.463,48.031
		c1.582,13.913,14.213,23.549,27.591,21.958c13.688-1.55,23.518-13.905,21.959-27.591l-5.991-52.693
		c15.538-4.919,31.203-11.444,46.692-19.773c6.072-3.264,8.345-10.821,5.081-16.893
		C358.386,363.855,350.837,361.614,344.763,364.838z M227.301,393.135c2.321-4.804,4.546-8.653,5.3-13.393l7.282-45.76
		l14.531,26.147l3.645,32.105C247.367,393.371,237.084,393.622,227.301,393.135z"/>
</g>
<g>
</g>
<g>
</g>
<g>
</g>
<g>
</g>
<g>
</g>
<g>
</g>
<g>
</g>
<g>
</g>
<g>
</g>
<g>
</g>
<g>
</g>
<g>
</g>
<g>
</g>
<g>
</g>
<g>
</g>
</svg>
