<?xml version="1.0" encoding="iso-8859-1"?>
<!-- Generator: Adobe Illustrator 18.0.0, SVG Export Plug-In . SVG Version: 6.00 Build 0)  -->
<!DOCTYPE svg PUBLIC "-//W3C//DTD SVG 1.1//EN" "http://www.w3.org/Graphics/SVG/1.1/DTD/svg11.dtd">
<svg version="1.1" id="Capa_1" xmlns="http://www.w3.org/2000/svg" xmlns:xlink="http://www.w3.org/1999/xlink" x="0px" y="0px"
	 viewBox="0 0 493.417 493.417" style="enable-background:new 0 0 493.417 493.417;" xml:space="preserve">
<g id="XMLID_491_">
	<path id="XMLID_492_" d="M223.356,205.819c20.135-6.979,33.16-27.366,30.005-49.222c-3.675-25.579-28.637-44.53-56.501-37.151
		l4.273,39.439L223.356,205.819z"/>
	<path id="XMLID_493_" d="M472.823,385.862L334.19,357.994c-1.671-0.333-3.355-0.5-5.06-0.5h-44.863l-13.776-95.823L320.6,83.95
		c3.205-11.355-3.406-23.16-14.778-26.365c-11.339-3.223-23.159,3.406-26.365,14.777l-16.846,59.773
		c3.823,6.662,6.528,14.059,7.681,22.023c2.371,16.515-1.822,32.958-11.821,46.316c-4.576,6.094-10.203,11.071-16.446,15.062
		c-30.873,4.441-9.601,1.403-30.873,4.441l-26.715-56.384L174.92,75.85c-1.286-11.754-12.04-20.135-23.562-18.951
		c-11.738,1.285-20.219,11.82-18.951,23.561l9.919,91.332c0.267,2.369,0.919,4.691,1.938,6.846l26.798,56.584
		c11.338,73.051,6.311,40.642,18.435,118.815c7.479,0.568,40.339,2.439,46.683,4.81l-100.781,5.477
		c-1.137,0.066-2.271,0.201-3.389,0.417L20.874,385.811c-13.926,2.637-23.059,16.063-20.42,29.972
		c2.606,13.741,15.811,23.041,29.971,20.419l109.463-20.756c146.434-7.928,108.264-6.659,186.689-6.659l136.13,27.366
		c14.157,2.771,27.449-6.41,30.203-20.086C495.699,402.174,486.7,388.651,472.823,385.862z"/>
</g>
<g>
</g>
<g>
</g>
<g>
</g>
<g>
</g>
<g>
</g>
<g>
</g>
<g>
</g>
<g>
</g>
<g>
</g>
<g>
</g>
<g>
</g>
<g>
</g>
<g>
</g>
<g>
</g>
<g>
</g>
</svg>
