<?xml version="1.0" encoding="iso-8859-1"?>
<!-- Generator: Adobe Illustrator 18.0.0, SVG Export Plug-In . SVG Version: 6.00 Build 0)  -->
<!DOCTYPE svg PUBLIC "-//W3C//DTD SVG 1.1//EN" "http://www.w3.org/Graphics/SVG/1.1/DTD/svg11.dtd">
<svg version="1.1" id="Capa_1" xmlns="http://www.w3.org/2000/svg" xmlns:xlink="http://www.w3.org/1999/xlink" x="0px" y="0px"
	 viewBox="0 0 494.175 494.175" style="enable-background:new 0 0 494.175 494.175;" xml:space="preserve">
<g id="XMLID_137_">
	<path id="XMLID_138_" d="M339.164,85.428c-11.171-8.077-26.827-5.587-34.913,5.596l-11.6,16.025
		c7.891,12.763,18.29,26.736,31.765,41.375l20.342-28.085C352.854,109.156,350.344,93.522,339.164,85.428z"/>
	<path id="XMLID_139_" d="M276.685,200.063c-11.68-12.314-22.527-25.478-32.157-39.021l-40.524,20.525
		c-9.19,4.65-17.685,10.548-25.264,17.53l-72.547,66.814l-67.82,12.432c-13.574,2.49-22.567,15.517-20.077,29.1
		c2.207,12.051,12.723,20.487,24.559,20.487c1.494,0,3.018-0.125,4.542-0.409l74.998-13.75c4.688-0.859,9.032-3.038,12.52-6.29
		l36.053-33.543l55.974,65.175l-33.164,29.305l-93.581-25.995c-15.897-4.366-32.479,4.901-36.933,20.88
		c-4.432,15.965,4.912,32.499,20.879,36.931l109.274,30.351c2.646,0.732,5.34,1.093,8.027,1.093c7.227,0,14.314-2.617,19.863-7.52
		l87.585-77.41l42.577,4.698l16.708,116.968c2.14,14.969,14.971,25.771,29.657,25.761c1.416,0,2.842-0.098,4.278-0.302
		c16.405-2.344,27.803-17.54,25.46-33.934l-20-139.997c-1.934-13.552-12.803-24.081-26.405-25.575l-79.96-8.818l-58.152-67.714
		l34.129-17.284C277.016,200.387,276.851,200.238,276.685,200.063z"/>
	<path id="XMLID_140_" d="M164.266,184.829c18.302-15.702,20.402-43.279,4.679-61.56c-15.711-18.29-43.261-20.372-61.581-4.668
		c-18.271,15.711-20.352,43.281-4.648,61.55C118.419,198.452,145.997,200.541,164.266,184.829z"/>
	<path id="XMLID_141_" d="M291.196,186.295c45.077,47.508,96.637,77.017,134.566,77.017c14.463,0,26.808-4.461,35.693-12.898
		c17.09-16.2,19.501-44.248,6.806-78.962c-11.2-30.615-33.191-64.158-61.913-94.421C361.263,29.521,309.692,0,271.763,0
		c-14.452,0-26.795,4.464-35.681,12.899C203.251,44.042,226.95,118.59,291.196,186.295z M256.726,34.656
		c3.261-3.086,8.319-4.657,15.037-4.657c24.2,0,68.466,20.927,112.829,67.674c25.967,27.364,45.672,57.225,55.496,84.089
		c8.096,22.12,8.36,39.647,0.724,46.893c-15.009,14.169-71.169-3.271-127.858-63.006C255.924,105.545,241.773,48.846,256.726,34.656
		z"/>
</g>
<g>
</g>
<g>
</g>
<g>
</g>
<g>
</g>
<g>
</g>
<g>
</g>
<g>
</g>
<g>
</g>
<g>
</g>
<g>
</g>
<g>
</g>
<g>
</g>
<g>
</g>
<g>
</g>
<g>
</g>
</svg>
