<?xml version="1.0" encoding="iso-8859-1"?>
<!-- Generator: Adobe Illustrator 18.0.0, SVG Export Plug-In . SVG Version: 6.00 Build 0)  -->
<!DOCTYPE svg PUBLIC "-//W3C//DTD SVG 1.1//EN" "http://www.w3.org/Graphics/SVG/1.1/DTD/svg11.dtd">
<svg version="1.1" id="Capa_1" xmlns="http://www.w3.org/2000/svg" xmlns:xlink="http://www.w3.org/1999/xlink" x="0px" y="0px"
	 viewBox="0 0 491.832 491.832" style="enable-background:new 0 0 491.832 491.832;" xml:space="preserve">
<g id="XMLID_117_">
	<path id="XMLID_118_" d="M50.562,94.218c19.497-7.148,29.504-28.764,22.339-48.251c-7.165-19.497-28.764-29.48-48.276-22.331
		C5.145,30.803-4.847,52.41,2.32,71.887C9.469,91.394,31.084,101.383,50.562,94.218z"/>
	<path id="XMLID_119_" d="M451.463,26.564c-20.674,0-37.53,15.603-39.893,35.644C229.06,93.646,259.903,88.331,230.137,93.453
		c-5.652-2.112-12.061-2.069-17.771,1.051l-76.797,41.994L74.575,122.89l51.85-1.026l77.672-42.473
		c6.594-3.608,13.776-4.988,20.767-4.584c-0.505-2.792-1.557-5.534-3.229-8.049c-6.593-9.908-19.95-12.607-29.849-6.013
		l-55.686,37.006c-7.209,0.858-65.132,7.124-71.247,9.581c-6.687,0.613-14.366,3.986-21.202,6.492
		c-16.787,6.173-25.4,24.761-19.235,41.556l35.971,97.925l-10.361,89.984L8.561,433.913c-5.93,12.977-0.227,28.31,12.751,34.248
		c12.994,5.929,28.302,0.236,34.248-12.75l43.162-94.352c1.129-2.463,1.858-5.097,2.17-7.796l7.88-68.411l32.431,48.806
		l-0.158,110.153c-0.018,14.264,11.53,25.854,25.802,25.872c0.009,0,0.035,0,0.035,0c14.255,0,25.819-11.547,25.837-25.805
		l0.166-117.966c0.009-5.096-1.497-10.085-4.314-14.331l-51.59-77.655l-15.054-40.993l-56.722-28.007l68.9,15.366
		c4.963,1.109,10.322,0.437,15.013-2.127l83.904-45.879c5.878-3.213,9.361-8.814,10.529-14.912
		c32.643-5.619,138.431-23.853,173.351-29.866c7.049,11.807,19.815,19.798,34.56,19.798c22.295,0,40.369-18.075,40.369-40.372
		C491.832,44.638,473.758,26.564,451.463,26.564z"/>
</g>
<g>
</g>
<g>
</g>
<g>
</g>
<g>
</g>
<g>
</g>
<g>
</g>
<g>
</g>
<g>
</g>
<g>
</g>
<g>
</g>
<g>
</g>
<g>
</g>
<g>
</g>
<g>
</g>
<g>
</g>
</svg>
