<?xml version="1.0" encoding="iso-8859-1"?>
<!-- Generator: Adobe Illustrator 18.0.0, SVG Export Plug-In . SVG Version: 6.00 Build 0)  -->
<!DOCTYPE svg PUBLIC "-//W3C//DTD SVG 1.1//EN" "http://www.w3.org/Graphics/SVG/1.1/DTD/svg11.dtd">
<svg version="1.1" id="Capa_1" xmlns="http://www.w3.org/2000/svg" xmlns:xlink="http://www.w3.org/1999/xlink" x="0px" y="0px"
	 viewBox="0 0 492.336 492.336" style="enable-background:new 0 0 492.336 492.336;" xml:space="preserve">
<g id="XMLID_74_">
	<path id="XMLID_75_" d="M385.352,259.579l-12.549-10.323l16.605,33.497C393.707,275.085,392.383,265.346,385.352,259.579z"/>
	<path id="XMLID_76_" d="M292.791,109.144c19.305,14.682,46.882,10.917,61.563-8.399c14.683-19.33,10.901-46.889-8.424-61.571
		c-19.323-14.673-46.881-10.909-61.545,8.415C269.702,66.919,273.467,94.47,292.791,109.144z"/>
	<path id="XMLID_77_" d="M491.904,436.782c-2.098-9.491-11.501-15.421-21.008-13.35l-8.769,1.96
		c-11.448,2.579-23.122-3.018-28.331-13.521l-53.483-107.835c-6.292,11.373-17.999,17.956-30.326,18.094l52.28,105.393
		c10.418,20.983,31.58,33.696,54.256,33.696c8.254,0,13.824-1.59,22.041-3.42C488.055,455.684,494.037,446.273,491.904,436.782z"/>
	<path id="XMLID_78_" d="M318.649,219.334c-4.196,2.07-7.101,5.63-8.598,9.686l43.357,20.803l-11.176-22.539
		C337.936,218.559,327.328,215.011,318.649,219.334z"/>
	<path id="XMLID_79_" d="M366.304,295.054c4.417-9.205,0.53-20.243-8.667-24.662l-76.828-36.85l-1.186-94.012
		c10.436,60.79,7.358,42.857,13.993,81.608l0.586,0.283c3.162-7.478,8.783-13.96,16.624-17.854c2.974-1.469,6.069-2.329,9.163-2.914
		c-14.957-58.108-13.395-66.798-27.766-77.723l-12.875-9.774c-16.539-12.575-40.332-9.429-53.004,7.246l-80.389,105.849
		c-1.528,2.021-2.56,4.237-3.438,6.491c0,0.025-0.018,0.042-0.033,0.068l-0.189,0.37l-57.3,116.439L9.061,415.791
		c-11.002,9.586-12.139,26.26-2.564,37.254c9.578,10.969,26.235,12.165,37.256,2.562l79.941-69.66
		c2.648-2.303,4.796-5.106,6.344-8.251l46.21-93.893l56.321,48.937l-26.613,95.903c-3.902,14.053,4.332,28.607,18.379,32.502
		c14.286,3.927,28.641-4.479,32.507-18.386l31.067-111.961c2.717-9.808-0.43-20.312-8.115-26.991
		c-31.357-27.257-23.053-20.038-50.577-43.96c-1.771-4.47-2.665-9.283-1.959-14.149l15.403-105.823l1.324,105.608
		c0.086,7.031,4.142,13.392,10.486,16.436l87.178,41.81C350.897,308.163,361.936,304.201,366.304,295.054z"/>
</g>
<g>
</g>
<g>
</g>
<g>
</g>
<g>
</g>
<g>
</g>
<g>
</g>
<g>
</g>
<g>
</g>
<g>
</g>
<g>
</g>
<g>
</g>
<g>
</g>
<g>
</g>
<g>
</g>
<g>
</g>
</svg>
