<?xml version="1.0" encoding="iso-8859-1"?>
<!-- Generator: Adobe Illustrator 18.0.0, SVG Export Plug-In . SVG Version: 6.00 Build 0)  -->
<!DOCTYPE svg PUBLIC "-//W3C//DTD SVG 1.1//EN" "http://www.w3.org/Graphics/SVG/1.1/DTD/svg11.dtd">
<svg version="1.1" id="Capa_1" xmlns="http://www.w3.org/2000/svg" xmlns:xlink="http://www.w3.org/1999/xlink" x="0px" y="0px"
	 viewBox="0 0 489.687 489.687" style="enable-background:new 0 0 489.687 489.687;" xml:space="preserve">
<g id="XMLID_170_">
	<path id="XMLID_171_" d="M332.861,178.459c3.207-0.357,6.279-1.475,8.972-3.263l56.456-37.516
		c9.319-6.191,11.86-18.773,5.661-28.102c-6.192-9.327-18.782-11.854-28.102-5.661l-52.362,34.8
		c-6.881,0.767-63.63,6.199-69.331,9.264c-7.697,1.25-22.441,6.658-30.398,14.077l-45.054,41.611l-17.76-14.664l53.115-38.032
		c-8.347-2.865-15.766-7.869-21.648-14.409l-50.962,36.479c-8.622-6.77-21.078-5.551-28.109,2.953
		c-4.671,5.661-5.416,13.003-3.183,19.455l-22.725,16.271c-5.464,3.911-6.723,11.505-2.811,16.969
		c3.912,5.463,11.505,6.724,16.969,2.812l25.243-18.078l39.718,32.78c7.886,6.51,19.273,6.074,26.66-0.735l33.105-30.58
		l25.829,70.313l-9.756,84.715l-39.035,85.318c-5.582,12.218-0.214,26.652,12.003,32.242c12.233,5.583,26.645,0.222,32.242-12.003
		l40.637-88.827c1.061-2.319,1.75-4.798,2.043-7.339l7.419-64.406l30.532,45.948l-0.151,103.703
		c-0.016,13.431,10.856,24.341,24.3,24.357c0,0,0.016,0,0.024,0c13.42,0,24.308-10.872,24.325-24.293l0.159-111.06
		c0.008-4.799-1.41-9.493-4.062-13.492l-48.57-73.108l-30.88-84.099L332.861,178.459z"/>
	<path id="XMLID_172_" d="M282.177,102.206l111.97-80.162c5.463-3.913,6.724-11.506,2.813-16.969
		c-3.905-5.463-11.506-6.7-16.969-2.812L275.677,76.948c1.338,2.367,2.51,4.854,3.467,7.459
		C281.275,90.203,282.17,96.213,282.177,102.206z"/>
	<path id="XMLID_173_" d="M242.897,135.43c18.353-6.729,27.777-27.08,21.031-45.425c-6.716-18.285-26.986-27.769-45.451-21.024
		c-18.338,6.746-27.745,27.088-20.999,45.427C204.208,132.771,224.557,142.178,242.897,135.43z"/>
</g>
<g>
</g>
<g>
</g>
<g>
</g>
<g>
</g>
<g>
</g>
<g>
</g>
<g>
</g>
<g>
</g>
<g>
</g>
<g>
</g>
<g>
</g>
<g>
</g>
<g>
</g>
<g>
</g>
<g>
</g>
</svg>
