<?xml version="1.0" encoding="iso-8859-1"?>
<!-- Generator: Adobe Illustrator 18.0.0, SVG Export Plug-In . SVG Version: 6.00 Build 0)  -->
<!DOCTYPE svg PUBLIC "-//W3C//DTD SVG 1.1//EN" "http://www.w3.org/Graphics/SVG/1.1/DTD/svg11.dtd">
<svg version="1.1" id="Capa_1" xmlns="http://www.w3.org/2000/svg" xmlns:xlink="http://www.w3.org/1999/xlink" x="0px" y="0px"
	 viewBox="0 0 492.612 492.612" style="enable-background:new 0 0 492.612 492.612;" xml:space="preserve">
<g id="XMLID_399_">
	<path id="XMLID_400_" d="M460.654,246.387c-3.56,3.574-8.305,5.531-13.357,5.531h-0.015c-5.053,0-9.813-1.973-13.404-5.547
		c-18.73-18.746-51.392-19.564-71.084-2.006l-2.166,2.036c-7.056,7.072-19.578,7.105-26.763-0.03
		c-20.188-20.188-53.027-20.172-73.246,0.03c-7.218,7.2-18.857,7.392-26.283,0.466l-0.498-0.496
		c-9.795-9.782-22.785-15.168-36.607-15.168c-0.016,0-0.016,0-0.016,0c-13.838,0.014-26.843,5.402-37.233,15.809
		c-6.703,6.701-18.792,6.75-25.561-0.049c-19.867-19.801-52.162-19.818-72.029,0.049c-4.056,4.057-9.445,6.301-15.201,6.301
		s-11.16-2.244-15.232-6.316c-6.414-6.416-16.805-6.416-23.219,0c-6.415,6.396-6.415,16.803,0,23.219
		c10.262,10.277,23.924,15.938,38.451,15.938h0.016c14.529,0,28.174-5.676,38.453-15.953c7.039-7.025,18.504-7.025,25.574,0.03
		c19.211,19.21,52.131,19.835,72.592-0.625c7.007-7.022,19.146-7.167,26.314-0.465l0.512,0.497
		c20.188,20.189,53.029,20.139,73.217-0.049c7.375-7.392,19.402-7.358,26.811,0.033c18.728,18.713,51.375,19.563,71.065,1.988
		l2.166-2.035c7.087-7.057,19.644-7.09,26.747,0.014c9.781,9.781,22.785,15.185,36.639,15.17c0,0,0,0,0.016,0
		c13.84,0,26.828-5.389,36.594-15.184c6.398-6.416,6.398-16.807-0.032-23.221C477.458,239.973,467.068,239.941,460.654,246.387z"/>
	<path id="XMLID_401_" d="M460.654,328.487c-3.56,3.574-8.305,5.531-13.357,5.531h-0.015c-5.053,0-9.813-1.972-13.404-5.548
		c-18.73-18.745-51.392-19.563-71.084-2.005l-2.166,2.037c-7.056,7.088-19.578,7.119-26.763-0.032
		c-20.188-20.189-53.027-20.173-73.246,0.032c-7.218,7.199-18.857,7.391-26.283,0.465l-0.498-0.497
		c-9.795-9.78-22.785-15.169-36.607-15.169c-0.016,0-0.016,0-0.016,0c-13.838,0.016-26.843,5.404-37.233,15.809
		c-6.703,6.703-18.792,6.753-25.561-0.047c-19.867-19.787-52.162-19.835-72.029,0.047c-4.056,4.058-9.445,6.303-15.201,6.303
		s-11.16-2.245-15.232-6.316c-6.414-6.416-16.805-6.416-23.219,0c-6.415,6.396-6.415,16.805,0,23.217
		c10.262,10.279,23.924,15.939,38.451,15.939h0.016c14.529,0,28.174-5.677,38.453-15.954c7.039-7.024,18.504-7.042,25.574,0.03
		c19.211,19.211,52.131,19.836,72.592-0.623c7.007-7.024,19.146-7.185,26.314-0.467l0.512,0.498
		c20.188,20.189,53.029,20.14,73.217-0.049c7.375-7.408,19.402-7.377,26.811,0.032c18.728,18.712,51.375,19.564,71.065,1.989
		l2.166-2.036c7.087-7.072,19.644-7.089,26.747,0.015c9.781,9.781,22.785,15.185,36.639,15.17c0,0,0,0,0.016,0
		c13.84,0,26.828-5.389,36.594-15.185c6.398-6.417,6.398-16.806-0.032-23.22C477.458,322.071,467.068,322.04,460.654,328.487z"/>
	<path id="XMLID_402_" d="M460.654,410.586c-3.56,3.574-8.305,5.531-13.357,5.531h-0.015c-5.053,0-9.813-1.973-13.404-5.549
		c-18.73-18.744-51.392-19.578-71.084-2.004l-2.166,2.035c-7.056,7.072-19.578,7.119-26.763-0.031
		c-20.188-20.188-53.027-20.171-73.246,0.031c-7.218,7.199-18.857,7.393-26.283,0.467l-0.498-0.498
		c-9.795-9.781-22.785-15.168-36.607-15.168c-0.016,0-0.016,0-0.016,0c-13.838,0.014-26.843,5.402-37.233,15.809
		c-6.703,6.703-18.792,6.752-25.561-0.047c-19.867-19.803-52.162-19.818-72.029,0.047c-4.056,4.058-9.445,6.303-15.201,6.303
		s-11.16-2.244-15.232-6.316c-6.414-6.416-16.805-6.416-23.219,0c-6.415,6.396-6.415,16.803,0,23.217
		c10.262,10.279,23.924,15.939,38.451,15.939h0.016c14.529,0,28.174-5.678,38.453-15.953c7.039-7.025,18.504-7.041,25.574,0.031
		c19.211,19.209,52.131,19.835,72.592-0.627c7.007-7.023,19.146-7.184,26.314-0.464l0.512,0.497
		c20.188,20.188,53.029,20.139,73.217-0.05c7.375-7.392,19.402-7.358,26.811,0.032c18.728,18.713,51.375,19.548,71.065,1.989
		l2.166-2.036c7.087-7.056,19.644-7.088,26.747,0.015c9.781,9.782,22.785,15.185,36.639,15.171c0,0,0,0,0.016,0
		c13.84,0,26.828-5.389,36.594-15.185c6.398-6.414,6.398-16.806-0.032-23.219C477.458,404.17,467.068,404.14,460.654,410.586z"/>
	<path id="XMLID_403_" d="M481.148,42.26H423.63c-24.165,0-44.368,15.908-51.359,37.746H120.359
		C113.368,58.182,93.148,42.26,69,42.26H11.467C5.131,42.26,0,47.391,0,53.725v85.402c0,6.335,5.131,11.466,11.467,11.466H69
		c24.165,0,44.368-15.907,51.359-37.748h251.911c6.991,21.841,27.194,37.748,51.359,37.748h57.518
		c6.332,0,11.464-5.131,11.464-11.466V53.725C492.612,47.391,487.48,42.26,481.148,42.26z"/>
</g>
<g>
</g>
<g>
</g>
<g>
</g>
<g>
</g>
<g>
</g>
<g>
</g>
<g>
</g>
<g>
</g>
<g>
</g>
<g>
</g>
<g>
</g>
<g>
</g>
<g>
</g>
<g>
</g>
<g>
</g>
</svg>
