<?xml version="1.0" encoding="iso-8859-1"?>
<!-- Generator: Adobe Illustrator 18.0.0, SVG Export Plug-In . SVG Version: 6.00 Build 0)  -->
<!DOCTYPE svg PUBLIC "-//W3C//DTD SVG 1.1//EN" "http://www.w3.org/Graphics/SVG/1.1/DTD/svg11.dtd">
<svg version="1.1" id="Capa_1" xmlns="http://www.w3.org/2000/svg" xmlns:xlink="http://www.w3.org/1999/xlink" x="0px" y="0px"
	 viewBox="0 0 494.685 494.685" style="enable-background:new 0 0 494.685 494.685;" xml:space="preserve">
<g id="XMLID_13_">
	<path id="XMLID_14_" d="M242.846,163.953c18.395,14.939,45.607,12.216,60.659-6.347c14.986-18.508,12.145-45.673-6.347-60.668
		c-18.59-15.043-45.722-12.112-60.678,6.347C221.479,121.793,224.322,148.933,242.846,163.953z"/>
	<path id="XMLID_15_" d="M489.925,445.845c-6.347-6.347-16.632-6.338-22.997-0.008c-0.111,0.113-0.29,0.146-0.403,0.258
		L378.991,191.36c8.461-4.314,13.26-13.826,10.564-23.33c-2.925-10.246-13.212-16.134-23.435-14.146L319.187,17.326
		c-2.164-6.372-9.108-9.699-15.504-7.575c-6.363,2.189-9.754,9.133-7.558,15.497l5.053,14.728c-3.341,1.139-6.523,2.834-8.994,5.726
		L270.527,71.09c13.355,0.113,26.438,4.764,36.853,13.21c1.066,0.873,1.891,1.93,2.891,2.851l5.089-5.952
		c43.087,125.365-12.273-35.644,27.149,79.032c-33.885,9.6-14.278,4.045-92.396,26.17c-0.113-0.049-0.242-0.129-0.371-0.179
		c-2.165-3.39-4.716-6.532-7.897-9.109l-11.968-9.714c-3.1-2.502-6.524-4.255-10.044-5.611c-4.184-6.719-6.93-14.066-8.188-21.73
		l-18.509,21.705c-5.862,2.246-11.271,5.879-15.52,11.103l-69.915,86.257c-12.968,16.005-12.84,40.739,5.022,56.349l17.96,50.961
		H84.607c-13.469,0-24.403,10.917-24.403,24.403c0,13.468,10.935,24.386,24.403,24.386h80.54c16.781,0,28.603-16.594,23.015-32.494
		l-19.477-55.307l56.606,4.328l-13.212,55.638c-3.101,13.114,4.991,26.252,18.106,29.37c13.146,3.124,26.26-5.008,29.375-18.105
		l19.784-83.415c1.633-6.936,0.163-14.252-4.054-20.017c-4.199-5.758-10.708-9.392-17.811-9.941l-53.185-4.054l42.767-51.551
		c0.049-0.064,0.081-0.137,0.13-0.194l108.559-30.742l85.451,248.679c-0.791-0.565-1.712-0.873-2.406-1.575
		c-19.8-19.8-54.362-19.8-74.128,0c-7.545,7.533-20.641,7.542-28.166,0.007c-20.431-20.438-53.683-20.454-74.21,0.033
		c-7.414,7.436-20.625,7.454-28.086-0.033c-19.8-19.798-53.697-20.446-74.79,0.647c-7.171,7.162-19.671,7.171-26.81,0.008
		c-21.98-20.776-54.959-18.056-72.934-0.039c-8.785,8.776-23.096,8.81-31.914,0c-6.36-6.332-16.648-6.339-22.996,0.006
		c-6.349,6.347-6.349,16.652,0,23.007c10.723,10.731,24.84,16.093,38.938,16.093c14.099,0,28.215-5.37,38.97-16.109
		c6.654-6.678,18.411-8.092,28.167,1.26c19.524,18.281,51.938,18.435,72.223-1.874c7.542-7.509,20.623-7.509,28.133,0
		c19.688,19.687,54.476,19.703,74.162-0.016c7.767-7.76,20.38-7.728,28.149,0.016c19.783,19.807,54.313,19.815,74.144-0.008
		c7.544-7.527,20.625-7.527,28.134,0c19.785,19.793,54.314,19.832,74.145,0.008C496.272,462.504,496.272,452.199,489.925,445.845z"
		/>
</g>
<g>
</g>
<g>
</g>
<g>
</g>
<g>
</g>
<g>
</g>
<g>
</g>
<g>
</g>
<g>
</g>
<g>
</g>
<g>
</g>
<g>
</g>
<g>
</g>
<g>
</g>
<g>
</g>
<g>
</g>
</svg>
