<?xml version="1.0" encoding="iso-8859-1"?>
<!-- Generator: Adobe Illustrator 18.0.0, SVG Export Plug-In . SVG Version: 6.00 Build 0)  -->
<!DOCTYPE svg PUBLIC "-//W3C//DTD SVG 1.1//EN" "http://www.w3.org/Graphics/SVG/1.1/DTD/svg11.dtd">
<svg version="1.1" id="Capa_1" xmlns="http://www.w3.org/2000/svg" xmlns:xlink="http://www.w3.org/1999/xlink" x="0px" y="0px"
	 viewBox="0 0 488.515 488.515" style="enable-background:new 0 0 488.515 488.515;" xml:space="preserve">
<g id="XMLID_629_">
	<path id="XMLID_630_" d="M38.334,100.57l46.378,31.879c19.467,13.37,44.569,11.754,62.292-1.971l2.205,1.532l-57.456,66.193
		c-4.021,4.65-5.701,10.869-4.554,16.907l14.307,75.138c1.002,5.28,0.106,10.723-2.512,15.39l-61.92,110.163
		c2.123,1.309,4.175,2.809,6.072,4.555c14.017-13.387,32.329-20.719,51.764-20.719c18.303,0,35.598,6.508,49.251,18.441
		c1.316-1.164,2.826-1.987,4.207-3.053l29.293-52.127c3.625-6.443,10.156-10.707,17.513-11.465l74.548-7.59
		c5.522-0.549,10.577-3.389,13.936-7.815l55.817-73.28l10.601,7.266c-6.459,21.479,1.019,45.522,20.501,58.893l46.361,31.878
		c5.104,3.521,12.087,2.212,15.592-2.891l47.322-68.856c3.504-5.103,2.213-12.08-2.898-15.6l-46.378-31.878
		c-11.57-7.96-25.837-10.98-39.653-8.429c-8.381,1.551-16.026,5.281-22.647,10.415L165.196,104.008
		c2.422-8.007,3.165-16.502,1.605-24.882c-2.558-13.823-10.504-26.064-22.091-34.011L98.332,13.241
		c-5.103-3.504-12.086-2.212-15.592,2.893L35.443,84.989C31.939,90.075,33.231,97.067,38.334,100.57z"/>
	<path id="XMLID_631_" d="M483.8,437.988c-6.289-6.264-16.456-6.297-22.712,0.001c-3.697,3.697-8.623,5.715-13.864,5.715h-0.008
		c-5.246,0-10.189-2.018-13.912-5.749c-19.586-19.553-53.652-19.52-73.215,0.051c-7.436,7.445-20.34,7.436-27.792-0.008
		c-19.555-19.57-53.596-19.642-73.232-0.007c-3.697,3.7-8.624,5.713-13.903,5.713c0,0-0.008,0-0.025,0
		c-5.054,0-9.818-1.88-13.484-5.368l-0.355-0.351c-19.572-19.588-53.07-20.159-73.862,0.656c-7.04,7.01-19.499,7.015-26.532-0.009
		c-19.231-19.233-52.756-19.247-71.997,0.003c-8.405,8.412-23.084,8.413-31.497,0.001c-6.272-6.268-16.431-6.267-22.704,0.001
		c-6.273,6.281-6.273,16.438,0,22.718c10.602,10.595,24.529,15.89,38.458,15.89c13.928,0,27.856-5.295,38.457-15.89
		c7.097-7.106,19.441-7.106,26.571,0c19.113,19.071,52.24,19.735,72.61-0.63c7.251-7.283,20.032-7.396,27.453-0.322l0.355,0.254
		c9.77,9.77,22.736,15.046,36.502,15.046c0.033,0,0.057,0,0.088,0c13.832,0,26.822-5.277,36.608-15.08
		c7.436-7.445,20.347-7.395,27.775,0.051c19.58,19.572,53.662,19.615,73.216,0.043c7.444-7.444,20.364-7.508,27.8-0.097
		c9.786,9.785,22.785,15.083,36.609,15.083c0.015,0,0.023,0,0.023,0c13.839,0,26.831-5.301,36.593-15.086
		C490.091,454.336,490.073,444.27,483.8,437.988z"/>
</g>
<g>
</g>
<g>
</g>
<g>
</g>
<g>
</g>
<g>
</g>
<g>
</g>
<g>
</g>
<g>
</g>
<g>
</g>
<g>
</g>
<g>
</g>
<g>
</g>
<g>
</g>
<g>
</g>
<g>
</g>
</svg>
