<?xml version="1.0" encoding="iso-8859-1"?>
<!-- Generator: Adobe Illustrator 18.0.0, SVG Export Plug-In . SVG Version: 6.00 Build 0)  -->
<!DOCTYPE svg PUBLIC "-//W3C//DTD SVG 1.1//EN" "http://www.w3.org/Graphics/SVG/1.1/DTD/svg11.dtd">
<svg version="1.1" id="Capa_1" xmlns="http://www.w3.org/2000/svg" xmlns:xlink="http://www.w3.org/1999/xlink" x="0px" y="0px"
	 viewBox="0 0 492.521 492.521" style="enable-background:new 0 0 492.521 492.521;" xml:space="preserve">
<g id="XMLID_21_">
	<path id="XMLID_22_" d="M129.203,209.45c23.716,0,42.938-19.22,42.938-42.937c0-23.717-19.222-42.945-42.938-42.945
		c-23.734,0-42.953,19.228-42.953,42.945C86.25,190.229,105.468,209.45,129.203,209.45z"/>
	<path id="XMLID_23_" d="M487.776,451.807c-6.325-6.318-16.567-6.31-22.892-0.008c-7.491,7.506-20.531,7.497-28.021,0.008
		c-15.368-15.377-39.587-18.589-58.904-9.983c-7.184-12.86-20.725-20.554-35.17-20.594l-47.193-137.596
		c3.931-3.356,6.682-8.113,7.117-13.67c0.906-11.147-7.408-20.902-18.557-21.808l-0.742-0.065l-8.623-25.116
		c4.676-4.288,7.279-10.638,5.904-17.31c-1.715-8.284-8.77-13.825-16.791-14.473l-22.699-66.136
		c5.176-3.826,9.527-8.72,12.408-14.608c4.725-9.643,5.435-20.773,1.94-30.924L231.497,9.438c-2.183-6.398-9.14-9.813-15.547-7.612
		l-53.421,18.307c-6.375,2.199-9.787,9.164-7.617,15.571l24.07,70.084c5.857,17.117,22.052,27.56,39.248,27.156l21.34,62.238
		l-123.035,25.552c-18.137,2.37-32.193,17.707-32.193,36.491v110.562c0,13.485,6.681,26.104,17.86,33.683
		c11.148,7.571,25.335,9.125,37.873,4.125l79.563-32.12l58.76,44.004c4.369,3.276,9.463,4.846,14.545,4.846
		c7.392,0,14.688-3.365,19.462-9.739c0.453-0.59,0.744-1.229,1.116-1.844l6.051,17.699c-3.787,2.661-7.086,5.889-9.691,9.593
		c-16.971-3.898-35.493,0.608-48.744,13.817c-7.379,7.402-20.515,7.418-27.955-0.032c-19.707-19.714-53.471-20.352-74.471,0.647
		c-7.135,7.126-19.576,7.135-26.709,0.008l-1.326-1.261c-19.397-18.128-52.482-17.602-71.281,1.221
		c-8.754,8.728-23.004,8.76-31.759,0c-6.325-6.31-16.567-6.319-22.891,0.008c-6.326,6.317-6.326,16.574,0,22.9
		c10.692,10.677,24.735,16.025,38.778,16.025c14.044,0,28.086-5.355,38.777-16.041c7.037-7.038,19.725-7.046,26.729-0.008
		l1.31,1.254c19.462,18.217,51.706,18.354,71.929-1.852c7.49-7.483,20.514-7.483,28.004,0c19.607,19.592,54.23,19.608,73.822-0.017
		c7.732-7.733,20.287-7.7,28.021,0.017c19.705,19.712,54.098,19.721,73.819-0.008c7.508-7.498,20.531-7.498,28.036,0
		c19.674,19.697,54.052,19.737,73.806,0.008C494.103,468.391,494.103,458.132,487.776,451.807z M256.994,245.964l-56.734-4.58
		l51.494-10.701L256.994,245.964z M237.937,326.499c-6.715-5.032-15.564-6.245-23.361-3.188l-41.838,16.325l0.664-59.812
		l97.926,7.913l29.428,85.801L237.937,326.499z"/>
</g>
<g>
</g>
<g>
</g>
<g>
</g>
<g>
</g>
<g>
</g>
<g>
</g>
<g>
</g>
<g>
</g>
<g>
</g>
<g>
</g>
<g>
</g>
<g>
</g>
<g>
</g>
<g>
</g>
<g>
</g>
</svg>
