<?xml version="1.0" encoding="iso-8859-1"?>
<!-- Generator: Adobe Illustrator 18.0.0, SVG Export Plug-In . SVG Version: 6.00 Build 0)  -->
<!DOCTYPE svg PUBLIC "-//W3C//DTD SVG 1.1//EN" "http://www.w3.org/Graphics/SVG/1.1/DTD/svg11.dtd">
<svg version="1.1" id="Capa_1" xmlns="http://www.w3.org/2000/svg" xmlns:xlink="http://www.w3.org/1999/xlink" x="0px" y="0px"
	 viewBox="0 0 492.594 492.594" style="enable-background:new 0 0 492.594 492.594;" xml:space="preserve">
<g id="XMLID_365_">
	<path id="XMLID_368_" d="M475.608,3.135c-9.388,0-16.985,7.596-16.985,16.985v305.6H339.721v-305.6
		c0-9.39-7.599-16.985-16.985-16.985c-9.389,0-16.986,7.596-16.986,16.985v305.6H186.847v-305.6c0-9.39-7.598-16.985-16.986-16.985
		s-16.986,7.596-16.986,16.985v305.6h-118.9v-305.6c0-9.39-7.6-16.985-16.988-16.985C7.598,3.135,0,10.731,0,20.121v452.352
		c0,9.388,7.598,16.986,16.985,16.986c9.389,0,16.988-7.599,16.988-16.986v-112.78h118.9v112.78c0,9.388,7.598,16.986,16.986,16.986
		s16.986-7.599,16.986-16.986v-112.78h118.902v112.78c0,9.388,7.598,16.986,16.986,16.986c9.387,0,16.985-7.599,16.985-16.986
		v-112.78h118.902v112.78c0,9.388,7.598,16.986,16.985,16.986s16.985-7.599,16.985-16.986V20.121
		C492.594,10.731,484.996,3.135,475.608,3.135z"/>
	<path id="XMLID_369_" d="M66.749,393.729c-1.658,0.781-2.57,2.605-2.172,4.397l1.658,7.579c0.266,1.179,1.029,2.157,2.107,2.688
		c1.078,0.531,2.338,0.531,3.416,0.017l12.375-5.89H84.4v59.967c0,5.507,4.478,9.985,9.984,9.985c5.509,0,9.986-4.478,9.986-9.985
		v-78.295H87.253L66.749,393.729z"/>
	<path id="XMLID_370_" d="M269.107,456.249h-24.782v-0.282l8.161-6.782c12.755-11.414,23.488-23.225,23.488-38.036
		c0-16.024-10.998-27.702-30.973-27.702c-10.214,0-19.24,2.984-25.807,6.999c-1.843,1.112-2.605,3.384-1.826,5.392l2.52,6.387
		c0.482,1.193,1.462,2.14,2.689,2.555c1.227,0.415,2.57,0.281,3.681-0.383c4.099-2.421,9.075-4.378,14.533-4.378
		c10.201,0,14.546,5.706,14.546,12.907c-0.282,10.316-9.652,20.235-28.929,37.487l-9.952,9.007c-0.93,0.828-1.46,2.023-1.46,3.268
		v6.104c0,2.455,1.973,4.43,4.43,4.43h49.681c4.692,0,8.494-3.8,8.494-8.477C277.601,460.049,273.799,456.249,269.107,456.249z"/>
	<path id="XMLID_371_" d="M414.946,425.479v-0.266c10.865-3.814,16.156-11.148,16.156-20.518c0-12.078-10.45-21.996-29.328-21.996
		c-7.993,0-15.576,1.607-21.23,3.715c-3.535,1.327-5.459,5.126-4.43,8.758c0.613,2.175,2.09,3.998,4.064,5.061
		c1.991,1.061,4.313,1.277,6.452,0.58c3.252-1.029,6.934-1.809,10.519-1.809c8.692,0,13.036,3.932,13.036,9.223
		c0,7.481-8.822,10.053-15.758,10.185h-0.613c-4.082,0-7.399,3.316-7.399,7.414c0,4.082,3.317,7.398,7.399,7.398h1.028
		c9.108,0,17.8,3.932,17.8,12.623c0,6.652-5.441,11.828-16.174,11.828c-4.181,0-8.376-0.878-11.978-1.991
		c-2.288-0.696-4.759-0.446-6.867,0.697c-2.089,1.161-3.632,3.118-4.261,5.425c-1.014,3.699,0.994,7.547,4.594,8.857
		c5.273,1.908,12.242,3.301,20.004,3.301c22.41,0,36.129-11.413,36.129-27.021C434.089,435.399,425.53,427.387,414.946,425.479z"/>
</g>
<g>
</g>
<g>
</g>
<g>
</g>
<g>
</g>
<g>
</g>
<g>
</g>
<g>
</g>
<g>
</g>
<g>
</g>
<g>
</g>
<g>
</g>
<g>
</g>
<g>
</g>
<g>
</g>
<g>
</g>
</svg>
