<?xml version="1.0" encoding="iso-8859-1"?>
<!-- Generator: Adobe Illustrator 18.0.0, SVG Export Plug-In . SVG Version: 6.00 Build 0)  -->
<!DOCTYPE svg PUBLIC "-//W3C//DTD SVG 1.1//EN" "http://www.w3.org/Graphics/SVG/1.1/DTD/svg11.dtd">
<svg version="1.1" id="Capa_1" xmlns="http://www.w3.org/2000/svg" xmlns:xlink="http://www.w3.org/1999/xlink" x="0px" y="0px"
	 viewBox="0 0 490.642 490.642" style="enable-background:new 0 0 490.642 490.642;" xml:space="preserve">
<g id="XMLID_182_">
	<path id="XMLID_183_" d="M473.723,365.947H16.919C7.575,365.947,0,373.521,0,382.866c0,9.342,7.575,16.918,16.919,16.918h456.804
		c9.342,0,16.918-7.576,16.918-16.918C490.642,373.521,483.065,365.947,473.723,365.947z"/>
	<path id="XMLID_184_" d="M490.642,298.272c0-9.344-7.577-16.918-16.918-16.918h-49.18c3.264,11.227,2.834,22.552-1.932,33.837
		h51.112C483.065,315.191,490.642,307.615,490.642,298.272z"/>
	<path id="XMLID_185_" d="M16.919,315.191h268.169l-52.482-19.959l-118.892-2.792c-11.476-0.266-21.85-4.461-30.195-11.086h-66.6
		C7.575,281.354,0,288.928,0,298.272C0,307.615,7.575,315.191,16.919,315.191z"/>
	<path id="XMLID_186_" d="M308.56,160.015c16.629-13.763,18.934-38.38,5.195-55.002C300,88.391,275.398,86.078,258.802,99.825
		c-16.604,13.73-18.951,38.348-5.196,54.969C267.327,171.399,291.962,173.729,308.56,160.015z"/>
	<path id="XMLID_187_" d="M37.58,199.603l93.747-35.573l49.739,14.365l-43.873-3.015l-33.831,12.837
		c-13.681,11.311-24.097,17.951-25.757,35.523c-2.255,23.859,19.785,42.94,36.703,43.329l123.248,2.891l129.392,49.203
		c13.128,5,27.766-1.619,32.739-14.695c4.981-13.102-1.595-27.756-14.697-32.74l-133.465-50.755
		c-2.693-1.024-5.544-1.586-8.427-1.652l-47.971-1.123c3.898-3.223,25.857-21.266,29.548-24.692
		c12.995-12.028,14.591-32.178,3.166-45.99l-9.138-11.062c-5.683-6.872-13.861-11.21-22.742-12.053
		c-6.964-0.66-13.87,0.943-19.853,4.371l16.697,8.98l-56.523-16.316c-4.386-1.264-9.079-1.073-13.366,0.546l-100.34,38.068
		c-10.921,4.146-16.414,16.356-12.274,27.277C14.44,198.214,26.591,203.758,37.58,199.603z"/>
</g>
<g>
</g>
<g>
</g>
<g>
</g>
<g>
</g>
<g>
</g>
<g>
</g>
<g>
</g>
<g>
</g>
<g>
</g>
<g>
</g>
<g>
</g>
<g>
</g>
<g>
</g>
<g>
</g>
<g>
</g>
</svg>
