<?xml version="1.0" encoding="iso-8859-1"?>
<!-- Generator: Adobe Illustrator 18.0.0, SVG Export Plug-In . SVG Version: 6.00 Build 0)  -->
<!DOCTYPE svg PUBLIC "-//W3C//DTD SVG 1.1//EN" "http://www.w3.org/Graphics/SVG/1.1/DTD/svg11.dtd">
<svg version="1.1" id="Capa_1" xmlns="http://www.w3.org/2000/svg" xmlns:xlink="http://www.w3.org/1999/xlink" x="0px" y="0px"
	 viewBox="0 0 491.307 491.307" style="enable-background:new 0 0 491.307 491.307;" xml:space="preserve">
<g id="XMLID_174_">
	<path id="XMLID_175_" d="M313.685,133.909c16.644-13.782,18.96-38.434,5.194-55.077c-13.764-16.643-38.398-18.959-55.027-5.193
		c-16.609,13.748-18.959,38.399-5.194,55.043C272.389,145.307,297.073,147.641,313.685,133.909z"/>
	<path id="XMLID_176_" d="M121.935,241.026c0,0,127.507-10.928,127.541-10.928l23.889,3.656l-44.851-18.331
		c-6.221-2.548-10.457-3.796-13.567-10.092l-28.755-58.204c-1.439-2.903-1.903-5.957-1.886-8.993
		c0.531,2.755,1.507,5.444,3.393,7.785l39.773,49.302c1.886,2.342,4.334,4.161,7.114,5.303l74.698,30.525
		c9.198,3.731,19.505-0.72,23.194-9.745c3.723-9.09-0.646-19.472-9.726-23.196l-70.465-28.787l-36.893-45.737
		c-1.986-2.465-4.567-3.995-7.314-5.096c3.193,0.62,6.255,1.845,8.817,3.888l23.51,18.703c-0.363-6.973-2.762-13.897-7.561-19.688
		l-9.148-11.076c-5.69-6.882-13.88-11.226-22.781-12.07c-8.884-0.835-17.735,1.886-24.618,7.578l-80.472,66.567
		c-15.935,13.203-18.166,36.794-4.981,52.728C97.463,233.102,110.815,241.829,121.935,241.026z"/>
	<path id="XMLID_177_" d="M334.249,243.078l43.628,6.685c13.731,2.109,26.818-7.314,28.953-21.276
		c2.133-13.873-7.396-26.844-21.276-28.97l-43.761-6.701c7.858,9.332,10.522,22.508,5.592,34.586
		C344.64,234.127,339.939,239.446,334.249,243.078z"/>
	<path id="XMLID_178_" d="M474.365,317.469h-17.886H305.893H185.413H34.826H16.941C7.579,317.469,0,325.056,0,334.412
		c0,9.356,7.579,16.94,16.941,16.94h10.87l70.331,70.332c3.309,3.309,7.643,4.964,11.977,4.964c4.337,0,8.67-1.655,11.98-4.964
		l70.33-70.332h106.447l70.33,70.332c3.309,3.309,7.645,4.964,11.978,4.964c4.336,0,8.669-1.655,11.979-4.964l70.33-70.332h10.871
		c9.363,0,16.941-7.584,16.941-16.94C491.307,325.056,483.728,317.469,474.365,317.469z M110.119,385.75l-34.395-34.397h68.793
		L110.119,385.75z M381.185,385.75l-34.395-34.397h68.792L381.185,385.75z"/>
</g>
<g>
</g>
<g>
</g>
<g>
</g>
<g>
</g>
<g>
</g>
<g>
</g>
<g>
</g>
<g>
</g>
<g>
</g>
<g>
</g>
<g>
</g>
<g>
</g>
<g>
</g>
<g>
</g>
<g>
</g>
</svg>
