<?xml version="1.0" encoding="iso-8859-1"?>
<!-- Generator: Adobe Illustrator 18.0.0, SVG Export Plug-In . SVG Version: 6.00 Build 0)  -->
<!DOCTYPE svg PUBLIC "-//W3C//DTD SVG 1.1//EN" "http://www.w3.org/Graphics/SVG/1.1/DTD/svg11.dtd">
<svg version="1.1" id="Capa_1" xmlns="http://www.w3.org/2000/svg" xmlns:xlink="http://www.w3.org/1999/xlink" x="0px" y="0px"
	 viewBox="0 0 497.965 497.965" style="enable-background:new 0 0 497.965 497.965;" xml:space="preserve">
<g id="XMLID_157_">
	<path id="XMLID_158_" d="M249.95,136.078c21.72,7.256,45.223-4.471,52.48-26.214c7.255-21.735-4.497-45.224-26.216-52.482
		c-21.77-7.255-45.256,4.49-52.496,26.225C216.463,105.342,228.215,128.83,249.95,136.078z"/>
	<path id="XMLID_159_" d="M423.219,103.734h-12.078c5.909-4.82,10.535-11.501,13.717-19.421C436.285,55.937,415.619,0,391.354,0
		c9.575,13.604,13.602,36.443-5.114,55.483c-3.393-6.346-1.851-15.648-2.177-23.667c-14.947,6.808-27.919,24.12-27.919,48.153
		c0,9.488,4.22,17.922,10.796,23.765h-5.925c-4.596,0-8.311,3.718-8.311,8.311c0,4.594,3.715,8.311,8.311,8.311h1.265
		c2.094,7.484,6.818,13.832,13.229,17.897l1.885,29.827l-62.365,16.671l-46.409-29.436c-4.026-2.599-10.228-5.171-14.983-6.754
		l-14.463-4.829c-3.392-1.137-13.376-3.035-17.498-1.996l-81.343,20.007c-6.964,1.712-12.175,7.507-13.132,14.617l-9.529,70.645
		c-1.412,10.485,6.785,19.787,17.32,19.787c8.605,0,16.104-6.363,17.289-15.13l7.938-58.867l27.14-6.67l-26.458,79.328
		l-8.895,90.912l-59.703-11.972c-11.916-2.395-23.117,5.259-25.438,16.947c-2.354,11.703,5.242,23.089,16.93,25.437l82.834,16.597
		c12.662,2.475,24.367-6.405,25.729-18.806l6.429-57.934l3.863,1.29l42.951,32.165l-10.746,114.245
		c-1.121,11.883,7.598,22.418,19.479,23.537c11.98,1.112,22.417-7.669,23.537-19.494l11.885-126.306
		c0.713-7.492-2.533-14.805-8.557-19.317l-41.085-30.761l33.7-101.057l29.737,17.596c3.929,2.321,8.702,3.067,13.409,1.842
		l62.691-16.752l1.249,19.843c0.374,5.918,5.275,10.527,11.217,10.527s10.844-4.609,11.217-10.527l5.373-85.195
		c6.413-4.076,11.151-10.422,13.247-17.914h1.267c4.592,0,8.311-3.717,8.311-8.311C431.529,107.453,427.811,103.734,423.219,103.734
		z"/>
</g>
<g>
</g>
<g>
</g>
<g>
</g>
<g>
</g>
<g>
</g>
<g>
</g>
<g>
</g>
<g>
</g>
<g>
</g>
<g>
</g>
<g>
</g>
<g>
</g>
<g>
</g>
<g>
</g>
<g>
</g>
</svg>
