<?xml version="1.0" encoding="iso-8859-1"?>
<!-- Generator: Adobe Illustrator 18.0.0, SVG Export Plug-In . SVG Version: 6.00 Build 0)  -->
<!DOCTYPE svg PUBLIC "-//W3C//DTD SVG 1.1//EN" "http://www.w3.org/Graphics/SVG/1.1/DTD/svg11.dtd">
<svg version="1.1" id="Capa_1" xmlns="http://www.w3.org/2000/svg" xmlns:xlink="http://www.w3.org/1999/xlink" x="0px" y="0px"
	 viewBox="0 0 499.288 499.288" style="enable-background:new 0 0 499.288 499.288;" xml:space="preserve">
<path id="XMLID_266_" d="M499.288,197.721c0-51.762-42.12-93.874-93.874-93.874c-32.385,0-61,16.497-77.885,41.537
	c-16.886-25.04-45.5-41.537-77.885-41.537c-32.386,0-61,16.497-77.885,41.537c-16.886-25.04-45.5-41.537-77.885-41.537
	C42.121,103.847,0,145.959,0,197.721c0,46.565,34.125,85.203,78.629,92.522c-0.441,3.718-0.742,7.488-0.742,11.325
	c0,51.763,42.119,93.874,93.873,93.874c32.385,0,60.999-16.496,77.885-41.537c16.886,25.041,45.5,41.537,77.885,41.537
	c51.753,0,93.873-42.111,93.873-93.874c0-3.837-0.303-7.606-0.743-11.325C465.161,282.924,499.288,244.286,499.288,197.721z
	 M249.645,138.463c32.672,0,59.258,26.586,59.258,59.258c0,4.166-0.455,8.222-1.266,12.143
	c-24.036,5.215-44.674,19.608-57.992,39.367c-13.319-19.759-33.956-34.152-57.991-39.367c-0.813-3.921-1.267-7.977-1.267-12.143
	C190.387,165.049,216.973,138.463,249.645,138.463z M34.616,197.721c0-32.672,26.586-59.258,59.259-59.258
	c32.672,0,59.258,26.586,59.258,59.258c0,4.166-0.456,8.222-1.268,12.143c-26.891,5.833-49.539,23.199-62.438,46.667
	C58.869,254.216,34.616,228.871,34.616,197.721z M171.76,360.825c-32.672,0-59.258-26.586-59.258-59.258
	c0-4.165,0.454-8.223,1.267-12.145c24.035-5.213,44.673-19.606,57.991-39.364c13.318,19.758,33.955,34.151,57.99,39.364
	c0.811,3.922,1.27,7.979,1.27,12.145C231.02,334.239,204.431,360.825,171.76,360.825z M327.529,360.825
	c-32.671,0-59.258-26.586-59.258-59.258c0-4.165,0.455-8.223,1.268-12.145c24.035-5.213,44.672-19.606,57.99-39.364
	c13.318,19.758,33.956,34.151,57.991,39.364c0.81,3.922,1.267,7.979,1.267,12.145C386.787,334.239,360.201,360.825,327.529,360.825z
	 M409.858,256.531c-12.896-23.468-35.544-40.834-62.436-46.667c-0.811-3.921-1.266-7.977-1.266-12.143
	c0-32.672,26.586-59.258,59.258-59.258c32.673,0,59.259,26.586,59.259,59.258C464.673,228.871,440.417,254.216,409.858,256.531z"/>
<g>
</g>
<g>
</g>
<g>
</g>
<g>
</g>
<g>
</g>
<g>
</g>
<g>
</g>
<g>
</g>
<g>
</g>
<g>
</g>
<g>
</g>
<g>
</g>
<g>
</g>
<g>
</g>
<g>
</g>
</svg>
