<?xml version="1.0" encoding="iso-8859-1"?>
<!-- Generator: Adobe Illustrator 18.0.0, SVG Export Plug-In . SVG Version: 6.00 Build 0)  -->
<!DOCTYPE svg PUBLIC "-//W3C//DTD SVG 1.1//EN" "http://www.w3.org/Graphics/SVG/1.1/DTD/svg11.dtd">
<svg version="1.1" id="Capa_1" xmlns="http://www.w3.org/2000/svg" xmlns:xlink="http://www.w3.org/1999/xlink" x="0px" y="0px"
	 viewBox="0 0 486.787 486.787" style="enable-background:new 0 0 486.787 486.787;" xml:space="preserve">
<g id="XMLID_404_">
	<path id="XMLID_405_" d="M468.685,49.255c-7.146-10.757-21.62-13.653-32.341-6.526l-60.282,40.041
		c-7.857,0.875-72.846,7.145-79.464,10.572c-9.114,1.414-25.995,7.62-35.336,16.315l-52.867,48.829l-70.712-50.652
		c-1.813-1.303-3.855-1.915-5.859-2.633c-6.708-14.793-21.539-25.149-38.811-25.149c-5.761,0-11.249,1.176-16.27,3.254
		C70.097,75.039,61.45,69.862,51.87,69.862c-20.81,0-37.672,23.68-37.672,52.902c0.009,29.203,16.88,52.883,37.681,52.883
		c9.577,0,18.218-5.175,24.873-13.443c5.012,2.077,10.5,3.252,16.261,3.252c11.192,0,21.311-4.419,28.93-11.493l74.731,53.529
		c9.014,6.463,21.309,5.671,29.423-1.822l38.117-35.199l29.722,80.919l-11.229,97.526l-44.935,98.213
		c-6.427,14.064-0.246,30.68,13.818,37.113c14.081,6.427,30.671,0.256,37.114-13.817l46.776-102.247
		c1.223-2.672,2.014-5.524,2.353-8.451l8.539-74.139l35.146,52.901l-0.172,119.359c-0.019,15.458,12.496,28.017,27.973,28.035
		c0,0,0.018,0,0.027,0c15.45,0,27.982-12.514,28.001-27.962l0.182-127.827c0.009-5.522-1.622-10.927-4.677-15.53l-55.9-84.137
		l-35.547-96.836l45.446-5.076c3.691-0.411,7.228-1.695,10.317-3.756l64.99-43.167C472.896,74.465,475.822,59.983,468.685,49.255z
		 M85.822,145.333c2.314-6.864,3.718-14.456,3.718-22.568c0-8.112-1.404-15.714-3.728-22.587c2.308-0.737,4.648-1.458,7.202-1.458
		c7.392,0,13.772,3.555,18.184,8.831c-2.261,1.515-4.395,3.311-6.07,5.662c-6.417,8.968-5.205,20.682,1.732,28.646
		c-3.966,2.881-8.579,4.933-13.846,4.933C90.461,146.791,88.129,146.07,85.822,145.333z"/>
	<path id="XMLID_408_" d="M283.291,79.003c21.13-7.765,31.975-31.171,24.208-52.298c-7.765-21.128-31.171-31.956-52.316-24.191
		c-21.111,7.767-31.94,31.173-24.174,52.283C238.758,75.942,262.183,86.771,283.291,79.003z"/>
</g>
<g>
</g>
<g>
</g>
<g>
</g>
<g>
</g>
<g>
</g>
<g>
</g>
<g>
</g>
<g>
</g>
<g>
</g>
<g>
</g>
<g>
</g>
<g>
</g>
<g>
</g>
<g>
</g>
<g>
</g>
</svg>
