<?xml version="1.0" encoding="iso-8859-1"?>
<!-- Generator: Adobe Illustrator 18.0.0, SVG Export Plug-In . SVG Version: 6.00 Build 0)  -->
<!DOCTYPE svg PUBLIC "-//W3C//DTD SVG 1.1//EN" "http://www.w3.org/Graphics/SVG/1.1/DTD/svg11.dtd">
<svg version="1.1" id="Capa_1" xmlns="http://www.w3.org/2000/svg" xmlns:xlink="http://www.w3.org/1999/xlink" x="0px" y="0px"
	 viewBox="0 0 488.741 488.741" style="enable-background:new 0 0 488.741 488.741;" xml:space="preserve">
<g id="XMLID_494_">
	<path id="XMLID_495_" d="M421.347,427.801l-62.032-120.425c-5.257-10.19-15.275-17.085-26.679-18.319l-54.318-5.902
		c22.251,24.281,36.434,55.926,38.467,90.863l43.824,85.08c8.694,16.863,29.367,23.336,46.007,14.723
		C423.398,465.186,429.99,444.582,421.347,427.801z"/>
	<path id="XMLID_496_" d="M205.348,103.328c28.518,0.465,52.042-22.284,52.519-50.79c0.463-28.55-22.261-52.064-50.81-52.529
		c-28.539-0.506-52.044,22.262-52.529,50.787C154.072,79.346,176.799,102.84,205.348,103.328z"/>
	<path id="XMLID_497_" d="M243.288,347.368c-24.122,15.347-56.107,8.253-71.464-15.871l-31.947-50.183
		c-43.934,12.982-76.285,53.236-76.285,101.319c0,58.512,47.595,106.107,106.109,106.107c58.514,0,106.109-47.596,106.109-106.107
		c0-19.777-5.793-38.094-15.245-53.967C256.509,336.006,250.839,342.555,243.288,347.368z M169.702,416.6
		c-18.754,0-33.959-15.204-33.959-33.967c0-18.766,15.205-33.971,33.959-33.971c18.751,0,33.957,15.205,33.957,33.971
		C203.659,401.396,188.453,416.6,169.702,416.6z"/>
	<path id="XMLID_500_" d="M191.911,318.7c8.331,13.082,25.628,16.862,38.588,8.57c13.021-8.288,16.853-25.553,8.563-38.576
		l-42.904-67.41l42.572-54.145l-19.613,45.876l37.313,50.548l1.699-101.56c0.374-22.766-17.206-44.766-43.742-45.233l-18.986-0.301
		c-24.566-0.423-44.817,19.168-45.23,43.734l-0.102,5.842l44.736-33.461l-54.835,69.735c-7.337,9.321-7.986,22.26-1.607,32.269
		L191.911,318.7z"/>
</g>
<g>
</g>
<g>
</g>
<g>
</g>
<g>
</g>
<g>
</g>
<g>
</g>
<g>
</g>
<g>
</g>
<g>
</g>
<g>
</g>
<g>
</g>
<g>
</g>
<g>
</g>
<g>
</g>
<g>
</g>
</svg>
