<?xml version="1.0" encoding="iso-8859-1"?>
<!-- Generator: Adobe Illustrator 18.0.0, SVG Export Plug-In . SVG Version: 6.00 Build 0)  -->
<!DOCTYPE svg PUBLIC "-//W3C//DTD SVG 1.1//EN" "http://www.w3.org/Graphics/SVG/1.1/DTD/svg11.dtd">
<svg version="1.1" id="Capa_1" xmlns="http://www.w3.org/2000/svg" xmlns:xlink="http://www.w3.org/1999/xlink" x="0px" y="0px"
	 viewBox="0 0 498.11 498.11" style="enable-background:new 0 0 498.11 498.11;" xml:space="preserve">
<g id="XMLID_423_">
	<path id="XMLID_424_" d="M239.548,180.407c0.348,0.107,0.698,0.194,1.037,0.322l-0.063-0.824L239.548,180.407z"/>
	<path id="XMLID_425_" d="M282.83,98.649c22.004-1.698,38.466-20.914,36.742-42.934c-1.717-21.986-20.932-38.413-42.953-36.715
		c-21.986,1.717-38.429,20.949-36.706,42.934C241.613,83.939,260.846,100.382,282.83,98.649z"/>
	<path id="XMLID_426_" d="M366.537,463.519c4.691,9.902,14.549,15.711,24.836,15.711c3.934,0,7.927-0.84,11.726-2.628
		c13.702-6.489,19.555-22.859,13.076-36.571l-55.527-117.396h-60.755L366.537,463.519z"/>
	<path id="XMLID_427_" d="M139.658,437.351c-7.964,12.906-3.969,29.813,8.938,37.785c4.495,2.77,9.471,4.094,14.397,4.094
		c9.205,0,18.196-4.631,23.388-13.029l88.657-143.566h-64.536L139.658,437.351z"/>
	<path id="XMLID_428_" d="M475.231,258.57H117.173c-12.64,0-22.879,10.243-22.879,22.88c0,12.637,10.24,22.879,22.879,22.879
		h358.058c12.636,0,22.879-10.242,22.879-22.879C498.11,268.813,487.867,258.57,475.231,258.57z"/>
	<path id="XMLID_429_" d="M246.251,214.528c0-9.795-7.936-17.729-17.73-17.729c-9.796,0-17.732,7.934-17.732,17.729
		c0,9.795,7.936,17.73,17.732,17.73C238.315,232.259,246.251,224.323,246.251,214.528z"/>
	<path id="XMLID_430_" d="M465.721,119.811c-3.879-12.029-16.82-18.605-28.795-14.744l-67.54,21.805l-69.468-11.457
		c0,0-24.175,0.859-29.805,1.305c-13.871,1.072-47.733,21.091-90.8,43.023h-49.549c-3.271,0-6.353,0.732-9.169,1.984l-28.974-13.727
		c0.67-16.66-9.743-33.924-27.688-42.828c-23.29-11.584-50.272-4.682-60.219,15.392c-9.974,20.107,0.831,45.739,24.131,57.286
		c18.571,9.24,39.304,6.541,52.076-5.025l27.626,13.105c1.662,10.992,10.751,19.57,22.216,19.57h55.045
		c2.938,0,5.821-0.617,8.528-1.734c4.601-15.065,18.607-26.018,35.185-26.018c20.318,0,36.783,16.458,36.783,36.778
		c0,10.024-4.012,19.105-10.513,25.739h74.181l-5.8-74.642l44.248,7.292c1.233,0.197,2.477,0.303,3.717,0.303
		c2.378,0,4.755-0.375,7.025-1.106l72.812-23.505C463.005,144.729,469.608,131.843,465.721,119.811z"/>
</g>
<g>
</g>
<g>
</g>
<g>
</g>
<g>
</g>
<g>
</g>
<g>
</g>
<g>
</g>
<g>
</g>
<g>
</g>
<g>
</g>
<g>
</g>
<g>
</g>
<g>
</g>
<g>
</g>
<g>
</g>
</svg>
