<?xml version="1.0" encoding="iso-8859-1"?>
<!-- Generator: Adobe Illustrator 18.0.0, SVG Export Plug-In . SVG Version: 6.00 Build 0)  -->
<!DOCTYPE svg PUBLIC "-//W3C//DTD SVG 1.1//EN" "http://www.w3.org/Graphics/SVG/1.1/DTD/svg11.dtd">
<svg version="1.1" id="Capa_1" xmlns="http://www.w3.org/2000/svg" xmlns:xlink="http://www.w3.org/1999/xlink" x="0px" y="0px"
	 viewBox="0 0 499.052 499.052" style="enable-background:new 0 0 499.052 499.052;" xml:space="preserve">
<g id="XMLID_382_">
	<path id="XMLID_383_" d="M133.089,211.825c4.626,31.511-5.931,63.499-28.455,86.001l-82.778,82.796
		c-17.359,17.359-17.359,45.485,0.02,62.864c17.331,17.352,45.508,17.32,62.809,0l82.796-82.796
		c22.549-22.558,54.457-33.099,86.011-28.462c14.47,2.131,29.397,2.027,44.359,0.158l-164.92-164.922
		C131.053,182.427,130.965,197.353,133.089,211.825z"/>
	<path id="XMLID_384_" d="M423.79,41.508c-60.854-60.854-166.35-53.997-235.654,15.314c-15.748,15.74-28.126,33.398-37.355,51.939
		l205.775,205.753c18.538-9.215,36.197-21.603,51.944-37.341C477.797,207.877,484.645,102.364,423.79,41.508z"/>
	<path id="XMLID_385_" d="M434.505,387.637c-30.772,0-55.708,24.937-55.708,55.708c0,30.771,24.936,55.707,55.708,55.707
		c30.762,0,55.708-24.937,55.708-55.707C490.213,412.574,465.267,387.637,434.505,387.637z"/>
</g>
<g>
</g>
<g>
</g>
<g>
</g>
<g>
</g>
<g>
</g>
<g>
</g>
<g>
</g>
<g>
</g>
<g>
</g>
<g>
</g>
<g>
</g>
<g>
</g>
<g>
</g>
<g>
</g>
<g>
</g>
</svg>
