<?xml version="1.0" encoding="iso-8859-1"?>
<!-- Generator: Adobe Illustrator 18.0.0, SVG Export Plug-In . SVG Version: 6.00 Build 0)  -->
<!DOCTYPE svg PUBLIC "-//W3C//DTD SVG 1.1//EN" "http://www.w3.org/Graphics/SVG/1.1/DTD/svg11.dtd">
<svg version="1.1" id="Capa_1" xmlns="http://www.w3.org/2000/svg" xmlns:xlink="http://www.w3.org/1999/xlink" x="0px" y="0px"
	 viewBox="0 0 498.558 498.558" style="enable-background:new 0 0 498.558 498.558;" xml:space="preserve">
<g id="XMLID_431_">
	<path id="XMLID_432_" d="M293.31,193.426c7.876,3.305,16.742,1.139,22.201-5.104l46.15-52.936c1.949-2.238,3.158-4.816,3.915-7.506
		l-91.111,57.553L293.31,193.426z"/>
	<path d="M269.989,271.836v-83.57l-96.403,60.894c-0.047,39.905-0.1,63.977-0.1,96.957l-65.702,36.623
		c-11.589,6.458-15.739,21.092-9.28,32.675c6.476,11.615,21.135,15.697,32.665,9.29l83.724-46.683
		c4.086-2.277,6.618-6.589,6.618-11.267v-58.636h14.254l33.538,55.715l-24.764,105.197c-3.027,12.92,4.976,25.838,17.873,28.888
		c12.957,3.027,25.855-4.997,28.893-17.883l27.003-114.708c1.431-6.098,0.42-12.52-2.81-17.898L269.989,271.836z"/>
	<path id="XMLID_433_" d="M494.783,13.497c-4.105-6.459-12.685-8.408-19.116-4.313L156.426,210.82v32.762L490.462,32.604
		C496.93,28.525,498.87,19.956,494.783,13.497z"/>
	<path id="XMLID_436_" d="M8.096,304.51c-6.468,4.078-8.408,12.647-4.321,19.106c2.645,4.169,7.137,6.46,11.729,6.46
		c2.534,0,5.096-0.688,7.388-2.147l70.373-44.455c-6.622-6.658-10.726-15.842-10.736-25.98L8.096,304.51z"/>
	<path id="XMLID_437_" d="M221.811,92.214c25.465,0,46.115-20.642,46.115-46.099C267.926,20.641,247.276,0,221.811,0
		c-25.466,0-46.106,20.641-46.106,46.115C175.705,71.572,196.345,92.214,221.811,92.214z"/>
	<path id="XMLID_438_" d="M119.477,276.853c10.717,0,19.395-8.68,19.395-19.394v-60.063c21.047-13.098,13.694-8.515,34.759-21.631
		c0,2.598,0,5.285,0,7.793l92.959-58.726c-6.151-13.965-20.061-23.726-36.298-23.726H213.34c-17.708,0-32.53,11.674-37.653,27.693
		c-47.548,29.59-32.818,20.424-66.457,41.352c-5.693,3.537-9.147,9.779-9.147,16.474v70.833
		C100.082,268.174,108.759,276.853,119.477,276.853z"/>
</g>
<g>
</g>
<g>
</g>
<g>
</g>
<g>
</g>
<g>
</g>
<g>
</g>
<g>
</g>
<g>
</g>
<g>
</g>
<g>
</g>
<g>
</g>
<g>
</g>
<g>
</g>
<g>
</g>
<g>
</g>
</svg>
