<?xml version="1.0" encoding="iso-8859-1"?>
<!-- Generator: Adobe Illustrator 18.0.0, SVG Export Plug-In . SVG Version: 6.00 Build 0)  -->
<!DOCTYPE svg PUBLIC "-//W3C//DTD SVG 1.1//EN" "http://www.w3.org/Graphics/SVG/1.1/DTD/svg11.dtd">
<svg version="1.1" id="Capa_1" xmlns="http://www.w3.org/2000/svg" xmlns:xlink="http://www.w3.org/1999/xlink" x="0px" y="0px"
	 viewBox="0 0 500.743 500.743" style="enable-background:new 0 0 500.743 500.743;" xml:space="preserve">
<g id="XMLID_364_">
	<path d="M365.836,0h-33.762c0,45.115-36.577,138.679-81.693,138.679l-0.02,0.033v-0.033c-45.115,0-81.693-93.563-81.693-138.679
		h-33.742c0,71.848,18.369,225.024-40.942,238.811c-5.274,1.226-9.019,5.927-9.019,11.342v238.935
		c0,6.438,5.218,11.655,11.655,11.655h307.502c6.438,0,11.655-5.218,11.655-11.655V250.152c0-5.426-3.734-10.113-9.019-11.342
		C347.45,225.023,365.836,71.848,365.836,0z"/>
</g>
<g>
</g>
<g>
</g>
<g>
</g>
<g>
</g>
<g>
</g>
<g>
</g>
<g>
</g>
<g>
</g>
<g>
</g>
<g>
</g>
<g>
</g>
<g>
</g>
<g>
</g>
<g>
</g>
<g>
</g>
</svg>
