<?xml version="1.0" encoding="iso-8859-1"?>
<!-- Generator: Adobe Illustrator 18.0.0, SVG Export Plug-In . SVG Version: 6.00 Build 0)  -->
<!DOCTYPE svg PUBLIC "-//W3C//DTD SVG 1.1//EN" "http://www.w3.org/Graphics/SVG/1.1/DTD/svg11.dtd">
<svg version="1.1" id="Capa_1" xmlns="http://www.w3.org/2000/svg" xmlns:xlink="http://www.w3.org/1999/xlink" x="0px" y="0px"
	 viewBox="0 0 496.147 496.147" style="enable-background:new 0 0 496.147 496.147;" xml:space="preserve">
<g id="XMLID_67_">
	<path id="XMLID_68_" d="M418.592,105.629c19.669-18.782,20.381-49.942,1.608-69.611c-18.782-19.667-49.942-20.392-69.601-1.618
		c-19.67,18.782-20.392,49.933-1.618,69.601C367.752,123.671,398.922,124.402,418.592,105.629z"/>
	<path id="XMLID_69_" d="M468.687,162.054l-83.45,9.536c-0.137-0.174-39.33-52.438-39.33-52.438l-12.492-13.09
		c-8.381-8.794-94.29-40.215-105.607-44.636c-6.462-2.552-13.658-2.245-19.889,0.849l-78.79,38.865
		c-12.206,6.03-17.224,20.815-11.204,33.018c5.924,12.012,20.585,17.328,33.019,11.213l69.043-34.06l33.018,12.907l-89.723,85.648
		c-3.765,3.593-5.759,8.13-6.915,12.841l-24.879,59.179l-60.278-36.496l11.529-15.075c4.961-6.482,3.729-15.768-2.764-20.737
		c-6.464-4.971-15.759-3.738-20.739,2.764L3.044,285.779c-3.074,4.018-3.882,9.323-2.138,14.071l11.056,30.188
		c2.196,6,7.86,9.709,13.89,9.709c1.696,0,3.41-0.288,5.086-0.905c7.676-2.813,11.616-11.307,8.804-18.975l-8.264-22.559
		l3.554-4.642l95.116,57.599c15.412,9.343,35.62,2.774,42.604-13.842l22.203-52.802L242.66,340.7l-48.421,105.077h-9.361
		c-8.168,0-14.796,6.627-14.796,14.796c0,8.168,6.628,14.794,14.796,14.794h92.468c5.058,0,9.768-2.581,12.483-6.849l17.261-27.124
		c4.384-6.896,2.351-16.037-4.535-20.429c-6.878-4.393-16.028-2.369-20.431,4.537l-12.897,20.274h-9.622l44.645-97.399
		c4.748-10.375,3.121-22.55-4.199-31.305l-44.412-53.131l79.935-76.314l18.735,24.888c5.423,7.214,14.206,10.693,22.51,9.671
		l97.478-11.144c13.524-1.54,23.241-13.766,21.69-27.298C494.435,170.214,482.192,160.437,468.687,162.054z"/>
</g>
<g>
</g>
<g>
</g>
<g>
</g>
<g>
</g>
<g>
</g>
<g>
</g>
<g>
</g>
<g>
</g>
<g>
</g>
<g>
</g>
<g>
</g>
<g>
</g>
<g>
</g>
<g>
</g>
<g>
</g>
</svg>
