<?xml version="1.0" encoding="iso-8859-1"?>
<!-- Generator: Adobe Illustrator 18.0.0, SVG Export Plug-In . SVG Version: 6.00 Build 0)  -->
<!DOCTYPE svg PUBLIC "-//W3C//DTD SVG 1.1//EN" "http://www.w3.org/Graphics/SVG/1.1/DTD/svg11.dtd">
<svg version="1.1" id="Capa_1" xmlns="http://www.w3.org/2000/svg" xmlns:xlink="http://www.w3.org/1999/xlink" x="0px" y="0px"
	 viewBox="0 0 495.845 495.845" style="enable-background:new 0 0 495.845 495.845;" xml:space="preserve">
<g id="XMLID_144_">
	<path id="XMLID_145_" d="M334.412,109.537c19.025,10.873,43.295,4.235,54.185-14.805c10.857-19.069,4.202-43.311-14.857-54.186
		c-19.059-10.864-43.293-4.227-54.15,14.823C308.734,74.428,315.354,98.672,334.412,109.537z"/>
	<path id="XMLID_146_" d="M495.369,161.644c-1.496-6.914-6.301-12.007-12.27-14.73l4.135-82.956
		c0.353-7.118-5.125-13.178-12.252-13.531c-7.025-0.294-13.176,5.127-13.529,12.254l-4.252,85.175l-49.849,10.756l-46.772-10.528
		c-6.486-6.824-13.73-11.606-23.579-17.227c-4.403-2.503-9.276-3.865-14.233-4.261c-4.137-0.656-10.135,0.043-16.371,2.748
		l-73.713,25.512c-2.504,0.865-4.823,2.186-6.855,3.899l-70.352,59.494c-9.058,7.673-10.202,21.244-2.521,30.319
		c7.631,9.024,21.177,10.243,30.318,2.538l67.276-56.907l13.646-4.723l-76.737,143.359l-65.934,69.813
		c-6.15,6.522-7.779,15.32-5.914,23.454H17.209C7.697,426.102,0,433.808,0,443.312c0,9.504,7.697,17.209,17.209,17.209H267.07
		c5.176,0,10.084-2.335,13.361-6.352l37.293-45.89c5.984-7.378,4.874-18.219-2.504-24.21c-7.36-5.992-18.201-4.873-24.217,2.496
		l-32.119,39.536h-88.485l57.276-60.655c1.764-1.874,3.26-4.017,4.387-6.335l30.588-62.234c0.066,0.042,0.118,0.092,0.186,0.135
		l81.797,50.854l1.176,72.923c0.234,14.11,11.748,25.395,25.797,25.395c0.152,0,0.287,0,0.438,0
		c14.252-0.234,25.629-11.975,25.397-26.235l-1.414-86.999c-0.152-8.772-4.74-16.872-12.184-21.503l-69.143-42.981l43.782-76.756
		l44.048,9.916c3.06,0.68,6.202,0.697,9.26,0.042l43.193-9.311l-8.538,171.493c-0.353,7.116,5.128,13.176,12.253,13.529
		c0.217,0.008,0.436,0.017,0.654,0.017c6.824,0,12.538-5.363,12.875-12.269l8.906-178.913
		C491.318,182.737,497.688,172.418,495.369,161.644z"/>
</g>
<g>
</g>
<g>
</g>
<g>
</g>
<g>
</g>
<g>
</g>
<g>
</g>
<g>
</g>
<g>
</g>
<g>
</g>
<g>
</g>
<g>
</g>
<g>
</g>
<g>
</g>
<g>
</g>
<g>
</g>
</svg>
