<?xml version="1.0" encoding="iso-8859-1"?>
<!-- Generator: Adobe Illustrator 18.0.0, SVG Export Plug-In . SVG Version: 6.00 Build 0)  -->
<!DOCTYPE svg PUBLIC "-//W3C//DTD SVG 1.1//EN" "http://www.w3.org/Graphics/SVG/1.1/DTD/svg11.dtd">
<svg version="1.1" id="Capa_1" xmlns="http://www.w3.org/2000/svg" xmlns:xlink="http://www.w3.org/1999/xlink" x="0px" y="0px"
	 viewBox="0 0 496.101 496.101" style="enable-background:new 0 0 496.101 496.101;" xml:space="preserve">
<g id="XMLID_273_">
	<path id="XMLID_274_" d="M400.992,136.149c-2.009-8.206-7.198-15.273-14.413-19.658c-7.222-4.386-15.894-5.709-24.1-3.708
		l-9.665,2.367l18.169,16.963l-72.734-45.177c-3.358-2.084-7.23-3.192-11.177-3.192h-79.263c-11.699,0-21.181,9.479-21.181,21.181
		c0,11.699,9.482,21.181,21.181,21.181h73.222l67.597,41.979l-66.438-25.035h-36.173c-5.717,4.136-5.832,6.403-7.207,9.861
		c-2.615,3.244-48.888,93.229-50.808,96.935l-56.625,75.109c-8.447,11.218-6.214,27.155,4.997,35.61
		c11.268,8.456,27.17,6.156,35.593-4.998l57.917-76.828c0.859-1.144,1.613-2.351,2.267-3.609l30.165-58.197l118.554-29.056
		c17.077-4.188,27.535-21.413,23.356-38.508L400.992,136.149z"/>
	<path id="XMLID_275_" d="M495.03,115.199c-4.855-19.857-24.877-31.969-44.694-27.104c-19.864,4.832-32.003,24.854-27.145,44.712
		c4.856,19.822,24.903,32.003,44.718,27.104C487.767,155.08,499.888,135.057,495.03,115.199z"/>
	<path id="XMLID_276_" d="M368.32,339.055l-31.903,39.414H16.945C7.586,378.469,0,386.048,0,395.413
		c0,9.366,7.586,16.944,16.945,16.944h327.554c5.114,0,9.954-2.317,13.173-6.288l36.991-45.703
		c5.89-7.264,4.765-17.938-2.516-23.828C384.875,330.663,374.21,331.788,368.32,339.055z"/>
</g>
<g>
</g>
<g>
</g>
<g>
</g>
<g>
</g>
<g>
</g>
<g>
</g>
<g>
</g>
<g>
</g>
<g>
</g>
<g>
</g>
<g>
</g>
<g>
</g>
<g>
</g>
<g>
</g>
<g>
</g>
</svg>
