<?xml version="1.0" encoding="iso-8859-1"?>
<!-- Generator: Adobe Illustrator 18.0.0, SVG Export Plug-In . SVG Version: 6.00 Build 0)  -->
<!DOCTYPE svg PUBLIC "-//W3C//DTD SVG 1.1//EN" "http://www.w3.org/Graphics/SVG/1.1/DTD/svg11.dtd">
<svg version="1.1" id="Capa_1" xmlns="http://www.w3.org/2000/svg" xmlns:xlink="http://www.w3.org/1999/xlink" x="0px" y="0px"
	 viewBox="0 0 496.171 496.171" style="enable-background:new 0 0 496.171 496.171;" xml:space="preserve">
<g id="XMLID_277_">
	<path id="XMLID_278_" d="M476.694,10.337c-18.229-15.525-45.546-13.297-61.022,4.9c-15.554,18.221-13.346,45.548,4.874,61.076
		c18.209,15.502,45.596,13.312,61.052-4.926C497.141,53.188,494.921,25.86,476.694,10.337z"/>
	<path id="XMLID_279_" d="M435.626,410.311l-37.37,46.166H197.193c2.276-1.993,4.37-4.262,6.007-7.015l110.243-185.17
		c8.662-0.216,17.211-3.858,23.268-10.991l81.441-95.686c13.353-15.68,11.463-39.21-4.215-52.584l-12.152-10.329
		c-15.699-13.393-39.256-11.436-52.602,4.204l-22.852,26.865l44.375-12.696c0.038-0.021,0.078,0,0.116,0
		c-0.037,0-0.078,0-0.116,0.021l-84.774,39.518c-2.037,0.95-3.946,2.171-5.65,3.644l-67.399,57.739
		c-10.408,8.913-11.618,24.575-2.703,34.984c8.905,10.386,24.593,11.605,34.974,2.691l64.82-55.526l81.703-38.087
		c0.04-0.019,0.058-0.056,0.098-0.077c-0.039,0.041-0.057,0.077-0.098,0.098l-69.433,47.156l-67.4,57.736
		c-4.4,3.758-9.401,6.339-14.615,7.869l-88.195,148.152c-7.433,12.483-4.641,28.201,5.854,37.483H24.067
		c-10.96,0-19.847,8.879-19.847,19.848c0,10.971,8.887,19.846,19.847,19.846h383.658c5.989,0,11.658-2.711,15.427-7.361
		l43.328-53.533c6.9-8.508,5.581-21.009-2.946-27.91C455.005,400.504,442.524,401.784,435.626,410.311z"/>
</g>
<g>
</g>
<g>
</g>
<g>
</g>
<g>
</g>
<g>
</g>
<g>
</g>
<g>
</g>
<g>
</g>
<g>
</g>
<g>
</g>
<g>
</g>
<g>
</g>
<g>
</g>
<g>
</g>
<g>
</g>
</svg>
