<?xml version="1.0" encoding="iso-8859-1"?>
<!-- Generator: Adobe Illustrator 18.0.0, SVG Export Plug-In . SVG Version: 6.00 Build 0)  -->
<!DOCTYPE svg PUBLIC "-//W3C//DTD SVG 1.1//EN" "http://www.w3.org/Graphics/SVG/1.1/DTD/svg11.dtd">
<svg version="1.1" id="Capa_1" xmlns="http://www.w3.org/2000/svg" xmlns:xlink="http://www.w3.org/1999/xlink" x="0px" y="0px"
	 viewBox="0 0 494.616 494.616" style="enable-background:new 0 0 494.616 494.616;" xml:space="preserve">
<g id="XMLID_280_">
	<path id="XMLID_281_" d="M256.813,127.577c4.662,6.924,11.435,12.496,19.969,15.331c20.539,6.842,42.768-4.236,49.628-24.799
		c6.868-20.548-4.25-42.788-24.79-49.631c-12.89-4.314-26.417-1.545-36.409,6.152c2.794,6.569,3.503,14.074,1.249,21.417
		L256.813,127.577z"/>
	<path id="XMLID_282_" d="M310.43,250.074c3.108,4.332,8.099,6.892,13.429,6.892h61.578c9.122,0,16.506-7.375,16.506-16.506
		c0-9.113-7.384-16.505-16.506-16.505h-53.091l-29.285-40.936c-1.424-12.674-9.912-24.025-22.801-28.325l-13.672-4.556
		c-5.323-1.771-10.917-2.029-16.345-1.098l-44.002,143.788c-3.196,10.45-11.36,17.905-21.087,20.82l-3.751,33.832
		c-4.083-0.805-52.714-10.74-56.499-10.949l-0.788-62.159c-0.105-8.614-7.135-15.523-15.71-15.523c-0.072,0-0.145,0-0.209,0
		c-8.687,0.113-15.627,7.248-15.523,15.926l1.996,157.215c0.073,5.717,3.237,10.935,8.27,13.657l28.51,15.346
		c7.601,4.09,17.158,1.272,21.289-6.395c4.114-7.633,1.265-17.165-6.385-21.304L126,422.329l-0.483-37.939l71.852,14.397
		c13.551,2.721,26.539-6.798,28.06-20.533l5.427-48.857l46.756,44.06c-0.742,3.572-17.955,86.086-18.197,89.709h-60.016
		c-8.68,0-15.716,7.037-15.716,15.734c0,8.678,7.036,15.716,15.716,15.716h157.216c5.708,0,10.973-3.108,13.744-8.084l15.716-28.325
		c4.226-7.585,1.481-17.15-6.111-21.369c-7.593-4.235-17.15-1.466-21.368,6.12l-11.233,20.208h-40.112l19.212-93.092
		c1.65-8.02-0.967-16.313-6.925-21.933l-51.877-48.874l24.793-74.331L310.43,250.074z"/>
	<path id="XMLID_283_" d="M148.882,265.372l17.045-55.718l-1.932-13.977l6.714-1.659l11.258-36.747l-40.299,9.904
		c-8.212,2.012-13.575,9.918-12.415,18.277l9.25,66.811C139.358,258.415,143.497,263.262,148.882,265.372z"/>
	<path id="XMLID_284_" d="M192.86,172.698l-32.471,106.104c-2.673,8.711,2.229,17.939,10.957,20.611
		c1.603,0.5,3.229,0.723,4.832,0.723c7.061,0,13.607-4.555,15.772-11.656L252.176,91.7c2.673-8.729-2.23-17.956-10.958-20.629
		c-1.168-0.355-2.335-0.241-3.519-0.339c5.708-18.486,2.046-6.633,17.117-55.46c1.917-6.23-1.569-12.816-7.792-14.749
		c-6.273-1.916-12.828,1.595-14.744,7.809c-19.154,62.063-10.29,33.334-46.321,150.1
		C184.149,164.307,187.264,170.411,192.86,172.698z"/>
</g>
<g>
</g>
<g>
</g>
<g>
</g>
<g>
</g>
<g>
</g>
<g>
</g>
<g>
</g>
<g>
</g>
<g>
</g>
<g>
</g>
<g>
</g>
<g>
</g>
<g>
</g>
<g>
</g>
<g>
</g>
</svg>
