<?xml version="1.0" encoding="iso-8859-1"?>
<!-- Generator: Adobe Illustrator 18.0.0, SVG Export Plug-In . SVG Version: 6.00 Build 0)  -->
<!DOCTYPE svg PUBLIC "-//W3C//DTD SVG 1.1//EN" "http://www.w3.org/Graphics/SVG/1.1/DTD/svg11.dtd">
<svg version="1.1" id="Capa_1" xmlns="http://www.w3.org/2000/svg" xmlns:xlink="http://www.w3.org/1999/xlink" x="0px" y="0px"
	 viewBox="0 0 496.081 496.081" style="enable-background:new 0 0 496.081 496.081;" xml:space="preserve">
<g id="XMLID_472_">
	<path id="XMLID_473_" d="M426.801,75.364c17.369-16.942,17.705-44.75,0.781-62.102c-16.924-17.369-44.696-17.722-62.045-0.8
		c-17.351,16.924-17.742,44.697-0.8,62.048C381.607,91.898,409.432,92.251,426.801,75.364z"/>
	<path id="XMLID_474_" d="M475.919,453.714c-4.384-9.529-15.642-13.729-25.229-9.326c-19.022,8.75-39.124,20.1-69.05,9.066
		l-48.113-17.815l28.367-104.959c2.527-9.362,0.131-19.375-6.369-26.564l-60.319-66.804l40.163-39.121l6.092,19.729
		c2.359,7.672,8.451,13.636,16.162,15.847l75.867,21.751c12.541,3.605,25.766-3.602,29.406-16.29
		c3.621-12.633-3.678-25.805-16.293-29.406l-63.492-18.207l-9.588-31.023c12.781-14.696,12.523-36.894-1.301-51.085l-11.256-11.555
		c-5.072-5.202-13.561-9.53-17.798-10.607l-93.05-23.854c-8.47-2.191-17.518,0.502-23.424,6.966l-55.99,61.025
		c-8.879,9.679-8.229,24.706,1.45,33.585c9.659,8.899,24.745,8.193,33.585-1.448l46.367-50.527l30.986,7.951l-66.206,64.498
		c-11.016,9.843-19.396,22.512-13.543,36.427l26.174,62.29l-126.933,65.926l-1.376-0.501c-29.89-11.092-37.748-32.787-46.497-51.811
		c-4.384-9.529-15.642-13.727-25.227-9.325c-9.547,4.384-13.729,15.681-9.325,25.228c8.749,19.023,22.067,54.634,67.86,71.576
		L368.453,489.12c45.773,17.017,79.118-1.43,98.142-10.179C476.143,474.557,480.323,463.261,475.919,453.714z M279.155,322.804
		c3.773-1.949,6.744-4.774,9.196-7.934l14.397,15.941l-22.996,84.933l-104.939-38.825L279.155,322.804z"/>
</g>
<g>
</g>
<g>
</g>
<g>
</g>
<g>
</g>
<g>
</g>
<g>
</g>
<g>
</g>
<g>
</g>
<g>
</g>
<g>
</g>
<g>
</g>
<g>
</g>
<g>
</g>
<g>
</g>
<g>
</g>
</svg>
