<?xml version="1.0" encoding="iso-8859-1"?>
<!-- Generator: Adobe Illustrator 18.0.0, SVG Export Plug-In . SVG Version: 6.00 Build 0)  -->
<!DOCTYPE svg PUBLIC "-//W3C//DTD SVG 1.1//EN" "http://www.w3.org/Graphics/SVG/1.1/DTD/svg11.dtd">
<svg version="1.1" id="Capa_1" xmlns="http://www.w3.org/2000/svg" xmlns:xlink="http://www.w3.org/1999/xlink" x="0px" y="0px"
	 viewBox="0 0 495.894 495.894" style="enable-background:new 0 0 495.894 495.894;" xml:space="preserve">
<g id="XMLID_343_">
	<path id="XMLID_348_" d="M346.221,83.682H149.672C67.007,83.682,0,150.689,0,233.356v29.184
		c0,82.666,67.007,149.673,149.672,149.673h196.549c82.667,0,149.673-67.007,149.673-149.673v-29.184
		C495.894,150.689,428.888,83.682,346.221,83.682z M329.24,383.623H166.686c-74.821,0-135.693-60.855-135.693-135.677
		c0-74.819,60.872-135.692,135.693-135.692H329.24c74.819,0,135.677,60.873,135.677,135.692
		C464.917,322.768,404.06,383.623,329.24,383.623z"/>
	<path id="XMLID_351_" d="M329.24,178.373H166.686c-38.371,0-69.575,31.203-69.575,69.573c0,38.354,31.204,69.558,69.575,69.558
		H329.24c38.354,0,69.558-31.203,69.558-69.558C398.798,209.576,367.594,178.373,329.24,178.373z"/>
	<path id="XMLID_352_" d="M329.24,137.049H166.686c-61.147,0-110.898,49.752-110.898,110.898
		c0,61.147,49.751,110.884,110.898,110.884H329.24c61.147,0,110.882-49.736,110.882-110.884
		C440.122,186.801,390.388,137.049,329.24,137.049z M329.24,342.299H166.686c-52.027,0-94.368-42.324-94.368-94.353
		c0-52.026,42.341-94.368,94.368-94.368H329.24c52.026,0,94.352,42.342,94.352,94.368
		C423.592,299.975,381.267,342.299,329.24,342.299z"/>
</g>
<g>
</g>
<g>
</g>
<g>
</g>
<g>
</g>
<g>
</g>
<g>
</g>
<g>
</g>
<g>
</g>
<g>
</g>
<g>
</g>
<g>
</g>
<g>
</g>
<g>
</g>
<g>
</g>
<g>
</g>
</svg>
