<?xml version="1.0" encoding="iso-8859-1"?>
<!-- Generator: Adobe Illustrator 18.0.0, SVG Export Plug-In . SVG Version: 6.00 Build 0)  -->
<!DOCTYPE svg PUBLIC "-//W3C//DTD SVG 1.1//EN" "http://www.w3.org/Graphics/SVG/1.1/DTD/svg11.dtd">
<svg version="1.1" id="Capa_1" xmlns="http://www.w3.org/2000/svg" xmlns:xlink="http://www.w3.org/1999/xlink" x="0px" y="0px"
	 viewBox="0 0 491.181 491.181" style="enable-background:new 0 0 491.181 491.181;" xml:space="preserve">
<g id="XMLID_34_">
	<path id="XMLID_35_" d="M379.267,196.454c16.091-15.368,16.685-40.885,1.308-56.974c-15.367-16.107-40.876-16.693-56.967-1.332
		c-16.106,15.368-16.692,40.876-1.331,56.967C337.653,211.22,363.16,211.815,379.267,196.454z"/>
	<path id="XMLID_36_" d="M163.19,222.82l57.794-28.523l29.036,11.35l-95.325,91.009l0.521,0.537
		c28.62-17.855,65.824-15.376,91.315,7.396c11.398-10.186,25.717-15.994,40.565-17.895l29.036-27.713l16.075,21.353
		c3.225,4.283,8.254,6.753,13.549,6.753c1.5,0,80.092-9.048,81.72-9.232c9.305-1.06,15.97-9.466,14.92-18.771
		c-1.059-9.313-9.433-15.994-18.77-14.903l-70.162,8.013l-29.269-38.895c-2.93-3.898-2.351-3.281-5.311-6.698l-9.344-9.786
		c-1.973-2.07-8.879-7.78-12.04-9.023l-71.133-27.802c-4.42-1.7-9.402-1.499-13.676,0.593l-64.499,31.805
		c-8.398,4.155-11.848,14.317-7.708,22.716C144.598,223.437,154.695,226.975,163.19,222.82z"/>
	<path id="XMLID_37_" d="M486.448,324.699c-6.32-6.314-16.54-6.329-22.829,0.015c-7.444,7.461-20.461,7.452-27.938-0.008
		c-19.677-19.667-53.983-19.667-73.627,0.017c-7.46,7.46-20.447,7.477-27.946-0.032c-19.661-19.652-53.913-19.652-73.58,0
		l-0.306,0.288c-7.7,7.42-20.028,7.356-27.666-0.28c-20.317-20.295-53.332-20.278-74.269,0.649
		c-7.05,7.051-19.579,7.083-26.67-0.031c-19.33-19.332-53.037-19.341-72.399,0.006c-8.439,8.455-23.214,8.455-31.653,0
		c-6.305-6.304-16.532-6.296-22.836-0.006c-6.305,6.303-6.305,16.531-0.009,22.836c10.332,10.331,24.065,16.026,38.671,16.026
		c14.616,0,28.356-5.695,38.67-16.018c7.148-7.14,19.58-7.14,26.719-0.017c19.244,19.26,52.555,19.853,73.001-0.601
		c7.717-7.725,20.253-7.701,27.978,0.023c20.262,20.27,53.246,20.262,73.557,0.008l0.28-0.288
		c7.395-7.131,20.421-7.011,27.673,0.232c19.669,19.7,53.968,19.725,73.637,0.024c7.467-7.476,20.462-7.476,27.938,0
		c19.675,19.675,53.966,19.644,73.618-0.016C492.76,341.214,492.752,330.995,486.448,324.699z"/>
</g>
<g>
</g>
<g>
</g>
<g>
</g>
<g>
</g>
<g>
</g>
<g>
</g>
<g>
</g>
<g>
</g>
<g>
</g>
<g>
</g>
<g>
</g>
<g>
</g>
<g>
</g>
<g>
</g>
<g>
</g>
</svg>
