<?xml version="1.0" encoding="iso-8859-1"?>
<!-- Generator: Adobe Illustrator 18.0.0, SVG Export Plug-In . SVG Version: 6.00 Build 0)  -->
<!DOCTYPE svg PUBLIC "-//W3C//DTD SVG 1.1//EN" "http://www.w3.org/Graphics/SVG/1.1/DTD/svg11.dtd">
<svg version="1.1" id="Capa_1" xmlns="http://www.w3.org/2000/svg" xmlns:xlink="http://www.w3.org/1999/xlink" x="0px" y="0px"
	 viewBox="0 0 494.487 494.487" style="enable-background:new 0 0 494.487 494.487;" xml:space="preserve">
<g id="XMLID_311_">
	<path id="XMLID_312_" d="M247.246,0C110.696,0,0.001,110.697,0.001,247.244c0,136.548,110.695,247.243,247.245,247.243
		c136.546,0,247.241-110.695,247.241-247.243C494.487,110.697,383.792,0,247.246,0z M247.246,445.038
		c-109.071,0-197.797-88.724-197.797-197.794S138.174,49.449,247.246,49.449c109.067,0,197.795,88.725,197.795,197.795
		S356.313,445.038,247.246,445.038z"/>
	<path id="XMLID_315_" d="M247.246,100.25c-81.176,0-146.996,65.819-146.996,146.994s65.82,146.994,146.996,146.994
		c81.172,0,146.992-65.819,146.992-146.994S328.418,100.25,247.246,100.25z M247.246,344.789c-53.797,0-97.548-43.75-97.548-97.545
		c0-53.795,43.751-97.546,97.548-97.546c53.793,0,97.543,43.751,97.543,97.546C344.789,301.039,301.039,344.789,247.246,344.789z"/>
	<path id="XMLID_318_" d="M247.246,197.779c-27.334,0-49.467,22.133-49.467,49.465c0,27.331,22.133,49.465,49.467,49.465
		c27.33,0,49.463-22.134,49.463-49.465C296.708,219.912,274.576,197.779,247.246,197.779z"/>
</g>
<g>
</g>
<g>
</g>
<g>
</g>
<g>
</g>
<g>
</g>
<g>
</g>
<g>
</g>
<g>
</g>
<g>
</g>
<g>
</g>
<g>
</g>
<g>
</g>
<g>
</g>
<g>
</g>
<g>
</g>
</svg>
