<?xml version="1.0" encoding="iso-8859-1"?>
<!-- Generator: Adobe Illustrator 18.0.0, SVG Export Plug-In . SVG Version: 6.00 Build 0)  -->
<!DOCTYPE svg PUBLIC "-//W3C//DTD SVG 1.1//EN" "http://www.w3.org/Graphics/SVG/1.1/DTD/svg11.dtd">
<svg version="1.1" id="Capa_1" xmlns="http://www.w3.org/2000/svg" xmlns:xlink="http://www.w3.org/1999/xlink" x="0px" y="0px"
	 viewBox="0 0 493.819 493.819" style="enable-background:new 0 0 493.819 493.819;" xml:space="preserve">
<g id="XMLID_501_">
	<path id="XMLID_502_" d="M182.68,87.54c24.163-1.254,42.722-21.871,41.449-46.035c-1.274-24.18-21.891-42.698-46.071-41.444
		c-24.146,1.293-42.683,21.89-41.408,46.031C137.904,70.276,158.539,88.833,182.68,87.54z"/>
	<path id="XMLID_503_" d="M446.748,85.168h-11.564c0.882-1.49,1.528-3.156,1.528-5.017c0-5.548-4.486-10.035-10.033-10.035h-88.245
		c-5.545,0-10.033,4.487-10.033,10.035c0,5.546,4.488,10.034,10.033,10.034h9.017c-2.431,2.664-3.999,6.134-3.999,10.033
		c0,4.212,1.746,7.995,4.547,10.74l-69.511,10.246c-8.542-1.566-76.621-14.795-84.46-14.146c-7.684-1.589-17.305-0.492-25.789-0.04
		c-15.385,0.822-29.809,10.915-34.315,28.081l-69.097,32.491c-8.759,4.114-14.363,12.935-14.404,22.614
		c-0.041,9.701,5.527,18.539,14.266,22.713l73.194,34.98l1.077,20.125l-43.073,97.982L37.764,446.02
		c-9.759,13.464-6.78,32.277,6.663,42.057c13.424,9.74,32.236,6.799,42.055-6.664l60.024-82.639
		c1.254-1.744,2.333-3.623,3.194-5.586l37.723-85.831l40.252,72.585v83.777c0,16.615,13.483,30.1,30.101,30.1
		c16.617,0,30.1-13.484,30.1-30.1v-91.557c0-5.115-1.29-10.131-3.782-14.602l-53.87-97.121l-5.154-98.021l48.444,8.877
		c2.82,0.528,5.506,0.528,8.19,0.135l68.902-10.167c0.668,4.661,3.253,8.992,7.781,11.306c2.194,1.116,4.526,1.645,6.817,1.645
		c5.488,0,10.76-2.997,13.426-8.21l25.906-50.736h42.212c8.309,0,15.049-6.739,15.049-15.049
		C461.797,91.909,455.057,85.168,446.748,85.168z"/>
</g>
<g>
</g>
<g>
</g>
<g>
</g>
<g>
</g>
<g>
</g>
<g>
</g>
<g>
</g>
<g>
</g>
<g>
</g>
<g>
</g>
<g>
</g>
<g>
</g>
<g>
</g>
<g>
</g>
<g>
</g>
</svg>
