<?xml version="1.0" encoding="iso-8859-1"?>
<!-- Generator: Adobe Illustrator 18.0.0, SVG Export Plug-In . SVG Version: 6.00 Build 0)  -->
<!DOCTYPE svg PUBLIC "-//W3C//DTD SVG 1.1//EN" "http://www.w3.org/Graphics/SVG/1.1/DTD/svg11.dtd">
<svg version="1.1" id="Capa_1" xmlns="http://www.w3.org/2000/svg" xmlns:xlink="http://www.w3.org/1999/xlink" x="0px" y="0px"
	 viewBox="0 0 493.903 493.903" style="enable-background:new 0 0 493.903 493.903;" xml:space="preserve">
<g id="XMLID_91_">
	<path id="XMLID_92_" d="M263.119,132.904c18.706-6.858,28.306-27.594,21.431-46.29c-6.874-18.702-27.596-28.281-46.312-21.423
		c-18.691,6.876-28.275,27.604-21.4,46.291C223.694,130.192,244.433,139.779,263.119,132.904z"/>
	<path id="XMLID_93_" d="M427.239,106.561c-6.313-9.506-19.172-12.063-28.631-5.771l-53.365,35.462l-63.178,7.045
		c-2.713,0.298-11.25,3.154-13.106,3.84l-12.474,4.576c-2.903,1.064-7.665,3.485-12.862,8.327l-45.91,42.401l-37.535-30.977
		c-1.179-0.967-2.565-1.404-3.875-2.073l-20.945-64.283c13.652-12.242,18.591-36.674,10.555-61.324
		c-9.925-30.45-35.614-49.388-57.353-42.295c-21.768,7.107-31.354,37.528-21.43,67.97c8.036,24.65,26.4,41.482,44.668,43.33
		l19.865,60.992c-0.162,0.186-0.404,0.266-0.563,0.461c-7.263,8.802-6.021,21.817,2.774,29.079l10.151,8.376l3.228,9.908
		c1.693,5.229,6.553,8.554,11.779,8.554c1.274,0,2.566-0.195,3.84-0.615c0.631-0.202,1.081-0.636,1.646-0.927l20.801,17.171
		c7.926,6.542,19.56,6.276,27.16-0.752l33.744-31.17l26.32,71.658l-9.94,86.329l-39.781,86.94
		c-5.696,12.45-0.21,27.159,12.233,32.857c12.489,5.704,27.175,0.201,32.855-12.233l41.408-90.515
		c1.081-2.365,1.776-4.891,2.082-7.479l7.552-65.639l31.113,46.831l-0.147,105.676c-0.014,13.684,11.056,24.803,24.757,24.819
		c0.017,0,0.017,0,0.032,0c13.668,0,24.772-11.079,24.785-24.754l0.164-113.171c0-4.89-1.436-9.676-4.149-13.75l-49.477-74.474
		l-31.485-85.722l40.25-4.487c3.256-0.363,6.406-1.5,9.133-3.325l57.529-38.228C430.964,128.885,433.548,116.065,427.239,106.561z"
		/>
</g>
<g>
</g>
<g>
</g>
<g>
</g>
<g>
</g>
<g>
</g>
<g>
</g>
<g>
</g>
<g>
</g>
<g>
</g>
<g>
</g>
<g>
</g>
<g>
</g>
<g>
</g>
<g>
</g>
<g>
</g>
</svg>
