<?xml version="1.0" encoding="iso-8859-1"?>
<!-- Generator: Adobe Illustrator 18.0.0, SVG Export Plug-In . SVG Version: 6.00 Build 0)  -->
<!DOCTYPE svg PUBLIC "-//W3C//DTD SVG 1.1//EN" "http://www.w3.org/Graphics/SVG/1.1/DTD/svg11.dtd">
<svg version="1.1" id="Capa_1" xmlns="http://www.w3.org/2000/svg" xmlns:xlink="http://www.w3.org/1999/xlink" x="0px" y="0px"
	 viewBox="0 0 493.888 493.888" style="enable-background:new 0 0 493.888 493.888;" xml:space="preserve">
<g>
	<path id="XMLID_519_" d="M299.802,343.198c-1.525-4.156-5.626-8.554-10.665-10.103c-0.056-0.017-0.097-0.064-0.153-0.081
		c-33.27-9.79-18.409-5.417-66.46-19.541c-5.954,16.451-22.325,27.574-42.219,23.296l-26.729,73.99
		c-3.082,8.538,1.331,17.958,9.869,21.039c8.523,3.075,17.951-1.332,21.042-9.869l17.687-48.944
		c1.403,3.893,17.27,48.928,19.564,52.355c3.05,4.613,8.122,7.446,13.578,7.446c0.425,0,0.858-0.192,1.292-0.225l-14.205,39.297
		c-3.082,8.54,1.333,17.96,9.872,21.042c8.506,3.064,17.959-1.34,21.04-9.871l31.033-85.882l31.031,85.882
		c3.058,8.475,12.414,12.985,21.041,9.871c8.539-3.082,12.951-12.502,9.87-21.042L299.802,343.198z M247.625,402.052
		c-10.697-29.604-6.195-17.149-18.979-52.514c22.622,6.653,14.862,4.365,34.306,10.086L247.625,402.052z"/>
	<path id="XMLID_522_" d="M401.821,126.304c-4.87-8.186-15.447-10.866-23.657-6.019l-57.947,34.443l-7.207-20.592
		c9.237-29.146-18.288-46.978-40.741-51.271c-5.777-2.512-78.458,0.112-84.919,0.257c-8.498,0.193-15.592,6.54-16.715,14.967
		l-10.336,77.35c-1.388,10.369,6.708,19.549,17.125,19.549c8.409,0,16.025-7.126,17.077-14.975l8.384-62.713l24.558-0.546
		l-51.946,148.803l-51.943-37.66c-9.55-6.941-22.927-4.807-29.836,4.751c-6.934,9.549-4.799,22.91,4.75,29.836l76.957,55.804
		c12.143,8.804,29.243,2.68,33.15-11.669l12.768-46.744c0,0,80.184-7.495,86.611-8.37l-11.467,67.024
		c8.505,3.427,15.528,10.095,18.769,19.082l7.303,20.215c6.749-2.641,12.021-8.595,13.329-16.251l19.09-111.561
		c2.457-14.333-9.837-26.754-23.938-24.772l-51.943,7.062l13.747-31.305l1.764,5.039c3.571,10.216,15.625,14.742,25.109,9.141
		l76.083-45.22C403.997,145.091,406.684,134.497,401.821,126.304z"/>
	<path id="XMLID_523_" d="M291.208,78.573c20.745,9.116,44.946-0.305,54.063-21.049c9.108-20.744-0.329-44.939-21.064-54.047
		c-20.752-9.115-44.947,0.314-54.055,21.058C261.043,45.278,270.472,69.465,291.208,78.573z"/>
</g>
<g>
</g>
<g>
</g>
<g>
</g>
<g>
</g>
<g>
</g>
<g>
</g>
<g>
</g>
<g>
</g>
<g>
</g>
<g>
</g>
<g>
</g>
<g>
</g>
<g>
</g>
<g>
</g>
<g>
</g>
</svg>
