<?xml version="1.0" encoding="iso-8859-1"?>
<!-- Generator: Adobe Illustrator 18.0.0, SVG Export Plug-In . SVG Version: 6.00 Build 0)  -->
<!DOCTYPE svg PUBLIC "-//W3C//DTD SVG 1.1//EN" "http://www.w3.org/Graphics/SVG/1.1/DTD/svg11.dtd">
<svg version="1.1" id="Capa_1" xmlns="http://www.w3.org/2000/svg" xmlns:xlink="http://www.w3.org/1999/xlink" x="0px" y="0px"
	 viewBox="0 0 494.938 494.938" style="enable-background:new 0 0 494.938 494.938;" xml:space="preserve">
<g id="XMLID_38_">
	<path id="XMLID_48_" d="M143.109,147.014c23.357,0,42.296-18.932,42.296-42.289c0-23.357-18.939-42.288-42.296-42.288
		c-23.357,0-42.289,18.931-42.289,42.288C100.82,128.082,119.752,147.014,143.109,147.014z"/>
	<path id="XMLID_49_" d="M264.168,92.173l-61.751,62.005l-51.532,0.976h-15.543c-20.117,0-36.418,16.301-36.418,36.417
		c0,159.914-0.142,67.871-0.142,196.775l-32.415,75.914c-4.773,11.186,0.419,24.128,11.615,28.907
		c11.288,4.802,24.177-0.517,28.911-11.605l32.259-75.575c2.431-5.695,3.684-11.823,3.684-18.015v-42.933h12.757l17.979,30.868
		l-8.16,71.409c-1.381,12.079,7.301,23.001,19.39,24.382c11.986,1.405,22.991-7.243,24.382-19.385l8.995-78.671
		c0.536-4.72-0.454-9.483-2.856-13.587l-28.022-48.14v-81.135l21.386,9.067c8.624,3.651,18.526,0.02,22.771-8.228l35.158-68.32
		c3.539-6.867,2.036-14.856-2.957-20.19l25.723-25.832c6.935-6.96,6.911-18.228-0.053-25.163
		C282.386,85.185,271.108,85.224,264.168,92.173z M207.38,200.637l-20.079-8.513v-0.553c0-0.349-0.092-0.663-0.1-1.01l23.853-1.184
		c0.844-0.042,1.598-0.421,2.417-0.579L207.38,200.637z"/>
	<circle id="XMLID_53_" cx="340.609" cy="41.304" r="41.304"/>
	<path id="XMLID_54_" d="M423.384,191.868l-93.97-47.643c-3.929-2.001-8.622-1.803-12.402,0.505
		c-3.765,2.316-6.058,6.413-6.058,10.832V424.89c0,7.017,5.693,12.709,12.71,12.709c7.016,0,12.709-5.692,12.709-12.709V275.097
		l68.551,34.757v163.049c0,7.017,5.692,12.709,12.709,12.709c7.015,0,12.709-5.692,12.709-12.709V203.203
		C430.343,198.413,427.654,194.035,423.384,191.868z M336.374,246.592v-70.336l68.551,34.749v70.347L336.374,246.592z"/>
</g>
<g>
</g>
<g>
</g>
<g>
</g>
<g>
</g>
<g>
</g>
<g>
</g>
<g>
</g>
<g>
</g>
<g>
</g>
<g>
</g>
<g>
</g>
<g>
</g>
<g>
</g>
<g>
</g>
<g>
</g>
</svg>
