<?xml version="1.0" encoding="iso-8859-1"?>
<!-- Generator: Adobe Illustrator 18.0.0, SVG Export Plug-In . SVG Version: 6.00 Build 0)  -->
<!DOCTYPE svg PUBLIC "-//W3C//DTD SVG 1.1//EN" "http://www.w3.org/Graphics/SVG/1.1/DTD/svg11.dtd">
<svg version="1.1" id="Capa_1" xmlns="http://www.w3.org/2000/svg" xmlns:xlink="http://www.w3.org/1999/xlink" x="0px" y="0px"
	 viewBox="0 0 496.852 496.852" style="enable-background:new 0 0 496.852 496.852;" xml:space="preserve">
<g id="XMLID_70_">
	<path id="XMLID_71_" d="M344.444,154.715c15.277-14.597,15.824-38.813,1.236-54.098c-14.589-15.286-38.82-15.841-54.08-1.253
		c-15.295,14.597-15.86,38.803-1.273,54.089C304.918,168.739,329.148,169.305,344.444,154.715z"/>
	<path id="XMLID_72_" d="M486.268,110.826c-14.605-15.286-38.82-15.842-54.098-1.255c-15.277,14.599-15.844,38.805-1.254,54.091
		c14.587,15.286,38.821,15.85,54.098,1.263C500.291,150.328,500.858,126.113,486.268,110.826z"/>
	<path id="XMLID_73_" d="M414.314,210.616h-83.205l-53.074-26.148l23.935,6.032l25.978,6.553h86.367c2.103,0,4.151,0.23,6.146,0.617
		c0.813-2.543,1.219-5.236,0.813-8.063c-1.447-9.874-10.666-16.742-20.522-15.259l-70.79,10.412l-32.106-4.891
		c-1.203-1.97-2.597-3.86-4.258-5.6l-9.713-10.173c-6.042-6.323-14.324-9.988-23.068-10.191c-8.74-0.203-17.185,3.073-23.508,9.104
		l-85.643,81.757l-46.73,66.595l-93.698,54.566c-10.791,6.277-14.445,20.126-8.159,30.907c6.342,10.88,20.223,14.404,30.908,8.16
		l97.881-57.003c2.773-1.607,5.159-3.779,7.014-6.385l30.714-42.944l59.484,12.715l-32.04,63.955
		c-5.596,11.163-1.075,24.744,10.085,30.343c11.269,5.633,24.78,0.989,30.326-10.084l45.143-90.085
		c6.624-13.157-1.007-29.151-15.471-32.232l-24.126-5.156l37.957-36.26l-18.898-14.933l56.834,28.001
		c2.488,1.228,5.229,1.864,8,1.864h87.427c9.995,0,18.086-8.099,18.086-18.085C432.4,218.713,424.309,210.616,414.314,210.616z"/>
</g>
<g>
</g>
<g>
</g>
<g>
</g>
<g>
</g>
<g>
</g>
<g>
</g>
<g>
</g>
<g>
</g>
<g>
</g>
<g>
</g>
<g>
</g>
<g>
</g>
<g>
</g>
<g>
</g>
<g>
</g>
</svg>
