<?xml version="1.0" encoding="iso-8859-1"?>
<!-- Generator: Adobe Illustrator 18.0.0, SVG Export Plug-In . SVG Version: 6.00 Build 0)  -->
<!DOCTYPE svg PUBLIC "-//W3C//DTD SVG 1.1//EN" "http://www.w3.org/Graphics/SVG/1.1/DTD/svg11.dtd">
<svg version="1.1" id="Capa_1" xmlns="http://www.w3.org/2000/svg" xmlns:xlink="http://www.w3.org/1999/xlink" x="0px" y="0px"
	 viewBox="0 0 493.045 493.045" style="enable-background:new 0 0 493.045 493.045;" xml:space="preserve">
<g id="XMLID_377_">
	<path id="XMLID_378_" d="M478.979,437.789c-6.5-5.907-16.521-5.665-22.726,0.546c-7.383,7.365-19.388,7.35-26.801-0.048
		c-20.215-20.206-53.101-20.19-73.933,0.642c-6.82,6.787-18.673,6.9-25.582-0.049c-19.87-19.836-52.21-19.853-72.077,0.049
		c-8.145,8.121-22.333,8.137-30.463-0.016c-6.411-6.422-16.827-6.422-23.238,0c-6.428,6.402-6.428,16.818-0.017,23.238
		c10.28,10.289,23.953,15.953,38.495,15.953c14.542,0,28.207-5.664,38.47-15.953c7.07-7.061,18.553-7.029,25.623,0.016
		c9.621,9.615,22.405,14.927,36.015,14.927h0.008c13.602-0.017,26.393-5.311,36.649-15.552c7.382-7.382,19.402-7.415,26.851,0.033
		c20.182,20.19,53.035,20.156,74.285-1.141C486.163,453.676,485.464,443.726,478.979,437.789z"/>
	<path id="XMLID_379_" d="M217.775,206.885l-40.919,68.097c-7.711,12.841-3.555,29.5,9.286,37.204
		c12.799,7.719,29.49,3.578,37.21-9.277l53.693-89.363c7.231-12.037,4.077-27.605-7.277-35.887l-39.482-28.776l29.025-14.22
		l-0.994,4.83c-2.352,11.443,4.582,22.76,15.856,25.855l73.193,20.111c11.693,3.24,24.003-3.611,27.268-15.521
		c3.251-11.811-3.699-24.025-15.519-27.268l-53.156-14.604l7.968-38.777c0.874-4.236,0.819-9.87-3.626-18.953l-6.636-13.545
		c-8.579-17.496-29.749-24.75-47.258-16.162l-92.774,45.467c-22.582,11.074-31.914,38.342-20.848,60.924
		C149.091,159.909,153.336,159.939,217.775,206.885z"/>
	<path id="XMLID_380_" d="M371.424,77.864c20.343-9.982,28.752-34.539,18.77-54.89c-9.96-20.351-34.539-28.745-54.882-18.778
		c-20.335,9.983-28.736,34.537-18.768,54.889C326.51,79.419,351.081,87.831,371.424,77.864z"/>
	<path id="XMLID_381_" d="M255.572,380.749c8.128,0,14.717-6.598,14.717-14.717v-11.652c0-8.12-6.588-14.717-14.717-14.717
		c-93.648,0-137.256,0-232.148,0c-8.128,0-14.717,6.597-14.717,14.717v123.951c0,8.119,6.589,14.715,14.717,14.715h112.314
		c8.129,0,14.717-6.596,14.717-14.715v-97.582H255.572z"/>
</g>
<g>
</g>
<g>
</g>
<g>
</g>
<g>
</g>
<g>
</g>
<g>
</g>
<g>
</g>
<g>
</g>
<g>
</g>
<g>
</g>
<g>
</g>
<g>
</g>
<g>
</g>
<g>
</g>
<g>
</g>
</svg>
