<?xml version="1.0" encoding="iso-8859-1"?>
<!-- Generator: Adobe Illustrator 18.0.0, SVG Export Plug-In . SVG Version: 6.00 Build 0)  -->
<!DOCTYPE svg PUBLIC "-//W3C//DTD SVG 1.1//EN" "http://www.w3.org/Graphics/SVG/1.1/DTD/svg11.dtd">
<svg version="1.1" id="Capa_1" xmlns="http://www.w3.org/2000/svg" xmlns:xlink="http://www.w3.org/1999/xlink" x="0px" y="0px"
	 viewBox="0 0 494.772 494.772" style="enable-background:new 0 0 494.772 494.772;" xml:space="preserve">
<g id="XMLID_127_">
	<path id="XMLID_128_" d="M489.847,409.117c-6.561-6.545-17.167-6.529-23.697,0.042c-7.741,7.756-19.994,7.311-27.323-0.017
		c-19.969-19.984-54.78-19.984-74.749,0.017c-7.298,7.297-20.011,7.28-27.332-0.017c-19.781-19.816-54.909-19.831-74.726-0.017
		l-0.29,0.299c-7.579,7.306-19.589,7.175-27.072-0.282c-19.961-19.954-54.135-20.607-75.387,0.653
		c-6.86,6.853-19.17,6.885-26.07-0.032c-20.26-20.267-53.225-20.267-73.516,0.016c-8.273,8.298-22.777,8.29-31.067-0.007
		c-6.546-6.554-17.16-6.538-23.705-0.009c-6.547,6.546-6.547,17.152-0.009,23.707c10.485,10.475,24.417,16.256,39.243,16.256
		c14.845,0,28.776-5.781,39.245-16.25c7.199-7.207,18.911-7.207,26.126,0c19.607,19.638,53.233,20.268,74.098-0.636
		c7.32-7.305,20.025-7.33,27.378,0.031c20.106,20.098,53.563,21.124,74.694,0l0.289-0.297c7.232-6.957,19.969-6.836,27.064,0.25
		c19.985,19.984,54.782,19.984,74.742,0.017c7.322-7.314,20.026-7.321,27.347,0c20.623,20.621,54.112,20.686,74.75-0.025
		C496.417,426.261,496.4,415.647,489.847,409.117z"/>
	<path id="XMLID_129_" d="M283.644,219.977c-16.545,13.497-19.008,37.873-5.528,54.419c13.519,16.547,37.887,18.992,54.434,5.496
		c16.556-13.512,19.008-37.871,5.505-54.41C324.549,208.952,300.191,206.466,283.644,219.977z"/>
	<path id="XMLID_130_" d="M163.095,337.135c-2.178,13.714,7.153,26.605,20.858,28.8c13.753,2.164,26.602-7.176,28.8-20.865
		l20.742-129.838c0.316-1.968,0.396-3.962,0.227-5.949l-1.202-15.173l-51.917,33.48L163.095,337.135z"/>
	<path id="XMLID_131_" d="M167.931,216.822l55.443-35.765h44.232l-24.206,7.797l0.766,0.935
		c11.632,14.248,32.601,16.371,46.855,4.74l11.025-8.992c6.837-5.586,11.189-13.665,12.068-22.455
		c0.896-8.789-1.744-17.564-7.33-24.408L241.446,58.66c-12.922-15.844-36.273-18.2-52.117-5.27
		c-12.415,10.138-18.661,25.263-14.973,42.852l4.181,52.916l21.494-13.866c6.506-4.197,10.656-7.733,18.162-5.352l49.413,15.925
		h-49.413c-3.373,0-6.691,0.977-9.541,2.809l-59.802,38.574c-8.167,5.271-10.517,16.16-5.247,24.328
		C148.866,219.728,159.754,222.1,167.931,216.822z"/>
</g>
<g>
</g>
<g>
</g>
<g>
</g>
<g>
</g>
<g>
</g>
<g>
</g>
<g>
</g>
<g>
</g>
<g>
</g>
<g>
</g>
<g>
</g>
<g>
</g>
<g>
</g>
<g>
</g>
<g>
</g>
</svg>
