<?xml version="1.0" encoding="iso-8859-1"?>
<!-- Generator: Adobe Illustrator 18.0.0, SVG Export Plug-In . SVG Version: 6.00 Build 0)  -->
<!DOCTYPE svg PUBLIC "-//W3C//DTD SVG 1.1//EN" "http://www.w3.org/Graphics/SVG/1.1/DTD/svg11.dtd">
<svg version="1.1" id="Capa_1" xmlns="http://www.w3.org/2000/svg" xmlns:xlink="http://www.w3.org/1999/xlink" x="0px" y="0px"
	 viewBox="0 0 494.672 494.672" style="enable-background:new 0 0 494.672 494.672;" xml:space="preserve">
<g id="XMLID_188_">
	<path id="XMLID_189_" d="M478.58,455.941c-6.263-6.254-16.372-6.229-22.602,0.026c-7.199,7.215-18.856,7.191-26.063-0.009
		c-19.634-19.659-51.607-19.659-71.292,0.017c-6.906,6.899-19.124,6.916-26.053-0.008c-18.749-18.78-52.47-18.822-71.31,0.016
		c-7.19,7.166-18.864,7.175-26.063-0.016c-19.64-19.668-51.633-19.668-71.909,0.61c-6.623,6.648-18.179,6.648-24.867-0.025
		c-19.326-19.324-50.782-19.324-70.106,0.017c-7.918,7.927-21.723,7.91-29.625,0c-6.236-6.245-16.362-6.245-22.601-0.017
		c-6.254,6.238-6.254,16.364-0.017,22.611c10.001,10.007,23.296,15.518,37.437,15.509c14.146,0,27.433-5.51,37.416-15.503
		c6.866-6.863,18.029-6.871,24.928,0.026c18.713,18.697,50.73,19.307,70.665-0.626c7.173-7.199,18.879-7.191,26.113,0.032
		c19.631,19.624,51.59,19.633,71.274-0.049c6.856-6.858,19.155-6.891,26.079,0.032c19.048,19.023,52.185,19.05,71.274-0.032
		c7.176-7.167,18.865-7.174,26.056,0.007c19.675,19.676,51.617,19.733,71.291-0.016C484.844,472.288,484.827,462.171,478.58,455.941
		z"/>
	<path id="XMLID_190_" d="M278.128,391.323c12.575,17.108,37.083,21.488,54.977,8.359c17.451-12.825,21.255-37.399,8.361-54.927
		c-12.634-17.183-37.176-21.463-54.944-8.403C268.988,349.23,265.25,373.854,278.128,391.323z"/>
	<path id="XMLID_191_" d="M118.486,142.772c0.67,1.43,43.874,93.951,44.819,95.216c0,0,62.469,84.927,62.528,85.002
		c9.824,13.362,28.621,16.223,41.975,6.405l10.352-7.6c5.911-4.339,12.777-14.172,12.593-21.981
		c-0.661-27.068-0.275-11.08-1.872-78.017c-0.059-2.34-0.528-4.648-1.381-6.822l-27.05-68.908
		c-4.03-10.276-15.643-15.353-25.895-11.306c-10.268,4.04-15.335,15.628-11.296,25.896l25.763,65.632l1.279,53.472l-11.155-45.813
		l-27.05-68.907c-4.105-10.46-2.274-21.749,3.805-30.253l-2.676-15.828l13.53-91.494c1.939-13.093-7.108-25.286-20.211-27.218
		c-13.034-1.872-25.285,7.1-27.226,20.21l-14.088,95.248c-0.786,5.35,0.87,12.176,1.797,17.677l-3.01-6.439l-2.759-96.25
		c-0.376-13.238-11.331-23.598-24.65-23.279c-13.236,0.376-23.655,11.413-23.279,24.65l2.902,101.226
		C116.319,136.575,117.09,139.796,118.486,142.772z"/>
</g>
<g>
</g>
<g>
</g>
<g>
</g>
<g>
</g>
<g>
</g>
<g>
</g>
<g>
</g>
<g>
</g>
<g>
</g>
<g>
</g>
<g>
</g>
<g>
</g>
<g>
</g>
<g>
</g>
<g>
</g>
</svg>
