<?xml version="1.0" encoding="iso-8859-1"?>
<!-- Generator: Adobe Illustrator 18.0.0, SVG Export Plug-In . SVG Version: 6.00 Build 0)  -->
<!DOCTYPE svg PUBLIC "-//W3C//DTD SVG 1.1//EN" "http://www.w3.org/Graphics/SVG/1.1/DTD/svg11.dtd">
<svg version="1.1" id="Capa_1" xmlns="http://www.w3.org/2000/svg" xmlns:xlink="http://www.w3.org/1999/xlink" x="0px" y="0px"
	 viewBox="0 0 495.087 495.087" style="enable-background:new 0 0 495.087 495.087;" xml:space="preserve">
<g id="XMLID_27_">
	<path id="XMLID_28_" d="M43.739,384.138c12.339-11.756,27.975-18.569,44.725-20.276l0.627-55.225
		c-3.123-2.408-38.603-38.168-41.373-40.955l46.414,27.507c4.284,2.529,9.245,3.182,13.785,2.126l74.485-17.353
		c10.067-2.352,16.316-12.418,13.981-22.483c-2.354-10.073-12.387-16.363-22.468-13.98l-67.173,15.655l-39.941-23.675
		c27.977,8.156,22.096,6.441,35.77,10.444l44.918-10.469l39.891-36.075c7.65-6.933,8.264-18.769,1.322-26.435
		c-6.941-7.673-18.797-8.246-26.443-1.328l-57.062,51.601L66.013,210.43c-0.594-0.201-10.016-1.949-13.399-1.949H37.17
		c-20.533,0-37.17,16.645-37.17,37.17v131.296C14.365,370.666,31.597,373.018,43.739,384.138z"/>
	<path id="XMLID_29_" d="M45.094,197.626c23.835,0,43.162-19.319,43.162-43.162c0-23.835-19.327-43.168-43.162-43.168
		c-23.852,0-43.178,19.334-43.178,43.168C1.916,178.308,21.242,197.626,45.094,197.626z"/>
	<path id="XMLID_30_" d="M293.447,183.034c-8.051,6.483-9.324,18.256-2.85,26.316l51.504,64.099
		c1.337,1.658,2.932,3.068,4.719,4.188l34.045,21.121c-0.997,2.818-1.578,5.757-1.883,8.77l22.626-6.603l-39.939,23.674
		l-67.174-15.654c-10.114-2.335-20.115,3.93-22.469,13.979c-2.334,10.065,3.914,20.138,13.98,22.482l74.486,17.354
		c4.541,1.054,9.501,0.411,13.785-2.126l46.43-27.507l-30.727,30.745c22.369-3.358,46.157,2.56,63.324,17.963
		c4.541-3.662,9.727-6.07,15.107-7.497v-63.243c0-20.527-16.639-37.162-37.154-37.162h-15.445c-1.16,0-2.256,0.225-3.383,0.33
		l-43.145-26.751l-49.508-61.601C313.305,177.858,301.549,176.585,293.447,183.034z"/>
	<path id="XMLID_31_" d="M423.318,263.07c23.867,0,43.179-19.319,43.179-43.153c0-23.844-19.312-43.17-43.179-43.17
		c-23.836,0-43.16,19.327-43.16,43.17C380.158,243.751,399.482,263.07,423.318,263.07z"/>
	<path id="XMLID_32_" d="M271.803,141.42c24.352,0,44.081-19.737,44.081-44.08c0-24.35-19.729-44.079-44.081-44.079
		c-24.35,0-44.094,19.729-44.094,44.079C227.709,121.683,247.453,141.42,271.803,141.42z"/>
	<path id="XMLID_33_" d="M490.3,402.03c-6.329-6.344-16.652-6.361-23.013,0.016c-7.523,7.522-20.632,7.489-28.152,0
		c-19.777-19.825-54.339-19.865-74.213,0.008c-7.488,7.514-20.614,7.497-28.135-0.017c-19.52-19.535-54.645-19.567-74.228,0.025
		c-7.763,7.746-20.357,7.763-28.151-0.025c-19.794-19.816-53.742-20.436-74.823,0.628c-7.184,7.206-19.698,7.19-26.913,0
		c-19.455-19.495-53.436-19.503-72.955,0c-8.518,8.511-23.401,8.511-31.921,0c-6.36-6.361-16.651-6.353-23.013-0.008
		c-6.361,6.354-6.361,16.661,0,23.022c10.404,10.404,24.239,16.145,38.973,16.145c14.738,0,28.557-5.741,38.975-16.137
		c7.214-7.199,19.729-7.231,26.928,0c19.519,19.494,52.776,20.123,73.565-0.628c7.539-7.537,20.602-7.57,28.2,0.033
		c20.438,20.405,53.679,20.445,74.214-0.056c7.375-7.394,20.71-7.41,28.118,0.015c19.857,19.834,54.386,19.826,74.195,0.024
		c7.569-7.562,20.648-7.562,28.168-0.016c19.841,19.818,54.419,19.818,74.212-0.017C496.678,418.675,496.678,408.376,490.3,402.03z"
		/>
</g>
<g>
</g>
<g>
</g>
<g>
</g>
<g>
</g>
<g>
</g>
<g>
</g>
<g>
</g>
<g>
</g>
<g>
</g>
<g>
</g>
<g>
</g>
<g>
</g>
<g>
</g>
<g>
</g>
<g>
</g>
</svg>
