<?xml version="1.0" encoding="iso-8859-1"?>
<!-- Generator: Adobe Illustrator 18.0.0, SVG Export Plug-In . SVG Version: 6.00 Build 0)  -->
<!DOCTYPE svg PUBLIC "-//W3C//DTD SVG 1.1//EN" "http://www.w3.org/Graphics/SVG/1.1/DTD/svg11.dtd">
<svg version="1.1" id="Capa_1" xmlns="http://www.w3.org/2000/svg" xmlns:xlink="http://www.w3.org/1999/xlink" x="0px" y="0px"
	 viewBox="0 0 493.425 493.425" style="enable-background:new 0 0 493.425 493.425;" xml:space="preserve">
<g id="XMLID_132_">
	<path id="XMLID_133_" d="M488.519,428.906c-6.561-6.527-17.138-6.527-23.634,0.031c-3.623,3.642-8.454,5.635-13.596,5.635
		c3.762,0-6.446,1.533-13.66-5.649c-20.198-20.19-53.608-20.941-74.524,0c-7.28,7.278-19.978,7.278-27.257,0
		c-19.896-19.896-54.563-19.995-74.59,0.031c-7.247,7.247-19.912,7.28-27.224-0.031c-19.912-19.896-53.959-20.565-75.193,0.636
		c-6.904,6.904-19.097,6.889-26-0.015c-19.585-19.586-53.681-19.62-73.315,0c-8.258,8.259-22.704,8.259-30.995,0
		c-6.529-6.53-17.104-6.53-23.632,0c-6.53,6.526-6.53,17.105,0,23.632c10.446,10.445,24.351,16.209,39.139,16.209
		c14.787,0,28.677-5.764,39.123-16.192c6.969-6.97,19.063-7.034,26.049,0c19.471,19.456,53.208,20.06,73.902-0.62
		c7.263-7.279,20.06-7.231,27.274-0.016c19.913,19.945,54.661,19.929,74.556,0c7.28-7.28,19.977-7.28,27.258,0
		c19.912,19.897,54.612,19.945,74.539,0.016c7.582-7.623,19.79-7.49,27.258-0.016c20.81,20.776,54.13,20.451,74.556-0.018
		C495.064,446.011,495.047,435.419,488.519,428.906z"/>
	<path id="XMLID_134_" d="M219.761,186.614c16.501-13.448,18.958-37.767,5.509-54.269c-13.48-16.503-37.784-18.948-54.285-5.485
		c-16.509,13.483-18.958,37.77-5.485,54.27C178.966,197.616,203.26,200.096,219.761,186.614z"/>
	<path id="XMLID_135_" d="M295.337,211.014c-2.677-33.264-4.382-51.885-14.159-164.08c-1.191-13.79-13.18-23.975-27.151-22.802
		c-13.791,1.191-23.999,13.352-22.793,27.143l15.172,176.844L295.337,211.014z"/>
	<path id="XMLID_136_" d="M214.914,228.998l28.014-0.78l-9.384-11.49c-11.514-14.151-32.47-16.354-46.729-4.735l-10.993,8.979
		c-14.134,11.521-16.354,32.496-4.725,46.729l65.154,79.797c12.902,15.797,36.178,18.148,51.985,5.254
		c13.025-10.642,18.395-26.147,14.925-42.746c-0.881-11.131-1.656-20.924-2.358-29.82l-29.891,10.921
		c-7.86,2.872-13.075,5.515-20.492,0.782l-44.982-29.102l49.274,13.809c3.493,0.995,7.272,0.849,10.748-0.408l59.637-21.769
		c9.109-3.332,13.792-13.402,10.472-22.508c-3.313-9.108-13.424-13.762-22.5-10.465l-54.335,19.83L214.914,228.998z"/>
</g>
<g>
</g>
<g>
</g>
<g>
</g>
<g>
</g>
<g>
</g>
<g>
</g>
<g>
</g>
<g>
</g>
<g>
</g>
<g>
</g>
<g>
</g>
<g>
</g>
<g>
</g>
<g>
</g>
<g>
</g>
</svg>
