<?xml version="1.0" encoding="iso-8859-1"?>
<!-- Generator: Adobe Illustrator 18.0.0, SVG Export Plug-In . SVG Version: 6.00 Build 0)  -->
<!DOCTYPE svg PUBLIC "-//W3C//DTD SVG 1.1//EN" "http://www.w3.org/Graphics/SVG/1.1/DTD/svg11.dtd">
<svg version="1.1" id="Capa_1" xmlns="http://www.w3.org/2000/svg" xmlns:xlink="http://www.w3.org/1999/xlink" x="0px" y="0px"
	 viewBox="0 0 493.302 493.302" style="enable-background:new 0 0 493.302 493.302;" xml:space="preserve">
<g id="XMLID_463_">
	<path id="XMLID_464_" d="M177.28,434.986c0,16.157,13.112,29.268,29.267,29.268c16.157,0,29.266-13.11,29.266-29.268v-3.028H177.28
		V434.986z"/>
	<path id="XMLID_465_" d="M206.547,237.882c-16.154,0-29.267,13.109-29.267,29.266v78.07h58.532v-78.07
		C235.813,250.992,222.704,237.882,206.547,237.882z"/>
	<path id="XMLID_466_" d="M257.488,434.986c0,16.157,13.111,29.268,29.267,29.268c16.155,0,29.267-13.11,29.267-29.268v-3.028
		h-58.533V434.986z"/>
	<path id="XMLID_467_" d="M286.755,237.882c-16.155,0-29.267,13.109-29.267,29.266v78.07h58.533v-78.07
		C316.022,250.992,302.91,237.882,286.755,237.882z"/>
	<path id="XMLID_468_" d="M246.651,143.552c31.589,0,57.254-25.63,57.254-57.27c0-31.605-25.665-57.234-57.254-57.234
		c-31.638,0-57.255,25.629-57.255,57.234C189.396,117.922,215.014,143.552,246.651,143.552z"/>
	<path id="XMLID_469_" d="M476.185,367.822c-2.808-9.425-10.785-16.293-20.832-17.436c-0.188-1.783-0.49-3.519-1.028-5.167
		c-3.351-9.846-12.387-17.065-23.359-17.065c-10.973,0-20.009,7.219-23.359,17.065c-0.841,2.508-1.582,5.084-1.582,7.878v13.815
		h-6.614c-13.682-33.693-80.175-196.953-80.175-196.953c-4.375-10.736-15.398-16.309-26.319-14.877
		c-7.879-0.943-86.537-0.59-92.529,0c-10.955-1.432-21.979,4.141-26.355,14.877l-71.305,175.26l-8.852,21.693h-6.596v-13.815
		c0-2.794-0.742-5.37-1.582-7.878c-3.352-9.846-12.389-17.065-23.361-17.065c-10.971,0-20.01,7.219-23.359,17.065
		c-0.537,1.648-0.824,3.384-1.027,5.167c-10.046,1.143-18.022,8.012-20.832,17.436C7.405,369.976,0,378.206,0,388.587
		c0,10.385,7.405,18.613,17.132,20.768c2.796,9.425,10.771,16.274,20.817,17.421c0.203,1.765,0.49,3.531,1.027,5.182
		c3.35,9.845,12.389,17.049,23.359,17.049c10.973,0,20.01-7.204,23.361-17.049c0.84-2.524,1.582-5.101,1.582-7.893v-13.801h318.745
		v13.801c0,2.793,0.741,5.369,1.582,7.893c3.351,9.845,12.387,17.049,23.359,17.049c10.973,0,20.009-7.204,23.359-17.049
		c0.538-1.65,0.824-3.417,1.028-5.182c10.047-1.146,18.024-7.996,20.816-17.421c9.727-2.154,17.132-10.383,17.132-20.768
		C493.302,378.206,485.897,369.976,476.185,367.822z M147.729,366.912l10.029-21.693v-78.07c0-15.888,7.71-29.857,19.473-38.774
		c8.18-6.21,18.26-10.015,29.316-10.015c16.645,0,31.303,8.365,40.104,21.086c8.8-12.721,23.459-21.086,40.104-21.086
		c11.058,0,21.138,3.805,29.3,10.015c11.781,8.917,19.488,22.887,19.488,38.774v78.07l10.014,21.693H147.729z"/>
</g>
<g>
</g>
<g>
</g>
<g>
</g>
<g>
</g>
<g>
</g>
<g>
</g>
<g>
</g>
<g>
</g>
<g>
</g>
<g>
</g>
<g>
</g>
<g>
</g>
<g>
</g>
<g>
</g>
<g>
</g>
</svg>
