<?xml version="1.0" encoding="iso-8859-1"?>
<!-- Generator: Adobe Illustrator 18.0.0, SVG Export Plug-In . SVG Version: 6.00 Build 0)  -->
<!DOCTYPE svg PUBLIC "-//W3C//DTD SVG 1.1//EN" "http://www.w3.org/Graphics/SVG/1.1/DTD/svg11.dtd">
<svg version="1.1" id="Capa_1" xmlns="http://www.w3.org/2000/svg" xmlns:xlink="http://www.w3.org/1999/xlink" x="0px" y="0px"
	 viewBox="0 0 495.946 495.946" style="enable-background:new 0 0 495.946 495.946;" xml:space="preserve">
<path id="XMLID_413_" d="M361.386,147.069l1.68-23.857c1.21,0.242,2.324,0.661,3.646,0.661c15.578,0,23.261-16.853,25.941-35.544
	c5.684-2.985,9.766-8.67,9.944-15.563c0.177-7.232-3.939-13.461-9.944-16.594c-2.697-18.643-10.395-35.447-25.941-35.447
	c-11.605,0-18.772,9.46-22.807,21.953c-7.684,0.162-14.221,3.906-18.258,9.782l-129.701-3.356l-2.032-3.131
	c-5.247-8.088-14.739-11.705-23.633-9.961C165.763,16.238,156.06,0,138.594,0c-21.018,0-30.862,23.374-33.833,48.313
	c-6.521,2.68-11.219,8.99-11.412,16.514c-0.194,7.797,4.583,14.494,11.396,17.305c2.954,25.018,12.783,48.505,33.849,48.505
	c17.644,0,27.361-16.562,31.833-36.626c49.863,77.029,31.219,47.265,81.823,130.572l2.471,91.381
	c-1.921,4.182-16.723,68.942-17.773,73.445l-72.493,57.516c-11.898,9.426-13.914,26.713-4.455,38.594
	c9.411,11.914,26.715,13.914,38.595,4.457l80.017-63.455c4.873-3.842,8.281-9.218,9.701-15.271l16.028-62.422l34.883,38.597v81.031
	c0,15.174,12.317,27.49,27.489,27.49c15.175,0,27.492-12.316,27.492-27.49v-91.637c0-6.812-2.52-13.382-7.104-18.436l-49.087-54.27
	l-2.228-82.389l24.326-68.602C360.806,151.17,361.24,149.138,361.386,147.069z M306.101,169.765
	c-16.611,2.373-32.154,2.309-32.154,2.309l-53.867-85.649c29.943,0.742,20.34,0.516,46.457,1.178
	c-5.617,7.103-9.025,16.029-8.75,25.796c0.565,21.71,18.354,38.917,39.92,38.917c0.37,0,0.76,0,1.129-0.015
	c22.1-0.599,39.517-18.968,38.92-41.083c-0.211-8.184-2.891-15.736-7.297-21.969l21.064,0.548
	c2.682,6.474,4.359,13.479,4.553,20.937C356.884,140.58,334.929,165.568,306.101,169.765z"/>
<g>
</g>
<g>
</g>
<g>
</g>
<g>
</g>
<g>
</g>
<g>
</g>
<g>
</g>
<g>
</g>
<g>
</g>
<g>
</g>
<g>
</g>
<g>
</g>
<g>
</g>
<g>
</g>
<g>
</g>
</svg>
