<?xml version="1.0" encoding="iso-8859-1"?>
<!-- Generator: Adobe Illustrator 18.0.0, SVG Export Plug-In . SVG Version: 6.00 Build 0)  -->
<!DOCTYPE svg PUBLIC "-//W3C//DTD SVG 1.1//EN" "http://www.w3.org/Graphics/SVG/1.1/DTD/svg11.dtd">
<svg version="1.1" id="Capa_1" xmlns="http://www.w3.org/2000/svg" xmlns:xlink="http://www.w3.org/1999/xlink" x="0px" y="0px"
	 viewBox="0 0 489.247 489.247" style="enable-background:new 0 0 489.247 489.247;" xml:space="preserve">
<path id="XMLID_325_" d="M489.247,73.462c0-7.463-6.048-13.51-13.5-13.51h-48.281c-7.441,0-13.489,6.047-13.489,13.51v32.229
	h-40.806c-7.34,0-13.29,5.95-13.29,13.29v27.652h-71.997v-27.652c0-7.34-5.95-13.29-13.29-13.29H161.801
	C72.441,105.692,0,178.132,0,267.493c0,89.36,72.441,161.802,161.801,161.802c89.355,0,161.802-72.441,161.802-161.802h152.144
	c7.452,0,13.5-6.048,13.5-13.505v-48.146V105.692V73.462z M161.806,329.148c-34.049,0-61.649-27.601-61.649-61.649
	c0-34.051,27.6-61.653,61.649-61.653c34.052,0,61.652,27.602,61.652,61.653C223.458,301.547,195.857,329.148,161.806,329.148z"/>
<g>
</g>
<g>
</g>
<g>
</g>
<g>
</g>
<g>
</g>
<g>
</g>
<g>
</g>
<g>
</g>
<g>
</g>
<g>
</g>
<g>
</g>
<g>
</g>
<g>
</g>
<g>
</g>
<g>
</g>
</svg>
