<?xml version="1.0" encoding="iso-8859-1"?>
<!-- Generator: Adobe Illustrator 18.0.0, SVG Export Plug-In . SVG Version: 6.00 Build 0)  -->
<!DOCTYPE svg PUBLIC "-//W3C//DTD SVG 1.1//EN" "http://www.w3.org/Graphics/SVG/1.1/DTD/svg11.dtd">
<svg version="1.1" id="Capa_1" xmlns="http://www.w3.org/2000/svg" xmlns:xlink="http://www.w3.org/1999/xlink" x="0px" y="0px"
	 viewBox="0 0 480.281 480.281" style="enable-background:new 0 0 480.281 480.281;" xml:space="preserve">
<g id="XMLID_98_">
	<path id="XMLID_99_" d="M77.427,224.924c22.298-6.113,35.449-29.14,29.352-51.453c-6.1-22.299-29.148-35.434-51.463-29.328
		c-22.282,6.107-35.417,29.133-29.319,51.439C32.094,217.887,55.129,231.022,77.427,224.924z"/>
	<path id="XMLID_100_" d="M475.673,437.565c-6.178-6.168-16.17-6.16-22.33-0.008c-7.334,7.319-20.047,7.312-27.334,0.008
		c-19.201-19.226-52.758-19.226-71.977,0c-7.319,7.311-20.031,7.319-27.335,0.008c-19.827-19.851-52.103-19.866-72.04,0.032
		c-7.224,7.216-20.016,7.232-27.27-0.032c-19.202-19.226-52.148-19.858-72.604,0.618c-6.989,6.959-19.062,7.013-26.099-0.032
		c-18.936-18.891-51.883-18.866-70.756,0c-8.555,8.545-22.457,8.529-30.979,0c-6.176-6.146-16.152-6.152-22.329,0.016
		c-6.161,6.162-6.161,16.169,0,22.329c10.431,10.422,24.127,15.629,37.81,15.629c13.699,0,27.413-5.215,37.842-15.644
		c6.896-6.913,19.172-6.935,26.1,0.022c18.903,18.898,51.211,19.546,71.367-0.61c7.303-7.293,19.999-7.293,27.318,0
		c19.107,19.11,52.883,19.125,71.994-0.014c7.535-7.537,19.764-7.522,27.316,0.014c19.217,19.226,52.759,19.234,71.993-0.006
		c7.302-7.311,20.001-7.311,27.333,0c19.188,19.218,52.713,19.24,71.979,0.006C481.817,453.725,481.817,443.726,475.673,437.565z"/>
	<path id="XMLID_101_" d="M72.814,237.09c-19.691,3.045-30.524,25.098-25.271,44.3l28.445,103.994
		c3.471,12.69,13.009,22.83,25.457,27.083c12.463,4.246,26.207,2.064,36.715-5.864l61.047-35.966l61.689,34.973
		c3.689,2.095,7.708,3.088,11.664,3.088c8.242,0,16.264-4.323,20.61-12.009c6.458-11.376,2.456-25.84-8.929-32.29l-21.876-12.392
		l139.702-18.398c7.238-0.945,12.885-6.747,13.634-14.019c0.722-6.746,16.482-166.807-48.755-306.346
		c-3.691-7.881-13.027-11.304-20.984-7.607c-7.898,3.69-11.307,13.088-7.633,21c19.828,42.393,31.619,87.381,38.547,128.983H245.417
		l16.324-133.768c1.063-8.662-5.112-16.527-13.762-17.583c-8.755-1.001-16.526,5.105-17.56,13.76l-19.874,162.775l-59.719,45.667
		C150.826,226.472,94.917,233.672,72.814,237.09z M153.455,342.133l-11.338-43.339l19.22,3.659
		c3.313,0.626,6.785,0.431,10.178-0.749l25.363-8.82l-3.36,27.591c-2.063,0.501-4.083,1.267-5.975,2.337L153.455,342.133z
		 M381.348,187.192c6.115,52.618,5.005,96.41,3.849,116.792l-160.438,21.127c0-0.032,16.811-137.912,16.811-137.912L381.348,187.192
		z M168.889,258.372l35.51-27.154l-2.203,17.998l-38.656,13.479l-3.674-0.711h0.031
		C163.166,261.616,166.278,260.365,168.889,258.372z"/>
</g>
<g>
</g>
<g>
</g>
<g>
</g>
<g>
</g>
<g>
</g>
<g>
</g>
<g>
</g>
<g>
</g>
<g>
</g>
<g>
</g>
<g>
</g>
<g>
</g>
<g>
</g>
<g>
</g>
<g>
</g>
</svg>
