<?xml version="1.0" encoding="iso-8859-1"?>
<!-- Generator: Adobe Illustrator 18.0.0, SVG Export Plug-In . SVG Version: 6.00 Build 0)  -->
<!DOCTYPE svg PUBLIC "-//W3C//DTD SVG 1.1//EN" "http://www.w3.org/Graphics/SVG/1.1/DTD/svg11.dtd">
<svg version="1.1" id="Capa_1" xmlns="http://www.w3.org/2000/svg" xmlns:xlink="http://www.w3.org/1999/xlink" x="0px" y="0px"
	 viewBox="0 0 494.518 494.518" style="enable-background:new 0 0 494.518 494.518;" xml:space="preserve">
<g id="XMLID_152_">
	<path id="XMLID_153_" d="M247.258,74.148c20.483,0,37.075-16.59,37.075-37.082C284.333,16.6,267.741,0,247.258,0
		c-20.482,0-37.074,16.6-37.074,37.065C210.183,57.558,226.775,74.148,247.258,74.148z"/>
	<path id="XMLID_154_" d="M446.465,455.465H318.78v-49.578c0-6.3-5.108-11.408-11.4-11.408H187.138c-6.292,0-11.4,5.108-11.4,11.408
		v24.571H48.052c-6.292,0-11.4,5.109-11.4,11.409v52.651c176.436,0,134.886,0,421.214,0v-27.644
		C457.866,460.575,452.758,455.465,446.465,455.465z"/>
	<path id="XMLID_155_" d="M155.642,227.863c8.16,3.713,17.711,0.096,21.393-7.988l25.268-55.376l0.048,196.636
		c0,10.468,8.499,18.959,18.959,18.959c10.461,0,18.958-8.491,18.958-18.959V247.745h13.998v113.389
		c0,10.468,8.498,18.959,18.958,18.959c10.462,0,18.958-8.491,18.958-18.959l0.017-196.684l25.299,55.425
		c3.684,8.068,13.267,11.71,21.392,7.98c8.126-3.698,11.692-13.274,7.996-21.392l-52.87-115.828
		c-2.174-4.753-6.375-7.736-11.095-8.75l-19.688,55.408c3.778,3.974,6.179,9.285,6.179,15.206c0,12.236-9.925,22.161-22.169,22.161
		c-12.214,0-22.123-9.925-22.123-22.161c0-5.92,2.401-11.223,6.163-15.197l-19.688-55.408c-4.72,1.013-8.921,3.989-11.095,8.742
		l-52.854,115.828C143.949,214.58,147.519,224.156,155.642,227.863z"/>
	<path id="XMLID_156_" d="M243.951,131.008c1.119-0.178,2.125-0.664,3.293-0.664c1.184,0,2.188,0.495,3.324,0.664l17.66-49.724
		h-41.94L243.951,131.008z"/>
</g>
<g>
</g>
<g>
</g>
<g>
</g>
<g>
</g>
<g>
</g>
<g>
</g>
<g>
</g>
<g>
</g>
<g>
</g>
<g>
</g>
<g>
</g>
<g>
</g>
<g>
</g>
<g>
</g>
<g>
</g>
</svg>
