<?xml version="1.0" encoding="iso-8859-1"?>
<!-- Generator: Adobe Illustrator 18.0.0, SVG Export Plug-In . SVG Version: 6.00 Build 0)  -->
<!DOCTYPE svg PUBLIC "-//W3C//DTD SVG 1.1//EN" "http://www.w3.org/Graphics/SVG/1.1/DTD/svg11.dtd">
<svg version="1.1" id="Capa_1" xmlns="http://www.w3.org/2000/svg" xmlns:xlink="http://www.w3.org/1999/xlink" x="0px" y="0px"
	 viewBox="0 0 492.955 492.955" style="enable-background:new 0 0 492.955 492.955;" xml:space="preserve">
<g id="XMLID_285_">
	<path id="XMLID_286_" d="M387.88,229.184c26.327,14.074,59.09,4.173,73.189-22.155c14.088-26.344,4.147-59.1-22.173-73.174
		c-26.329-14.091-59.077-4.188-73.173,22.142C351.633,182.323,361.56,215.095,387.88,229.184z"/>
	<path id="XMLID_287_" d="M268.81,165.475c26.32,14.074,59.084,4.171,73.181-22.172c14.091-26.346,4.147-59.084-22.165-73.159
		c-26.336-14.089-59.085-4.202-73.172,22.141C232.555,118.613,242.482,151.386,268.81,165.475z"/>
	<path id="XMLID_288_" d="M149.731,101.73c26.329,14.09,59.094,4.173,73.184-22.154c14.088-26.33,4.155-59.069-22.166-73.174
		c-26.328-14.075-59.084-4.173-73.174,22.154C113.487,54.903,123.403,87.658,149.731,101.73z"/>
	<path id="XMLID_289_" d="M408.373,261.909L5.625,43.118v191.148l440.389,239.227c3.97,2.142,8.628,2.629,12.945,1.331
		c4.327-1.282,7.954-4.253,10.081-8.229l0.397-0.73C508.612,392.641,481.335,301.547,408.373,261.909z"/>
	<path id="XMLID_290_" d="M367.248,461.725L42.545,285.332c-8.083-4.351-18.164-1.379-22.546,6.67
		c-4.382,8.067-1.395,18.164,6.671,22.548l324.704,176.392c2.524,1.362,5.243,2.014,7.921,2.014c5.901,0,11.607-3.15,14.626-8.686
		C378.303,476.203,375.316,466.107,367.248,461.725z"/>
</g>
<g>
</g>
<g>
</g>
<g>
</g>
<g>
</g>
<g>
</g>
<g>
</g>
<g>
</g>
<g>
</g>
<g>
</g>
<g>
</g>
<g>
</g>
<g>
</g>
<g>
</g>
<g>
</g>
<g>
</g>
</svg>
