<?xml version="1.0" encoding="iso-8859-1"?>
<!-- Generator: Adobe Illustrator 18.0.0, SVG Export Plug-In . SVG Version: 6.00 Build 0)  -->
<!DOCTYPE svg PUBLIC "-//W3C//DTD SVG 1.1//EN" "http://www.w3.org/Graphics/SVG/1.1/DTD/svg11.dtd">
<svg version="1.1" id="Capa_1" xmlns="http://www.w3.org/2000/svg" xmlns:xlink="http://www.w3.org/1999/xlink" x="0px" y="0px"
	 viewBox="0 0 488.481 488.481" style="enable-background:new 0 0 488.481 488.481;" xml:space="preserve">
<g id="XMLID_147_">
	<path id="XMLID_148_" d="M117.254,215.317l38.527,38.604c-1.055-1.825-2.11-3.657-2.701-5.727l-18.467-64.479l30.014,58.566
		c3.699,7.214,11.133,11.757,19.243,11.757h103.801c11.944,0,21.626-9.679,21.626-21.625c0-11.943-9.682-21.626-21.626-21.626
		H197.09l-23.99-46.805l26.703,33.831h27.471l-46.14-46.24c-14.504-14.528-38.041-14.564-52.577-0.059l-11.243,11.218
		C102.767,177.244,102.794,200.838,117.254,215.317z"/>
	<path id="XMLID_149_" d="M287.672,267.014H183.871h-5.82c-4.849,0-9.217-1.588-13.103-3.901l29.135,29.185
		c15.079,15.112,37.667,17.832,55.693,8.591c4.857-0.946,80.833-33.748,85.387-35.69l80.933,61.943
		c12.544,9.622,30.487,7.138,40.016-5.313c9.587-12.519,7.206-30.436-5.313-40.016l-94.155-72.064
		c-8.185-6.259-19.108-7.627-28.535-3.598l-12.916,5.5c4.384,5.802,7.079,12.94,7.079,20.761
		C322.272,251.521,306.78,267.014,287.672,267.014z"/>
	<path id="XMLID_150_" d="M115.209,149.131c16.904-16.845,16.929-44.179,0.095-61.066c-16.853-16.879-44.189-16.911-61.067-0.068
		c-16.887,16.844-16.911,44.189-0.067,61.075C71.006,165.942,98.34,165.975,115.209,149.131z"/>
	<path id="XMLID_151_" d="M487.519,367.319c-3.859-13.804-18.135-21.819-31.98-18.009c-78.392,21.92-161.32,13.311-233.536-24.228
		L37.924,229.415c-12.747-6.622-28.392-1.656-34.997,11.058c-6.605,12.722-1.656,28.384,11.058,34.997l184.077,95.667
		c53.521,27.817,112.104,41.958,171.153,41.958c33.56,0,67.281-4.57,100.293-13.795C483.313,395.441,491.371,381.12,487.519,367.319
		z"/>
</g>
<g>
</g>
<g>
</g>
<g>
</g>
<g>
</g>
<g>
</g>
<g>
</g>
<g>
</g>
<g>
</g>
<g>
</g>
<g>
</g>
<g>
</g>
<g>
</g>
<g>
</g>
<g>
</g>
<g>
</g>
</svg>
