<?xml version="1.0" encoding="iso-8859-1"?>
<!-- Generator: Adobe Illustrator 18.0.0, SVG Export Plug-In . SVG Version: 6.00 Build 0)  -->
<!DOCTYPE svg PUBLIC "-//W3C//DTD SVG 1.1//EN" "http://www.w3.org/Graphics/SVG/1.1/DTD/svg11.dtd">
<svg version="1.1" id="Capa_1" xmlns="http://www.w3.org/2000/svg" xmlns:xlink="http://www.w3.org/1999/xlink" x="0px" y="0px"
	 viewBox="0 0 495.939 495.939" style="enable-background:new 0 0 495.939 495.939;" xml:space="preserve">
<g id="XMLID_610_">
	<path id="XMLID_611_" d="M280.188,87.269c18.696-10.649,25.192-34.44,14.541-53.137c-10.649-18.681-34.424-25.21-53.122-14.541
		c-18.696,10.666-25.225,34.439-14.574,53.152C237.717,91.423,261.523,97.937,280.188,87.269z"/>
	<path id="XMLID_612_" d="M231.731,414.408c3.463,1.863,7.344,3.052,11.542,3.118c0.14,0,0.28,0,0.421,0
		c4.146,0,8.004-1.091,11.467-2.869l-2.656-18.615L231.731,414.408z"/>
	<path id="XMLID_613_" d="M489.03,374.806l-64.679-68.487c-3.645-7.419-39.609-83.094-45.506-88.388l-29.774-52.23l13.387,4.633
		l66.007,55.809c8.879,7.533,22.184,6.447,29.743-2.473c7.525-8.904,6.413-22.226-2.488-29.744l-69.017-58.363
		c-1.987-1.684-4.271-2.987-6.727-3.842c-42.857-14.807-76.343-28.572-88.281-27.734c-11.672,0.908-29.116,11.773-34.919,18.318
		l8.491,0.363l-56.635,12.727l-61.274-13.188c-11.344-2.457-22.605,4.781-25.076,16.175c-2.45,11.409,4.797,22.62,16.189,25.074
		l65.817,14.181c3.1,0.66,6.175,0.626,9.077-0.033l61.175-13.751l-57.474,30.222c-5.301,2.787-8.88,1.682-14.443,0.478
		c-5.837,2.951-59.009,28.952-63.353,33.8c-5.539,3.182-18.11,13.7-22.143,20.807c-40.368,37.574-32.109,29.891-42.578,39.619
		L17.299,299.28C5.84,301.372-1.752,312.37,0.35,323.843c2.185,11.972,14.304,18.795,24.566,16.951l63.311-11.607
		c6.841-1.254,11.491-6.168,16.266-10.619l24.738-23.015l47.26,55.019l-28.003,24.748l-78.999-21.946
		c-12.991-3.628-27.4,3.956-31.177,17.624c-3.743,13.472,4.146,27.434,17.625,31.178l92.245,25.622
		c8.021,2.242,16.974,0.379,23.545-5.426c55.742-49.263,40.509-35.81,73.928-65.337c27.502,3.018,19.068,2.094,35.951,3.955
		l14.105,98.742c1.946,13.601,14.442,23.43,28.646,21.5c13.849-1.98,23.468-14.805,21.49-28.656l-16.884-118.181
		c-1.63-11.441-10.806-20.327-22.29-21.597l-67.489-7.435l-49.082-57.16l31.02-15.713c5.605-2.838,9.8-4.37,13.438-9.432
		l29.906-41.333l35.052,61.464l-45.133,28.045l1.739,2.029l54.26,5.969c6.595,0.725,12.843,2.554,18.597,5.258l21.426-13.322
		c0.058-0.031,0.107-0.082,0.164-0.131l30.016,61.068c1.122,2.275,2.572,4.368,4.311,6.216l67.302,71.273
		c9.612,10.176,25.62,10.619,35.802,1.023C498.172,401.006,498.627,384.978,489.03,374.806z"/>
	<path id="XMLID_614_" d="M90.684,228.07c11.187,2.785,23.494,0.363,32.892-7.73c8.211-7.041,12.432-16.916,12.712-26.939
		c0.124-4.652-0.612-9.284-2.245-13.719c-12.528-3.018-22.157-11.904-26.525-23.148c-10.932-2.424-22.811,0.03-31.978,7.898
		c-15.424,13.254-17.181,36.533-3.923,51.967C76.792,222.432,83.512,226.308,90.684,228.07z"/>
</g>
<g>
</g>
<g>
</g>
<g>
</g>
<g>
</g>
<g>
</g>
<g>
</g>
<g>
</g>
<g>
</g>
<g>
</g>
<g>
</g>
<g>
</g>
<g>
</g>
<g>
</g>
<g>
</g>
<g>
</g>
</svg>
