<?xml version="1.0" encoding="iso-8859-1"?>
<!-- Generator: Adobe Illustrator 18.0.0, SVG Export Plug-In . SVG Version: 6.00 Build 0)  -->
<!DOCTYPE svg PUBLIC "-//W3C//DTD SVG 1.1//EN" "http://www.w3.org/Graphics/SVG/1.1/DTD/svg11.dtd">
<svg version="1.1" id="Capa_1" xmlns="http://www.w3.org/2000/svg" xmlns:xlink="http://www.w3.org/1999/xlink" x="0px" y="0px"
	 viewBox="0 0 496.849 496.849" style="enable-background:new 0 0 496.849 496.849;" xml:space="preserve">
<g id="XMLID_416_">
	<path id="XMLID_417_" d="M64.326,98.404C81.752,87.304,86.871,64.172,75.801,46.73C64.666,29.321,41.553,24.2,24.112,35.302
		C6.686,46.421,1.549,69.551,12.651,86.961C23.752,104.388,46.883,109.524,64.326,98.404z"/>
	<path id="XMLID_418_" d="M98.95,237.289c-2.196-4.974-3.462-10.484-3.462-16.271c0-22.385,18.155-40.541,40.538-40.541h19.442
		l-24.057-37.745l28.283-12.956c1.983-0.893,3.787-2.111,5.396-3.59l47.742-44.508c8.192-7.623,8.63-20.45,1.024-28.641
		c-7.673-8.193-20.466-8.615-28.659-1.025l-45.352,42.264l-34.625,15.848c-2.405-1.217-4.924-2.095-7.574-2.844
		c-16.012-4.503-34.932,6.633-44.312,19.62l-50.05,73.05c-5.541,8.486-3.934,19.767,3.739,26.384l42.93,37.126
		c8.533,7.348,21.295,6.373,28.593-2.064c7.33-8.484,6.389-21.277-2.08-28.592l-29.568-25.571l16.596-25.585L98.95,237.289z"/>
	<path id="XMLID_419_" d="M185.182,313.95l-20.578-52.392h-28.577c-12.5,0-23.521-5.77-30.964-14.663l4.763,7.479
		c0.991,3.674,27.241,70.204,28.642,73.732l6.518,116.355c0.747,12.938,11.459,22.951,24.269,22.951
		c0.472,0,0.928-0.017,1.397-0.032c13.412-0.763,23.652-12.24,22.92-25.651l-6.745-120.238
		C186.662,318.889,186.11,316.371,185.182,313.95z"/>
	<path id="XMLID_420_" d="M206.135,141.367l-35.289,39.11h65.51l3.347-3.705l75.571-43.792l-37.209-34.672l-66.059,38.298
		C209.81,137.872,207.828,139.482,206.135,141.367z"/>
	<path id="XMLID_421_" d="M432.522,98.404c17.442,11.12,40.573,5.983,51.676-11.443c11.104-17.41,5.967-40.54-11.46-51.659
		c-17.442-11.101-40.557-5.98-51.69,11.429C409.976,64.172,415.096,87.304,432.522,98.404z"/>
	<path id="XMLID_422_" d="M493.561,199.95c-4.535-6.989-42.719-64.631-50.049-73.05c-11.966-10.841-28.108-23.212-44.313-19.62
		c-2.683,0.603-5.17,1.627-7.575,2.844L357,94.276l-45.352-42.264c-8.176-7.574-20.984-7.184-28.658,1.025
		c-7.607,8.19-7.168,21.018,1.023,28.641l47.742,44.508c1.61,1.479,3.414,2.697,5.397,3.59l28.283,12.956
		c-11.475,18.026-2.86,4.487-46.276,72.646c-25.749-8.794-14.826-5.056-50.962-17.379c-2.518-0.86-5.185-1.299-7.85-1.299H136.027
		c-13.442,0-24.317,10.891-24.317,24.318c0,13.443,10.875,24.317,24.317,24.317H256.3c34.12,11.638,18.075,6.16,72.578,24.79
		l-17.213,43.824c-0.927,2.421-1.479,4.939-1.644,7.541l-6.744,120.238c-0.732,13.411,9.51,24.889,22.92,25.651
		c0.471,0.016,0.928,0.032,1.397,0.032c12.81,0,23.521-10.014,24.27-22.951l6.519-116.355c1.399-3.528,27.65-70.059,28.642-73.732
		l46.327-72.727l16.597,25.585l-29.568,25.571c-8.469,7.314-9.395,20.107-2.081,28.592c7.298,8.438,20.06,9.412,28.593,2.064
		l42.93-37.126C497.493,219.717,499.104,208.436,493.561,199.95z"/>
</g>
<g>
</g>
<g>
</g>
<g>
</g>
<g>
</g>
<g>
</g>
<g>
</g>
<g>
</g>
<g>
</g>
<g>
</g>
<g>
</g>
<g>
</g>
<g>
</g>
<g>
</g>
<g>
</g>
<g>
</g>
</svg>
